<svg width="336" height="294" viewBox="0 0 336 294" fill="none" xmlns="http://www.w3.org/2000/svg">
<rect width="336" height="294" rx="7.81395" fill="#080531"/>
<path d="M12.97 19.42C13.61 18.8867 14.12 18.4433 14.5 18.09C14.88 17.73 15.1967 17.3567 15.45 16.97C15.7033 16.5833 15.83 16.2033 15.83 15.83C15.83 15.49 15.75 15.2233 15.59 15.03C15.43 14.8367 15.1833 14.74 14.85 14.74C14.5167 14.74 14.26 14.8533 14.08 15.08C13.9 15.3 13.8067 15.6033 13.8 15.99H12.44C12.4667 15.19 12.7033 14.5833 13.15 14.17C13.6033 13.7567 14.1767 13.55 14.87 13.55C15.63 13.55 16.2133 13.7533 16.62 14.16C17.0267 14.56 17.23 15.09 17.23 15.75C17.23 16.27 17.09 16.7667 16.81 17.24C16.53 17.7133 16.21 18.1267 15.85 18.48C15.49 18.8267 15.02 19.2467 14.44 19.74H17.39V20.9H12.45V19.86L12.97 19.42ZM19.2722 17.26C19.2722 16.1067 19.4789 15.2033 19.8922 14.55C20.3122 13.8967 21.0055 13.57 21.9722 13.57C22.9389 13.57 23.6289 13.8967 24.0422 14.55C24.4622 15.2033 24.6722 16.1067 24.6722 17.26C24.6722 18.42 24.4622 19.33 24.0422 19.99C23.6289 20.65 22.9389 20.98 21.9722 20.98C21.0055 20.98 20.3122 20.65 19.8922 19.99C19.4789 19.33 19.2722 18.42 19.2722 17.26ZM23.2922 17.26C23.2922 16.7667 23.2589 16.3533 23.1922 16.02C23.1322 15.68 23.0055 15.4033 22.8122 15.19C22.6255 14.9767 22.3455 14.87 21.9722 14.87C21.5989 14.87 21.3155 14.9767 21.1222 15.19C20.9355 15.4033 20.8089 15.68 20.7422 16.02C20.6822 16.3533 20.6522 16.7667 20.6522 17.26C20.6522 17.7667 20.6822 18.1933 20.7422 18.54C20.8022 18.88 20.9289 19.1567 21.1222 19.37C21.3155 19.5767 21.5989 19.68 21.9722 19.68C22.3455 19.68 22.6289 19.5767 22.8222 19.37C23.0155 19.1567 23.1422 18.88 23.2022 18.54C23.2622 18.1933 23.2922 17.7667 23.2922 17.26ZM27.177 19.42C27.817 18.8867 28.327 18.4433 28.707 18.09C29.087 17.73 29.4037 17.3567 29.657 16.97C29.9104 16.5833 30.037 16.2033 30.037 15.83C30.037 15.49 29.957 15.2233 29.797 15.03C29.637 14.8367 29.3904 14.74 29.057 14.74C28.7237 14.74 28.467 14.8533 28.287 15.08C28.107 15.3 28.0137 15.6033 28.007 15.99L26.647 15.99C26.6737 15.19 26.9104 14.5833 27.357 14.17C27.8104 13.7567 28.3837 13.55 29.077 13.55C29.837 13.55 30.4204 13.7533 30.827 14.16C31.2337 14.56 31.437 15.09 31.437 15.75C31.437 16.27 31.297 16.7667 31.017 17.24C30.737 17.7133 30.417 18.1267 30.057 18.48C29.697 18.8267 29.227 19.2467 28.647 19.74H31.597V20.9L26.657 20.9V19.86L27.177 19.42ZM33.4992 15.63C33.5326 14.9633 33.7659 14.45 34.1992 14.09C34.6392 13.7233 35.2159 13.54 35.9292 13.54C36.4159 13.54 36.8326 13.6267 37.1792 13.8C37.5259 13.9667 37.7859 14.1967 37.9592 14.49C38.1392 14.7767 38.2292 15.1033 38.2292 15.47C38.2292 15.89 38.1192 16.2467 37.8992 16.54C37.6859 16.8267 37.4292 17.02 37.1292 17.12V17.16C37.5159 17.28 37.8159 17.4933 38.0292 17.8C38.2492 18.1067 38.3592 18.5 38.3592 18.98C38.3592 19.38 38.2659 19.7367 38.0792 20.05C37.8992 20.3633 37.6292 20.61 37.2692 20.79C36.9159 20.9633 36.4892 21.05 35.9892 21.05C35.2359 21.05 34.6226 20.86 34.1492 20.48C33.6759 20.1 33.4259 19.54 33.3992 18.8H34.7592C34.7726 19.1267 34.8826 19.39 35.0892 19.59C35.3026 19.7833 35.5926 19.88 35.9592 19.88C36.2992 19.88 36.5592 19.7867 36.7392 19.6C36.9259 19.4067 37.0192 19.16 37.0192 18.86C37.0192 18.46 36.8926 18.1733 36.6392 18C36.3859 17.8267 35.9926 17.74 35.4592 17.74H35.1692V16.59H35.4592C36.4059 16.59 36.8792 16.2733 36.8792 15.64C36.8792 15.3533 36.7926 15.13 36.6192 14.97C36.4526 14.81 36.2092 14.73 35.8892 14.73C35.5759 14.73 35.3326 14.8167 35.1592 14.99C34.9926 15.1567 34.8959 15.37 34.8692 15.63H33.4992ZM47.6084 21L46.0684 18.28H45.4084V21H44.0084V14.02H46.6284C47.1684 14.02 47.6284 14.1167 48.0084 14.31C48.3884 14.4967 48.6717 14.7533 48.8584 15.08C49.0517 15.4 49.1484 15.76 49.1484 16.16C49.1484 16.62 49.015 17.0367 48.7484 17.41C48.4817 17.7767 48.085 18.03 47.5584 18.17L49.2284 21H47.6084ZM45.4084 17.23H46.5784C46.9584 17.23 47.2417 17.14 47.4284 16.96C47.615 16.7733 47.7084 16.5167 47.7084 16.19C47.7084 15.87 47.615 15.6233 47.4284 15.45C47.2417 15.27 46.9584 15.18 46.5784 15.18H45.4084V17.23ZM52.8146 15.15V16.9H55.1646V18.01H52.8146V19.86H55.4646V21H51.4146V14.01H55.4646V15.15H52.8146ZM67.0669 14.02L65.1169 21H63.4669L62.1569 16.03L60.7869 21L59.1469 21.01L57.2669 14.02H58.7669L59.9969 19.44L61.4169 14.02H62.9769L64.3169 19.41L65.5569 14.02H67.0669ZM70.381 14.02V21H68.981V14.02H70.381ZM78.7342 21H77.3342L74.1642 16.21V21H72.7642V14.01H74.1642L77.3342 18.81V14.01H78.7342V21ZM83.5577 14.02C84.2911 14.02 84.9344 14.1633 85.4877 14.45C86.0477 14.7367 86.4777 15.1467 86.7777 15.68C87.0844 16.2067 87.2377 16.82 87.2377 17.52C87.2377 18.22 87.0844 18.8333 86.7777 19.36C86.4777 19.88 86.0477 20.2833 85.4877 20.57C84.9344 20.8567 84.2911 21 83.5577 21H81.1177V14.02H83.5577ZM83.5077 19.81C84.2411 19.81 84.8077 19.61 85.2077 19.21C85.6077 18.81 85.8077 18.2467 85.8077 17.52C85.8077 16.7933 85.6077 16.2267 85.2077 15.82C84.8077 15.4067 84.2411 15.2 83.5077 15.2H82.5177V19.81H83.5077Z" fill="white"/>
<path d="M95.0419 216.573L66 228.548V230H324V52L296.759 66.5158L267.942 75.2253L239.126 83.7533L210.309 90.4669L181.267 101.354L152.675 130.204L124.084 166.312L95.0419 216.573Z" fill="url(#paint0_linear_397_24238)"/>
<path d="M95.0419 182.121L66 230H324V85L296.759 96.2886L267.942 106.215L239.126 117.114L210.309 123.608L181.492 129.96L152.675 146.114L123.859 159.544L95.0419 182.121Z" fill="url(#paint1_linear_397_24238)"/>
<path d="M95.0419 225.324L66 230H324V155L296.759 159.496L267.942 163.813L239.126 169.029L210.309 175.863L181.492 190.971L152.675 210.036L123.859 218.669L95.0419 225.324Z" fill="url(#paint2_linear_397_24238)"/>
<g opacity="0.5">
<path d="M56.6129 245.132L59.7404 250.549L58.8519 251.062L56.7099 247.352L57.1995 252.016L56.5838 252.372L52.7816 249.62L54.9236 253.33L54.0351 253.843L50.9076 248.426L51.8663 247.873L56.2206 251.023L55.662 245.681L56.6129 245.132ZM59.3611 247.879C59.1121 247.448 58.98 247.015 58.9646 246.58C58.9545 246.143 59.0502 245.745 59.2518 245.386C59.4556 245.019 59.7445 244.727 60.1186 244.511C60.4564 244.316 60.789 244.214 61.1164 244.205C61.446 244.188 61.7431 244.235 62.0078 244.345L61.6478 243.722L62.5442 243.204L65.0237 247.499L64.1273 248.016L63.7583 247.377C63.7246 247.667 63.6169 247.954 63.4351 248.239C63.2533 248.525 62.9961 248.763 62.6635 248.955C62.2946 249.168 61.9029 249.27 61.4883 249.26C61.0707 249.244 60.6735 249.12 60.2966 248.887C59.922 248.647 59.6101 248.31 59.3611 247.879ZM62.8853 245.865C62.7143 245.569 62.5035 245.348 62.2528 245.202C62.0072 245.052 61.7528 244.978 61.4893 244.977C61.2259 244.977 60.9798 245.043 60.7512 245.175C60.5226 245.307 60.3425 245.487 60.2111 245.715C60.0766 245.938 60.01 246.195 60.0113 246.485C60.0148 246.767 60.102 247.056 60.273 247.353C60.444 247.649 60.6538 247.874 60.9023 248.029C61.156 248.18 61.4161 248.258 61.6826 248.264C61.9512 248.261 62.1972 248.195 62.4207 248.066C62.6493 247.934 62.8294 247.754 62.9608 247.526C63.0923 247.298 63.1547 247.04 63.1483 246.753C63.144 246.457 63.0563 246.161 62.8853 245.865ZM64.9598 242.641C64.9637 242.348 65.0376 242.08 65.1817 241.837C65.3279 241.587 65.5491 241.376 65.8453 241.205L66.3763 242.125L66.1503 242.255C65.8021 242.456 65.5881 242.697 65.5083 242.979C65.4336 243.258 65.5223 243.615 65.7743 244.052L67.0793 246.312L66.1907 246.825L63.7112 242.531L64.5998 242.018L64.9598 242.641Z" fill="white"/>
<path d="M85.8594 249.348L83.5912 250.658L83.8405 251.99L82.913 252.525L81.7218 245.98L82.7506 245.386L87.8234 249.69L86.8881 250.23L85.8594 249.348ZM85.1914 248.768L82.8572 246.759L83.4221 249.789L85.1914 248.768ZM87.4408 245.027C87.4774 244.742 87.5867 244.458 87.7685 244.172C87.9503 243.887 88.2049 243.65 88.5323 243.461C88.9064 243.245 89.3007 243.142 89.7153 243.152C90.1321 243.154 90.5248 243.27 90.8935 243.501C91.2621 243.732 91.571 244.062 91.82 244.494C92.069 244.925 92.2041 245.363 92.2255 245.808C92.2438 246.248 92.1526 246.654 91.9518 247.026C91.7532 247.39 91.4669 247.68 91.0928 247.896C90.7654 248.085 90.4369 248.188 90.1073 248.205C89.7747 248.217 89.4708 248.171 89.1958 248.067L90.7348 250.732L89.8462 251.245L86.1877 244.908L87.0763 244.395L87.4408 245.027ZM90.9158 245.016C90.7448 244.72 90.5355 244.501 90.2878 244.36C90.0423 244.211 89.7867 244.14 89.521 244.148C89.2576 244.148 89.0115 244.213 88.7829 244.345C88.5595 244.474 88.3794 244.655 88.2428 244.886C88.1113 245.114 88.0462 245.374 88.0475 245.664C88.054 245.951 88.1428 246.243 88.3138 246.539C88.4848 246.835 88.6945 247.06 88.943 247.215C89.1937 247.361 89.4508 247.434 89.7143 247.435C89.9829 247.432 90.229 247.366 90.4524 247.237C90.681 247.105 90.8611 246.925 90.9925 246.697C91.1262 246.46 91.1883 246.196 91.1788 245.903C91.1745 245.608 91.0868 245.312 90.9158 245.016ZM92.7187 241.969C92.7226 241.676 92.7966 241.408 92.9406 241.166C93.0868 240.915 93.308 240.704 93.6042 240.533L94.1352 241.453L93.9092 241.583C93.561 241.784 93.347 242.026 93.2672 242.307C93.1925 242.586 93.2812 242.943 93.5332 243.38L94.8382 245.64L93.9496 246.153L91.4701 241.859L92.3587 241.346L92.7187 241.969Z" fill="white"/>
<path d="M113.291 245.524L116.418 250.941L115.53 251.454L113.388 247.744L113.877 252.408L113.262 252.764L109.459 250.012L111.601 253.722L110.713 254.235L107.585 248.818L108.544 248.265L112.898 251.415L112.34 246.073L113.291 245.524ZM116.039 248.271C115.79 247.84 115.658 247.407 115.642 246.972C115.632 246.535 115.728 246.137 115.93 245.778C116.133 245.411 116.422 245.119 116.796 244.903C117.134 244.708 117.467 244.606 117.794 244.597C118.124 244.58 118.421 244.627 118.686 244.737L118.326 244.114L119.222 243.596L121.702 247.891L120.805 248.409L120.436 247.769C120.403 248.059 120.295 248.346 120.113 248.632C119.931 248.917 119.674 249.155 119.341 249.347C118.972 249.56 118.581 249.662 118.166 249.652C117.749 249.636 117.351 249.512 116.974 249.28C116.6 249.039 116.288 248.703 116.039 248.271ZM119.563 246.257C119.392 245.961 119.181 245.74 118.931 245.594C118.685 245.444 118.431 245.37 118.167 245.369C117.904 245.369 117.658 245.435 117.429 245.567C117.2 245.699 117.02 245.879 116.889 246.107C116.754 246.33 116.688 246.587 116.689 246.877C116.693 247.159 116.78 247.449 116.951 247.745C117.122 248.041 117.332 248.266 117.58 248.421C117.834 248.572 118.094 248.651 118.36 248.656C118.629 248.653 118.875 248.588 119.099 248.459C119.327 248.327 119.507 248.146 119.639 247.918C119.77 247.69 119.833 247.432 119.826 247.145C119.822 246.849 119.734 246.554 119.563 246.257ZM124.255 240.691L125.266 248.525L124.346 249.056L124.013 246.463L119.882 243.215L120.872 242.644L123.97 245.22L123.335 241.222L124.255 240.691Z" fill="white"/>
<path d="M141.111 245.579L143.365 249.484C143.644 249.967 143.717 250.435 143.582 250.886C143.453 251.335 143.15 251.697 142.672 251.973C142.194 252.249 141.726 252.332 141.268 252.223C140.815 252.11 140.449 251.812 140.17 251.329L141.066 250.812C141.209 251.048 141.378 251.203 141.574 251.277C141.774 251.348 141.989 251.318 142.217 251.186C142.446 251.054 142.58 250.883 142.618 250.674C142.654 250.46 142.604 250.235 142.469 250.002L140.214 246.097L141.111 245.579ZM147.093 243.621L149.573 247.916L148.684 248.429L148.392 247.922C148.354 248.18 148.25 248.427 148.082 248.663C147.915 248.891 147.705 249.078 147.45 249.225C147.112 249.42 146.768 249.525 146.417 249.541C146.071 249.554 145.74 249.467 145.425 249.282C145.116 249.094 144.848 248.804 144.623 248.415L143.165 245.889L144.046 245.381L145.427 247.774C145.649 248.158 145.917 248.399 146.229 248.496C146.538 248.587 146.859 248.537 147.192 248.345C147.524 248.153 147.728 247.9 147.803 247.587C147.881 247.265 147.808 246.912 147.586 246.527L146.205 244.134L147.093 243.621ZM150.392 241.623C150.73 241.428 151.072 241.325 151.418 241.312C151.769 241.296 152.099 241.383 152.409 241.571C152.719 241.759 152.986 242.048 153.211 242.438L154.674 244.971L153.793 245.48L152.407 243.079C152.185 242.695 151.919 242.456 151.61 242.365C151.298 242.268 150.975 242.316 150.643 242.508C150.31 242.7 150.105 242.956 150.028 243.278C149.952 243.592 150.026 243.941 150.248 244.326L151.634 246.726L150.745 247.239L148.266 242.945L149.154 242.432L149.438 242.923C149.481 242.662 149.586 242.418 149.753 242.19C149.924 241.959 150.138 241.77 150.392 241.623Z" fill="white"/>
<path d="M171.251 243.953L173.506 247.858C173.785 248.341 173.857 248.808 173.723 249.26C173.594 249.708 173.29 250.071 172.812 250.347C172.334 250.623 171.866 250.706 171.408 250.596C170.955 250.484 170.589 250.186 170.31 249.703L171.206 249.185C171.35 249.421 171.519 249.576 171.714 249.651C171.915 249.722 172.129 249.691 172.358 249.559C172.587 249.427 172.72 249.257 172.759 249.048C172.794 248.833 172.744 248.609 172.609 248.375L170.355 244.47L171.251 243.953ZM177.234 241.995L179.713 246.29L178.825 246.803L178.532 246.296C178.494 246.554 178.391 246.8 178.222 247.036C178.056 247.264 177.845 247.451 177.59 247.598C177.253 247.793 176.908 247.899 176.557 247.915C176.211 247.927 175.881 247.841 175.566 247.655C175.256 247.467 174.989 247.178 174.764 246.788L173.306 244.263L174.186 243.754L175.568 246.147C175.79 246.532 176.057 246.773 176.369 246.869C176.679 246.961 176.999 246.911 177.332 246.719C177.665 246.527 177.869 246.274 177.944 245.96C178.021 245.639 177.949 245.285 177.727 244.901L176.345 242.508L177.234 241.995ZM178.444 239.332L181.774 245.1L180.886 245.613L177.556 239.845L178.444 239.332Z" fill="white"/>
<path d="M199.387 250.716L197.119 252.025L197.368 253.357L196.441 253.892L195.25 247.347L196.278 246.753L201.351 251.057L200.416 251.597L199.387 250.716ZM198.719 250.135L196.385 248.126L196.95 251.156L198.719 250.135ZM203.605 244.03L206.084 248.325L205.196 248.838L204.903 248.331C204.865 248.589 204.761 248.836 204.593 249.072C204.426 249.299 204.216 249.487 203.961 249.634C203.624 249.829 203.279 249.934 202.928 249.95C202.582 249.962 202.251 249.876 201.937 249.691C201.627 249.502 201.359 249.213 201.134 248.823L199.676 246.298L200.557 245.79L201.939 248.182C202.161 248.567 202.428 248.808 202.74 248.905C203.049 248.996 203.37 248.946 203.703 248.754C204.035 248.562 204.239 248.309 204.315 247.996C204.392 247.674 204.32 247.32 204.098 246.936L202.716 244.543L203.605 244.03ZM206.467 242.284C206.8 242.092 207.132 241.99 207.465 241.978C207.8 241.958 208.097 242.005 208.356 242.118L207.996 241.495L208.892 240.977L211.412 245.342C211.64 245.737 211.76 246.136 211.771 246.538C211.784 246.946 211.684 247.33 211.469 247.689C211.259 248.046 210.936 248.35 210.499 248.602C209.917 248.938 209.355 249.08 208.811 249.026C208.271 248.978 207.839 248.735 207.517 248.298L208.398 247.789C208.595 247.973 208.841 248.07 209.137 248.079C209.442 248.091 209.747 248.008 210.054 247.831C210.412 247.624 210.638 247.348 210.73 247.004C210.827 246.657 210.756 246.275 210.516 245.86L210.102 245.142C210.068 245.432 209.962 245.722 209.783 246.012C209.607 246.294 209.355 246.53 209.027 246.719C208.653 246.935 208.256 247.04 207.837 247.032C207.419 247.017 207.022 246.893 206.645 246.66C206.27 246.419 205.958 246.083 205.709 245.652C205.46 245.221 205.328 244.788 205.313 244.353C205.303 243.916 205.399 243.518 205.6 243.159C205.804 242.792 206.093 242.5 206.467 242.284ZM209.234 243.638C209.063 243.342 208.852 243.121 208.601 242.975C208.356 242.825 208.101 242.751 207.838 242.75C207.574 242.75 207.328 242.816 207.1 242.948C206.871 243.08 206.691 243.26 206.559 243.488C206.425 243.711 206.358 243.968 206.36 244.258C206.363 244.54 206.45 244.829 206.621 245.126C206.792 245.422 207.002 245.647 207.251 245.802C207.504 245.953 207.764 246.031 208.031 246.037C208.3 246.034 208.546 245.968 208.769 245.839C208.998 245.707 209.178 245.527 209.309 245.299C209.441 245.071 209.503 244.813 209.497 244.526C209.492 244.23 209.405 243.934 209.234 243.638Z" fill="white"/>
<path d="M228.693 253.446C228.329 253.656 227.965 253.783 227.602 253.826C227.236 253.864 226.903 253.815 226.602 253.677C226.3 253.539 226.06 253.314 225.88 253.002L226.831 252.453C226.986 252.675 227.188 252.815 227.436 252.873C227.69 252.927 227.964 252.869 228.261 252.698C228.567 252.521 228.764 252.31 228.852 252.066C228.936 251.816 228.911 251.574 228.776 251.341C228.671 251.159 228.531 251.042 228.356 250.991C228.186 250.937 228.002 250.925 227.805 250.955C227.613 250.983 227.356 251.041 227.033 251.131C226.626 251.241 226.284 251.314 226.006 251.35C225.731 251.377 225.457 251.334 225.184 251.222C224.911 251.109 224.677 250.884 224.482 250.546C224.302 250.234 224.223 249.916 224.244 249.593C224.264 249.269 224.379 248.963 224.588 248.677C224.796 248.39 225.085 248.14 225.454 247.927C225.979 247.624 226.484 247.509 226.97 247.582C227.457 247.647 227.851 247.898 228.152 248.334L227.17 248.901C227.04 248.712 226.849 248.597 226.597 248.556C226.344 248.515 226.078 248.575 225.797 248.737C225.542 248.884 225.372 249.069 225.286 249.292C225.2 249.515 225.227 249.749 225.368 249.993C225.464 250.159 225.593 250.268 225.755 250.32C225.919 250.364 226.097 250.372 226.289 250.345C226.481 250.317 226.733 250.262 227.045 250.178C227.46 250.07 227.808 250.001 228.089 249.971C228.374 249.937 228.655 249.98 228.931 250.097C229.209 250.207 229.447 250.433 229.645 250.776C229.804 251.052 229.879 251.355 229.869 251.686C229.865 252.014 229.763 252.336 229.564 252.652C229.368 252.96 229.077 253.224 228.693 253.446ZM234.216 247.181C234.309 247.343 234.382 247.494 234.437 247.636L231.155 249.53C231.379 249.858 231.665 250.06 232.014 250.136C232.363 250.212 232.703 250.154 233.036 249.962C233.514 249.686 233.736 249.291 233.703 248.777L234.661 248.223C234.759 248.693 234.71 249.154 234.515 249.607C234.321 250.051 233.972 250.419 233.468 250.71C233.057 250.947 232.636 251.069 232.204 251.076C231.773 251.075 231.369 250.962 230.99 250.738C230.613 250.505 230.297 250.168 230.042 249.726C229.787 249.285 229.652 248.847 229.636 248.412C229.623 247.969 229.725 247.564 229.942 247.196C230.165 246.825 230.486 246.518 230.907 246.275C231.313 246.041 231.725 245.921 232.144 245.915C232.563 245.908 232.954 246.015 233.316 246.235C233.676 246.45 233.976 246.766 234.216 247.181ZM233.126 247.436C232.932 247.112 232.664 246.917 232.321 246.852C231.978 246.786 231.638 246.851 231.3 247.046C230.994 247.223 230.788 247.473 230.684 247.797C230.577 248.115 230.599 248.452 230.749 248.809L233.126 247.436ZM235.164 244.753C235.201 244.468 235.31 244.184 235.492 243.899C235.674 243.613 235.928 243.376 236.256 243.187C236.63 242.971 237.024 242.868 237.439 242.878C237.855 242.88 238.248 242.997 238.617 243.227C238.986 243.458 239.294 243.789 239.543 244.22C239.792 244.651 239.928 245.089 239.949 245.534C239.967 245.974 239.876 246.38 239.675 246.752C239.477 247.116 239.19 247.406 238.816 247.622C238.489 247.811 238.16 247.914 237.831 247.931C237.498 247.943 237.194 247.897 236.919 247.793L238.458 250.458L237.57 250.971L233.911 244.635L234.8 244.122L235.164 244.753ZM238.639 244.742C238.468 244.446 238.259 244.227 238.011 244.086C237.766 243.937 237.51 243.866 237.244 243.874C236.981 243.874 236.735 243.94 236.506 244.072C236.283 244.201 236.103 244.381 235.966 244.612C235.835 244.84 235.77 245.1 235.771 245.39C235.777 245.677 235.866 245.969 236.037 246.265C236.208 246.561 236.418 246.786 236.666 246.941C236.917 247.087 237.174 247.16 237.438 247.161C237.706 247.158 237.952 247.092 238.176 246.963C238.404 246.831 238.584 246.651 238.716 246.423C238.85 246.186 238.912 245.922 238.902 245.629C238.898 245.334 238.81 245.038 238.639 244.742Z" fill="white"/>
<path d="M257.758 251.737C257.254 252.028 256.721 252.179 256.16 252.192C255.601 252.196 255.075 252.059 254.583 251.782C254.093 251.497 253.695 251.09 253.389 250.56C253.083 250.03 252.93 249.484 252.932 248.922C252.938 248.357 253.084 247.836 253.37 247.359C253.658 246.874 254.054 246.486 254.558 246.195C255.067 245.901 255.601 245.752 256.16 245.748C256.721 245.736 257.246 245.87 257.733 246.15C258.22 246.43 258.617 246.835 258.923 247.365C259.229 247.895 259.383 248.443 259.384 249.01C259.383 249.572 259.238 250.096 258.95 250.581C258.664 251.057 258.267 251.443 257.758 251.737ZM257.312 250.965C257.671 250.758 257.944 250.493 258.131 250.17C258.316 249.842 258.399 249.482 258.381 249.091C258.365 248.691 258.242 248.291 258.011 247.891C257.78 247.491 257.497 247.187 257.162 246.978C256.832 246.767 256.48 246.662 256.106 246.663C255.733 246.664 255.367 246.768 255.008 246.975C254.65 247.182 254.377 247.447 254.189 247.77C254.001 248.093 253.914 248.452 253.927 248.846C253.945 249.237 254.07 249.633 254.301 250.033C254.532 250.433 254.814 250.742 255.146 250.958C255.482 251.167 255.837 251.273 256.214 251.277C256.588 251.276 256.954 251.172 257.312 250.965ZM259.829 247.6C259.574 247.158 259.439 246.72 259.424 246.285C259.411 245.843 259.51 245.439 259.722 245.074C259.934 244.709 260.245 244.408 260.656 244.171C261.175 243.871 261.676 243.748 262.158 243.803C262.642 243.849 263.075 244.066 263.459 244.455L262.5 245.008C262.299 244.84 262.079 244.746 261.838 244.725C261.598 244.705 261.348 244.77 261.088 244.92C260.724 245.13 260.508 245.427 260.44 245.813C260.374 246.191 260.474 246.611 260.741 247.073C261.008 247.536 261.323 247.835 261.686 247.972C262.055 248.106 262.421 248.068 262.784 247.858C263.299 247.561 263.509 247.138 263.414 246.59L264.372 246.037C264.5 246.545 264.467 247.028 264.274 247.486C264.078 247.939 263.725 248.312 263.216 248.606C262.806 248.843 262.39 248.962 261.968 248.963C261.543 248.959 261.143 248.844 260.769 248.616C260.398 248.38 260.084 248.041 259.829 247.6ZM265.017 242.714L266.389 245.091C266.482 245.252 266.586 245.348 266.701 245.379C266.818 245.401 266.967 245.36 267.149 245.255L267.695 244.94L268.122 245.68L267.421 246.085C267.02 246.316 266.66 246.4 266.339 246.336C266.018 246.272 265.736 246.029 265.493 245.608L264.12 243.231L263.614 243.524L263.195 242.799L263.702 242.506L263.085 241.438L263.982 240.921L264.598 241.989L265.643 241.386L266.061 242.111L265.017 242.714Z" fill="white"/>
<path d="M287.045 252.406L286.157 252.919L281.148 250.417L283.483 254.463L282.595 254.976L279.463 249.551L280.351 249.038L285.356 251.532L283.025 247.494L283.913 246.981L287.045 252.406ZM290.115 250.727C289.71 250.961 289.291 251.082 288.859 251.089C288.423 251.091 288.016 250.979 287.637 250.755C287.255 250.525 286.936 250.189 286.681 249.748C286.429 249.311 286.302 248.869 286.299 248.42C286.297 247.971 286.409 247.56 286.637 247.186C286.864 246.812 287.183 246.507 287.594 246.27C288.004 246.033 288.428 245.909 288.866 245.899C289.303 245.889 289.716 245.997 290.103 246.224C290.49 246.451 290.81 246.782 291.062 247.219C291.314 247.655 291.439 248.099 291.436 248.551C291.434 249.003 291.315 249.421 291.08 249.806C290.847 250.183 290.526 250.49 290.115 250.727ZM289.67 249.955C289.898 249.823 290.08 249.646 290.214 249.423C290.354 249.197 290.423 248.938 290.422 248.648C290.421 248.358 290.33 248.057 290.15 247.745C289.97 247.433 289.759 247.205 289.516 247.061C289.271 246.912 289.018 246.84 288.757 246.845C288.497 246.85 288.252 246.918 288.024 247.05C287.795 247.182 287.613 247.36 287.479 247.583C287.35 247.803 287.291 248.055 287.303 248.339C287.311 248.618 287.406 248.914 287.586 249.226C287.853 249.688 288.177 249.979 288.557 250.099C288.94 250.21 289.311 250.162 289.67 249.955ZM294.383 247.109L293.579 242.908L294.522 242.363L295.365 247.603L294.305 248.215L290.196 244.861L291.147 244.312L294.383 247.109Z" fill="white"/>
<path d="M310.305 247.716C310.882 247.383 311.45 247.204 312.01 247.178C312.573 247.145 313.091 247.268 313.565 247.549C314.041 247.821 314.438 248.233 314.756 248.784C315.074 249.335 315.23 249.882 315.225 250.425C315.226 250.965 315.07 251.47 314.76 251.941C314.452 252.403 314.009 252.8 313.432 253.133L311.663 254.155L308.536 248.738L310.305 247.716ZM313.014 252.408C313.648 252.042 314.035 251.59 314.174 251.052C314.314 250.515 314.204 249.934 313.844 249.31C313.481 248.681 313.029 248.288 312.487 248.13C311.945 247.971 311.357 248.075 310.723 248.441L309.843 248.95L312.133 252.917L313.014 252.408ZM319.825 246.439C319.918 246.6 319.991 246.752 320.045 246.894L316.764 248.788C316.988 249.116 317.274 249.318 317.623 249.394C317.972 249.47 318.312 249.412 318.645 249.22C319.123 248.944 319.345 248.549 319.312 248.035L320.27 247.481C320.368 247.951 320.319 248.412 320.123 248.865C319.93 249.309 319.581 249.677 319.077 249.968C318.666 250.205 318.245 250.327 317.812 250.334C317.382 250.333 316.978 250.22 316.599 249.996C316.222 249.763 315.906 249.426 315.651 248.984C315.396 248.542 315.261 248.104 315.245 247.67C315.232 247.227 315.334 246.822 315.551 246.454C315.774 246.083 316.095 245.776 316.516 245.533C316.922 245.299 317.334 245.179 317.753 245.173C318.172 245.166 318.562 245.273 318.925 245.493C319.285 245.708 319.585 246.024 319.825 246.439ZM318.735 246.694C318.541 246.37 318.272 246.175 317.93 246.109C317.587 246.044 317.247 246.109 316.909 246.304C316.603 246.481 316.397 246.731 316.293 247.054C316.186 247.373 316.207 247.71 316.358 248.067L318.735 246.694ZM320.461 246.207C320.206 245.765 320.071 245.327 320.056 244.892C320.043 244.45 320.142 244.046 320.354 243.681C320.566 243.316 320.877 243.015 321.288 242.778C321.807 242.478 322.308 242.355 322.79 242.41C323.274 242.456 323.708 242.673 324.091 243.062L323.132 243.615C322.931 243.447 322.711 243.353 322.47 243.332C322.23 243.312 321.98 243.376 321.72 243.526C321.356 243.736 321.14 244.034 321.072 244.42C321.006 244.798 321.106 245.218 321.373 245.68C321.64 246.143 321.955 246.442 322.318 246.579C322.687 246.713 323.053 246.675 323.416 246.465C323.931 246.168 324.141 245.745 324.046 245.197L325.005 244.644C325.132 245.152 325.099 245.635 324.906 246.093C324.71 246.546 324.358 246.919 323.848 247.213C323.438 247.45 323.022 247.569 322.6 247.57C322.175 247.566 321.775 247.45 321.401 247.223C321.03 246.987 320.716 246.648 320.461 246.207Z" fill="white"/>
</g>
<path opacity="0.5" d="M14.3817 42.0015C14.9577 41.5035 15.4107 41.0955 15.7407 40.7775C16.0767 40.4535 16.3557 40.1175 16.5777 39.7695C16.7997 39.4215 16.9107 39.0735 16.9107 38.7255C16.9107 38.3655 16.8237 38.0835 16.6497 37.8795C16.4817 37.6755 16.2147 37.5735 15.8487 37.5735C15.4947 37.5735 15.2187 37.6875 15.0207 37.9155C14.8287 38.1375 14.7267 38.4375 14.7147 38.8155H13.7247C13.7427 38.1315 13.9467 37.6095 14.3367 37.2495C14.7327 36.8835 15.2337 36.7005 15.8397 36.7005C16.4937 36.7005 17.0037 36.8805 17.3697 37.2405C17.7417 37.6005 17.9277 38.0805 17.9277 38.6805C17.9277 39.1125 17.8167 39.5295 17.5947 39.9315C17.3787 40.3275 17.1177 40.6845 16.8117 41.0025C16.5117 41.3145 16.1277 41.6775 15.6597 42.0915L15.2547 42.4515H18.1077V43.3065H13.7337V42.5595L14.3817 42.0015ZM25.5769 37.7175H22.5619V39.5085C22.6879 39.3405 22.8739 39.1995 23.1199 39.0855C23.3719 38.9715 23.6389 38.9145 23.9209 38.9145C24.4249 38.9145 24.8329 39.0225 25.1449 39.2385C25.4629 39.4545 25.6879 39.7275 25.8199 40.0575C25.9579 40.3875 26.0269 40.7355 26.0269 41.1015C26.0269 41.5455 25.9399 41.9415 25.7659 42.2895C25.5979 42.6315 25.3429 42.9015 25.0009 43.0995C24.6649 43.2975 24.2509 43.3965 23.7589 43.3965C23.1049 43.3965 22.5799 43.2345 22.1839 42.9105C21.7879 42.5865 21.5509 42.1575 21.4729 41.6235H22.4719C22.5379 41.9055 22.6849 42.1305 22.9129 42.2985C23.1409 42.4605 23.4259 42.5415 23.7679 42.5415C24.1939 42.5415 24.5119 42.4125 24.7219 42.1545C24.9379 41.8965 25.0459 41.5545 25.0459 41.1285C25.0459 40.6965 24.9379 40.3665 24.7219 40.1385C24.5059 39.9045 24.1879 39.7875 23.7679 39.7875C23.4739 39.7875 23.2249 39.8625 23.0209 40.0125C22.8229 40.1565 22.6789 40.3545 22.5889 40.6065H21.6169V36.8175H25.5769V37.7175ZM27.0949 40.0305C27.0949 38.9925 27.2689 38.1825 27.6169 37.6005C27.9709 37.0125 28.5769 36.7185 29.4349 36.7185C30.2929 36.7185 30.8959 37.0125 31.2439 37.6005C31.5979 38.1825 31.7749 38.9925 31.7749 40.0305C31.7749 41.0805 31.5979 41.9025 31.2439 42.4965C30.8959 43.0845 30.2929 43.3785 29.4349 43.3785C28.5769 43.3785 27.9709 43.0845 27.6169 42.4965C27.2689 41.9025 27.0949 41.0805 27.0949 40.0305ZM30.7669 40.0305C30.7669 39.5445 30.7339 39.1335 30.6679 38.7975C30.6079 38.4615 30.4819 38.1885 30.2899 37.9785C30.0979 37.7625 29.8129 37.6545 29.4349 37.6545C29.0569 37.6545 28.7719 37.7625 28.5799 37.9785C28.3879 38.1885 28.2589 38.4615 28.1929 38.7975C28.1329 39.1335 28.1029 39.5445 28.1029 40.0305C28.1029 40.5345 28.1329 40.9575 28.1929 41.2995C28.2529 41.6415 28.3789 41.9175 28.5709 42.1275C28.7689 42.3375 29.0569 42.4425 29.4349 42.4425C29.8129 42.4425 30.0979 42.3375 30.2899 42.1275C30.4879 41.9175 30.6169 41.6415 30.6769 41.2995C30.7369 40.9575 30.7669 40.5345 30.7669 40.0305ZM32.8606 40.0305C32.8606 38.9925 33.0346 38.1825 33.3826 37.6005C33.7366 37.0125 34.3426 36.7185 35.2006 36.7185C36.0586 36.7185 36.6616 37.0125 37.0096 37.6005C37.3636 38.1825 37.5406 38.9925 37.5406 40.0305C37.5406 41.0805 37.3636 41.9025 37.0096 42.4965C36.6616 43.0845 36.0586 43.3785 35.2006 43.3785C34.3426 43.3785 33.7366 43.0845 33.3826 42.4965C33.0346 41.9025 32.8606 41.0805 32.8606 40.0305ZM36.5326 40.0305C36.5326 39.5445 36.4996 39.1335 36.4336 38.7975C36.3736 38.4615 36.2476 38.1885 36.0556 37.9785C35.8636 37.7625 35.5786 37.6545 35.2006 37.6545C34.8226 37.6545 34.5376 37.7625 34.3456 37.9785C34.1536 38.1885 34.0246 38.4615 33.9586 38.7975C33.8986 39.1335 33.8686 39.5445 33.8686 40.0305C33.8686 40.5345 33.8986 40.9575 33.9586 41.2995C34.0186 41.6415 34.1446 41.9175 34.3366 42.1275C34.5346 42.3375 34.8226 42.4425 35.2006 42.4425C35.5786 42.4425 35.8636 42.3375 36.0556 42.1275C36.2536 41.9175 36.3826 41.6415 36.4426 41.2995C36.5026 40.9575 36.5326 40.5345 36.5326 40.0305ZM40.9641 40.0305C40.9641 38.9925 41.1381 38.1825 41.4861 37.6005C41.8401 37.0125 42.4461 36.7185 43.3041 36.7185C44.1621 36.7185 44.7651 37.0125 45.1131 37.6005C45.4671 38.1825 45.6441 38.9925 45.6441 40.0305C45.6441 41.0805 45.4671 41.9025 45.1131 42.4965C44.7651 43.0845 44.1621 43.3785 43.3041 43.3785C42.4461 43.3785 41.8401 43.0845 41.4861 42.4965C41.1381 41.9025 40.9641 41.0805 40.9641 40.0305ZM44.6361 40.0305C44.6361 39.5445 44.6031 39.1335 44.5371 38.7975C44.4771 38.4615 44.3511 38.1885 44.1591 37.9785C43.9671 37.7625 43.6821 37.6545 43.3041 37.6545C42.9261 37.6545 42.6411 37.7625 42.4491 37.9785C42.2571 38.1885 42.1281 38.4615 42.0621 38.7975C42.0021 39.1335 41.9721 39.5445 41.9721 40.0305C41.9721 40.5345 42.0021 40.9575 42.0621 41.2995C42.1221 41.6415 42.2481 41.9175 42.4401 42.1275C42.6381 42.3375 42.9261 42.4425 43.3041 42.4425C43.6821 42.4425 43.9671 42.3375 44.1591 42.1275C44.3571 41.9175 44.4861 41.6415 44.5461 41.2995C44.6061 40.9575 44.6361 40.5345 44.6361 40.0305ZM46.7297 40.0305C46.7297 38.9925 46.9037 38.1825 47.2517 37.6005C47.6057 37.0125 48.2117 36.7185 49.0697 36.7185C49.9277 36.7185 50.5307 37.0125 50.8787 37.6005C51.2327 38.1825 51.4097 38.9925 51.4097 40.0305C51.4097 41.0805 51.2327 41.9025 50.8787 42.4965C50.5307 43.0845 49.9277 43.3785 49.0697 43.3785C48.2117 43.3785 47.6057 43.0845 47.2517 42.4965C46.9037 41.9025 46.7297 41.0805 46.7297 40.0305ZM50.4017 40.0305C50.4017 39.5445 50.3687 39.1335 50.3027 38.7975C50.2427 38.4615 50.1167 38.1885 49.9247 37.9785C49.7327 37.7625 49.4477 37.6545 49.0697 37.6545C48.6917 37.6545 48.4067 37.7625 48.2147 37.9785C48.0227 38.1885 47.8937 38.4615 47.8277 38.7975C47.7677 39.1335 47.7377 39.5445 47.7377 40.0305C47.7377 40.5345 47.7677 40.9575 47.8277 41.2995C47.8877 41.6415 48.0137 41.9175 48.2057 42.1275C48.4037 42.3375 48.6917 42.4425 49.0697 42.4425C49.4477 42.4425 49.7327 42.3375 49.9247 42.1275C50.1227 41.9175 50.2517 41.6415 50.3117 41.2995C50.3717 40.9575 50.4017 40.5345 50.4017 40.0305ZM52.4953 40.0305C52.4953 38.9925 52.6693 38.1825 53.0173 37.6005C53.3713 37.0125 53.9773 36.7185 54.8353 36.7185C55.6933 36.7185 56.2963 37.0125 56.6443 37.6005C56.9983 38.1825 57.1753 38.9925 57.1753 40.0305C57.1753 41.0805 56.9983 41.9025 56.6443 42.4965C56.2963 43.0845 55.6933 43.3785 54.8353 43.3785C53.9773 43.3785 53.3713 43.0845 53.0173 42.4965C52.6693 41.9025 52.4953 41.0805 52.4953 40.0305ZM56.1673 40.0305C56.1673 39.5445 56.1343 39.1335 56.0683 38.7975C56.0083 38.4615 55.8823 38.1885 55.6903 37.9785C55.4983 37.7625 55.2133 37.6545 54.8353 37.6545C54.4573 37.6545 54.1723 37.7625 53.9803 37.9785C53.7883 38.1885 53.6593 38.4615 53.5933 38.7975C53.5333 39.1335 53.5033 39.5445 53.5033 40.0305C53.5033 40.5345 53.5333 40.9575 53.5933 41.2995C53.6533 41.6415 53.7793 41.9175 53.9713 42.1275C54.1693 42.3375 54.4573 42.4425 54.8353 42.4425C55.2133 42.4425 55.4983 42.3375 55.6903 42.1275C55.8883 41.9175 56.0173 41.6415 56.0773 41.2995C56.1373 40.9575 56.1673 40.5345 56.1673 40.0305Z" fill="white"/>
<rect opacity="0.4" x="324" y="40" width="1.00001" height="258" transform="rotate(90 324 40)" fill="white"/>
<path opacity="0.5" d="M14.3641 66.2241C14.9401 65.7261 15.3931 65.3181 15.7231 65.0001C16.0591 64.6761 16.3381 64.3401 16.5601 63.9921C16.7821 63.6441 16.8931 63.2961 16.8931 62.9481C16.8931 62.5881 16.8061 62.3061 16.6321 62.1021C16.4641 61.8981 16.1971 61.7961 15.8311 61.7961C15.4771 61.7961 15.2011 61.9101 15.0031 62.1381C14.8111 62.3601 14.7091 62.6601 14.6971 63.0381H13.7071C13.7251 62.3541 13.9291 61.8321 14.3191 61.4721C14.7151 61.1061 15.2161 60.9231 15.8221 60.9231C16.4761 60.9231 16.9861 61.1031 17.3521 61.4631C17.7241 61.8231 17.9101 62.3031 17.9101 62.9031C17.9101 63.3351 17.7991 63.7521 17.5771 64.1541C17.3611 64.5501 17.1001 64.9071 16.7941 65.2251C16.4941 65.5371 16.1101 65.9001 15.6421 66.3141L15.2371 66.6741H18.0901V67.5291H13.7161V66.7821L14.3641 66.2241ZM21.3293 64.2531C21.3293 63.2151 21.5033 62.4051 21.8513 61.8231C22.2053 61.2351 22.8113 60.9411 23.6693 60.9411C24.5273 60.9411 25.1303 61.2351 25.4783 61.8231C25.8323 62.4051 26.0093 63.2151 26.0093 64.2531C26.0093 65.3031 25.8323 66.1251 25.4783 66.7191C25.1303 67.3071 24.5273 67.6011 23.6693 67.6011C22.8113 67.6011 22.2053 67.3071 21.8513 66.7191C21.5033 66.1251 21.3293 65.3031 21.3293 64.2531ZM25.0013 64.2531C25.0013 63.7671 24.9683 63.3561 24.9023 63.0201C24.8423 62.6841 24.7163 62.4111 24.5243 62.2011C24.3323 61.9851 24.0473 61.8771 23.6693 61.8771C23.2913 61.8771 23.0063 61.9851 22.8143 62.2011C22.6223 62.4111 22.4933 62.6841 22.4273 63.0201C22.3673 63.3561 22.3373 63.7671 22.3373 64.2531C22.3373 64.7571 22.3673 65.1801 22.4273 65.5221C22.4873 65.8641 22.6133 66.1401 22.8053 66.3501C23.0033 66.5601 23.2913 66.6651 23.6693 66.6651C24.0473 66.6651 24.3323 66.5601 24.5243 66.3501C24.7223 66.1401 24.8513 65.8641 24.9113 65.5221C24.9713 65.1801 25.0013 64.7571 25.0013 64.2531ZM27.0949 64.2531C27.0949 63.2151 27.2689 62.4051 27.6169 61.8231C27.9709 61.2351 28.5769 60.9411 29.4349 60.9411C30.2929 60.9411 30.8959 61.2351 31.2439 61.8231C31.5979 62.4051 31.7749 63.2151 31.7749 64.2531C31.7749 65.3031 31.5979 66.1251 31.2439 66.7191C30.8959 67.3071 30.2929 67.6011 29.4349 67.6011C28.5769 67.6011 27.9709 67.3071 27.6169 66.7191C27.2689 66.1251 27.0949 65.3031 27.0949 64.2531ZM30.7669 64.2531C30.7669 63.7671 30.7339 63.3561 30.6679 63.0201C30.6079 62.6841 30.4819 62.4111 30.2899 62.2011C30.0979 61.9851 29.8129 61.8771 29.4349 61.8771C29.0569 61.8771 28.7719 61.9851 28.5799 62.2011C28.3879 62.4111 28.2589 62.6841 28.1929 63.0201C28.1329 63.3561 28.1029 63.7671 28.1029 64.2531C28.1029 64.7571 28.1329 65.1801 28.1929 65.5221C28.2529 65.8641 28.3789 66.1401 28.5709 66.3501C28.7689 66.5601 29.0569 66.6651 29.4349 66.6651C29.8129 66.6651 30.0979 66.5601 30.2899 66.3501C30.4879 66.1401 30.6169 65.8641 30.6769 65.5221C30.7369 65.1801 30.7669 64.7571 30.7669 64.2531ZM32.8606 64.2531C32.8606 63.2151 33.0346 62.4051 33.3826 61.8231C33.7366 61.2351 34.3426 60.9411 35.2006 60.9411C36.0586 60.9411 36.6616 61.2351 37.0096 61.8231C37.3636 62.4051 37.5406 63.2151 37.5406 64.2531C37.5406 65.3031 37.3636 66.1251 37.0096 66.7191C36.6616 67.3071 36.0586 67.6011 35.2006 67.6011C34.3426 67.6011 33.7366 67.3071 33.3826 66.7191C33.0346 66.1251 32.8606 65.3031 32.8606 64.2531ZM36.5326 64.2531C36.5326 63.7671 36.4996 63.3561 36.4336 63.0201C36.3736 62.6841 36.2476 62.4111 36.0556 62.2011C35.8636 61.9851 35.5786 61.8771 35.2006 61.8771C34.8226 61.8771 34.5376 61.9851 34.3456 62.2011C34.1536 62.4111 34.0246 62.6841 33.9586 63.0201C33.8986 63.3561 33.8686 63.7671 33.8686 64.2531C33.8686 64.7571 33.8986 65.1801 33.9586 65.5221C34.0186 65.8641 34.1446 66.1401 34.3366 66.3501C34.5346 66.5601 34.8226 66.6651 35.2006 66.6651C35.5786 66.6651 35.8636 66.5601 36.0556 66.3501C36.2536 66.1401 36.3826 65.8641 36.4426 65.5221C36.5026 65.1801 36.5326 64.7571 36.5326 64.2531ZM40.9641 64.2531C40.9641 63.2151 41.1381 62.4051 41.4861 61.8231C41.8401 61.2351 42.4461 60.9411 43.3041 60.9411C44.1621 60.9411 44.7651 61.2351 45.1131 61.8231C45.4671 62.4051 45.6441 63.2151 45.6441 64.2531C45.6441 65.3031 45.4671 66.1251 45.1131 66.7191C44.7651 67.3071 44.1621 67.6011 43.3041 67.6011C42.4461 67.6011 41.8401 67.3071 41.4861 66.7191C41.1381 66.1251 40.9641 65.3031 40.9641 64.2531ZM44.6361 64.2531C44.6361 63.7671 44.6031 63.3561 44.5371 63.0201C44.4771 62.6841 44.3511 62.4111 44.1591 62.2011C43.9671 61.9851 43.6821 61.8771 43.3041 61.8771C42.9261 61.8771 42.6411 61.9851 42.4491 62.2011C42.2571 62.4111 42.1281 62.6841 42.0621 63.0201C42.0021 63.3561 41.9721 63.7671 41.9721 64.2531C41.9721 64.7571 42.0021 65.1801 42.0621 65.5221C42.1221 65.8641 42.2481 66.1401 42.4401 66.3501C42.6381 66.5601 42.9261 66.6651 43.3041 66.6651C43.6821 66.6651 43.9671 66.5601 44.1591 66.3501C44.3571 66.1401 44.4861 65.8641 44.5461 65.5221C44.6061 65.1801 44.6361 64.7571 44.6361 64.2531ZM46.7297 64.2531C46.7297 63.2151 46.9037 62.4051 47.2517 61.8231C47.6057 61.2351 48.2117 60.9411 49.0697 60.9411C49.9277 60.9411 50.5307 61.2351 50.8787 61.8231C51.2327 62.4051 51.4097 63.2151 51.4097 64.2531C51.4097 65.3031 51.2327 66.1251 50.8787 66.7191C50.5307 67.3071 49.9277 67.6011 49.0697 67.6011C48.2117 67.6011 47.6057 67.3071 47.2517 66.7191C46.9037 66.1251 46.7297 65.3031 46.7297 64.2531ZM50.4017 64.2531C50.4017 63.7671 50.3687 63.3561 50.3027 63.0201C50.2427 62.6841 50.1167 62.4111 49.9247 62.2011C49.7327 61.9851 49.4477 61.8771 49.0697 61.8771C48.6917 61.8771 48.4067 61.9851 48.2147 62.2011C48.0227 62.4111 47.8937 62.6841 47.8277 63.0201C47.7677 63.3561 47.7377 63.7671 47.7377 64.2531C47.7377 64.7571 47.7677 65.1801 47.8277 65.5221C47.8877 65.8641 48.0137 66.1401 48.2057 66.3501C48.4037 66.5601 48.6917 66.6651 49.0697 66.6651C49.4477 66.6651 49.7327 66.5601 49.9247 66.3501C50.1227 66.1401 50.2517 65.8641 50.3117 65.5221C50.3717 65.1801 50.4017 64.7571 50.4017 64.2531ZM52.4953 64.2531C52.4953 63.2151 52.6693 62.4051 53.0173 61.8231C53.3713 61.2351 53.9773 60.9411 54.8353 60.9411C55.6933 60.9411 56.2963 61.2351 56.6443 61.8231C56.9983 62.4051 57.1753 63.2151 57.1753 64.2531C57.1753 65.3031 56.9983 66.1251 56.6443 66.7191C56.2963 67.3071 55.6933 67.6011 54.8353 67.6011C53.9773 67.6011 53.3713 67.3071 53.0173 66.7191C52.6693 66.1251 52.4953 65.3031 52.4953 64.2531ZM56.1673 64.2531C56.1673 63.7671 56.1343 63.3561 56.0683 63.0201C56.0083 62.6841 55.8823 62.4111 55.6903 62.2011C55.4983 61.9851 55.2133 61.8771 54.8353 61.8771C54.4573 61.8771 54.1723 61.9851 53.9803 62.2011C53.7883 62.4111 53.6593 62.6841 53.5933 63.0201C53.5333 63.3561 53.5033 63.7671 53.5033 64.2531C53.5033 64.7571 53.5333 65.1801 53.5933 65.5221C53.6533 65.8641 53.7793 66.1401 53.9713 66.3501C54.1693 66.5601 54.4573 66.6651 54.8353 66.6651C55.2133 66.6651 55.4983 66.5601 55.6903 66.3501C55.8883 66.1401 56.0173 65.8641 56.0773 65.5221C56.1373 65.1801 56.1673 64.7571 56.1673 64.2531Z" fill="white"/>
<rect opacity="0.4" x="324" y="64" width="1.00001" height="258" transform="rotate(90 324 64)" fill="white"/>
<path opacity="0.5" d="M15.2727 86.2168V85.2808H17.1447V91.8418H16.1097V86.2168H15.2727ZM20.8921 88.4758C20.8921 87.4378 21.0661 86.6278 21.4141 86.0458C21.7681 85.4578 22.3741 85.1638 23.2321 85.1638C24.0901 85.1638 24.6931 85.4578 25.0411 86.0458C25.3951 86.6278 25.5721 87.4378 25.5721 88.4758C25.5721 89.5258 25.3951 90.3478 25.0411 90.9418C24.6931 91.5298 24.0901 91.8238 23.2321 91.8238C22.3741 91.8238 21.7681 91.5298 21.4141 90.9418C21.0661 90.3478 20.8921 89.5258 20.8921 88.4758ZM24.5641 88.4758C24.5641 87.9898 24.5311 87.5788 24.4651 87.2428C24.4051 86.9068 24.2791 86.6338 24.0871 86.4238C23.8951 86.2078 23.6101 86.0998 23.2321 86.0998C22.8541 86.0998 22.5691 86.2078 22.3771 86.4238C22.1851 86.6338 22.0561 86.9068 21.9901 87.2428C21.9301 87.5788 21.9001 87.9898 21.9001 88.4758C21.9001 88.9798 21.9301 89.4028 21.9901 89.7448C22.0501 90.0868 22.1761 90.3628 22.3681 90.5728C22.5661 90.7828 22.8541 90.8878 23.2321 90.8878C23.6101 90.8878 23.8951 90.7828 24.0871 90.5728C24.2851 90.3628 24.4141 90.0868 24.4741 89.7448C24.5341 89.4028 24.5641 88.9798 24.5641 88.4758ZM26.6577 88.4758C26.6577 87.4378 26.8317 86.6278 27.1797 86.0458C27.5337 85.4578 28.1397 85.1638 28.9977 85.1638C29.8557 85.1638 30.4587 85.4578 30.8067 86.0458C31.1607 86.6278 31.3377 87.4378 31.3377 88.4758C31.3377 89.5258 31.1607 90.3478 30.8067 90.9418C30.4587 91.5298 29.8557 91.8238 28.9977 91.8238C28.1397 91.8238 27.5337 91.5298 27.1797 90.9418C26.8317 90.3478 26.6577 89.5258 26.6577 88.4758ZM30.3297 88.4758C30.3297 87.9898 30.2967 87.5788 30.2307 87.2428C30.1707 86.9068 30.0447 86.6338 29.8527 86.4238C29.6607 86.2078 29.3757 86.0998 28.9977 86.0998C28.6197 86.0998 28.3347 86.2078 28.1427 86.4238C27.9507 86.6338 27.8217 86.9068 27.7557 87.2428C27.6957 87.5788 27.6657 87.9898 27.6657 88.4758C27.6657 88.9798 27.6957 89.4028 27.7557 89.7448C27.8157 90.0868 27.9417 90.3628 28.1337 90.5728C28.3317 90.7828 28.6197 90.8878 28.9977 90.8878C29.3757 90.8878 29.6607 90.7828 29.8527 90.5728C30.0507 90.3628 30.1797 90.0868 30.2397 89.7448C30.2997 89.4028 30.3297 88.9798 30.3297 88.4758ZM32.4233 88.4758C32.4233 87.4378 32.5973 86.6278 32.9453 86.0458C33.2993 85.4578 33.9053 85.1638 34.7633 85.1638C35.6213 85.1638 36.2243 85.4578 36.5723 86.0458C36.9263 86.6278 37.1033 87.4378 37.1033 88.4758C37.1033 89.5258 36.9263 90.3478 36.5723 90.9418C36.2243 91.5298 35.6213 91.8238 34.7633 91.8238C33.9053 91.8238 33.2993 91.5298 32.9453 90.9418C32.5973 90.3478 32.4233 89.5258 32.4233 88.4758ZM36.0953 88.4758C36.0953 87.9898 36.0623 87.5788 35.9963 87.2428C35.9363 86.9068 35.8103 86.6338 35.6183 86.4238C35.4263 86.2078 35.1413 86.0998 34.7633 86.0998C34.3853 86.0998 34.1003 86.2078 33.9083 86.4238C33.7163 86.6338 33.5873 86.9068 33.5213 87.2428C33.4613 87.5788 33.4313 87.9898 33.4313 88.4758C33.4313 88.9798 33.4613 89.4028 33.5213 89.7448C33.5813 90.0868 33.7073 90.3628 33.8993 90.5728C34.0973 90.7828 34.3853 90.8878 34.7633 90.8878C35.1413 90.8878 35.4263 90.7828 35.6183 90.5728C35.8163 90.3628 35.9453 90.0868 36.0053 89.7448C36.0653 89.4028 36.0953 88.9798 36.0953 88.4758ZM40.5268 88.4758C40.5268 87.4378 40.7008 86.6278 41.0488 86.0458C41.4028 85.4578 42.0088 85.1638 42.8668 85.1638C43.7248 85.1638 44.3278 85.4578 44.6758 86.0458C45.0298 86.6278 45.2068 87.4378 45.2068 88.4758C45.2068 89.5258 45.0298 90.3478 44.6758 90.9418C44.3278 91.5298 43.7248 91.8238 42.8668 91.8238C42.0088 91.8238 41.4028 91.5298 41.0488 90.9418C40.7008 90.3478 40.5268 89.5258 40.5268 88.4758ZM44.1988 88.4758C44.1988 87.9898 44.1658 87.5788 44.0998 87.2428C44.0398 86.9068 43.9138 86.6338 43.7218 86.4238C43.5298 86.2078 43.2448 86.0998 42.8668 86.0998C42.4888 86.0998 42.2038 86.2078 42.0118 86.4238C41.8198 86.6338 41.6908 86.9068 41.6248 87.2428C41.5648 87.5788 41.5348 87.9898 41.5348 88.4758C41.5348 88.9798 41.5648 89.4028 41.6248 89.7448C41.6848 90.0868 41.8108 90.3628 42.0028 90.5728C42.2008 90.7828 42.4888 90.8878 42.8668 90.8878C43.2448 90.8878 43.5298 90.7828 43.7218 90.5728C43.9198 90.3628 44.0488 90.0868 44.1088 89.7448C44.1688 89.4028 44.1988 88.9798 44.1988 88.4758ZM46.2924 88.4758C46.2924 87.4378 46.4664 86.6278 46.8144 86.0458C47.1684 85.4578 47.7744 85.1638 48.6324 85.1638C49.4904 85.1638 50.0934 85.4578 50.4414 86.0458C50.7954 86.6278 50.9724 87.4378 50.9724 88.4758C50.9724 89.5258 50.7954 90.3478 50.4414 90.9418C50.0934 91.5298 49.4904 91.8238 48.6324 91.8238C47.7744 91.8238 47.1684 91.5298 46.8144 90.9418C46.4664 90.3478 46.2924 89.5258 46.2924 88.4758ZM49.9644 88.4758C49.9644 87.9898 49.9314 87.5788 49.8654 87.2428C49.8054 86.9068 49.6794 86.6338 49.4874 86.4238C49.2954 86.2078 49.0104 86.0998 48.6324 86.0998C48.2544 86.0998 47.9694 86.2078 47.7774 86.4238C47.5854 86.6338 47.4564 86.9068 47.3904 87.2428C47.3304 87.5788 47.3004 87.9898 47.3004 88.4758C47.3004 88.9798 47.3304 89.4028 47.3904 89.7448C47.4504 90.0868 47.5764 90.3628 47.7684 90.5728C47.9664 90.7828 48.2544 90.8878 48.6324 90.8878C49.0104 90.8878 49.2954 90.7828 49.4874 90.5728C49.6854 90.3628 49.8144 90.0868 49.8744 89.7448C49.9344 89.4028 49.9644 88.9798 49.9644 88.4758ZM52.0581 88.4758C52.0581 87.4378 52.2321 86.6278 52.5801 86.0458C52.9341 85.4578 53.5401 85.1638 54.3981 85.1638C55.2561 85.1638 55.8591 85.4578 56.2071 86.0458C56.5611 86.6278 56.7381 87.4378 56.7381 88.4758C56.7381 89.5258 56.5611 90.3478 56.2071 90.9418C55.8591 91.5298 55.2561 91.8238 54.3981 91.8238C53.5401 91.8238 52.9341 91.5298 52.5801 90.9418C52.2321 90.3478 52.0581 89.5258 52.0581 88.4758ZM55.7301 88.4758C55.7301 87.9898 55.6971 87.5788 55.6311 87.2428C55.5711 86.9068 55.4451 86.6338 55.2531 86.4238C55.0611 86.2078 54.7761 86.0998 54.3981 86.0998C54.0201 86.0998 53.7351 86.2078 53.5431 86.4238C53.3511 86.6338 53.2221 86.9068 53.1561 87.2428C53.0961 87.5788 53.0661 87.9898 53.0661 88.4758C53.0661 88.9798 53.0961 89.4028 53.1561 89.7448C53.2161 90.0868 53.3421 90.3628 53.5341 90.5728C53.7321 90.7828 54.0201 90.8878 54.3981 90.8878C54.7761 90.8878 55.0611 90.7828 55.2531 90.5728C55.4511 90.3628 55.5801 90.0868 55.6401 89.7448C55.7001 89.4028 55.7301 88.9798 55.7301 88.4758Z" fill="white"/>
<rect opacity="0.4" x="324" y="89" width="1.00001" height="258" transform="rotate(90 324 89)" fill="white"/>
<path opacity="0.5" d="M25.2651 110.387H22.2501V112.178C22.3761 112.01 22.5621 111.869 22.8081 111.755C23.0601 111.641 23.3271 111.584 23.6091 111.584C24.1131 111.584 24.5211 111.692 24.8331 111.908C25.1511 112.124 25.3761 112.397 25.5081 112.727C25.6461 113.057 25.7151 113.405 25.7151 113.771C25.7151 114.215 25.6281 114.611 25.4541 114.959C25.2861 115.301 25.0311 115.571 24.6891 115.769C24.3531 115.967 23.9391 116.066 23.4471 116.066C22.7931 116.066 22.2681 115.904 21.8721 115.58C21.4761 115.256 21.2391 114.827 21.1611 114.293H22.1601C22.2261 114.575 22.3731 114.8 22.6011 114.968C22.8291 115.13 23.1141 115.211 23.4561 115.211C23.8821 115.211 24.2001 115.082 24.4101 114.824C24.6261 114.566 24.7341 114.224 24.7341 113.798C24.7341 113.366 24.6261 113.036 24.4101 112.808C24.1941 112.574 23.8761 112.457 23.4561 112.457C23.1621 112.457 22.9131 112.532 22.7091 112.682C22.5111 112.826 22.3671 113.024 22.2771 113.276H21.3051V109.487H25.2651V110.387ZM26.7832 112.7C26.7832 111.662 26.9572 110.852 27.3052 110.27C27.6592 109.682 28.2652 109.388 29.1232 109.388C29.9812 109.388 30.5842 109.682 30.9322 110.27C31.2862 110.852 31.4632 111.662 31.4632 112.7C31.4632 113.75 31.2862 114.572 30.9322 115.166C30.5842 115.754 29.9812 116.048 29.1232 116.048C28.2652 116.048 27.6592 115.754 27.3052 115.166C26.9572 114.572 26.7832 113.75 26.7832 112.7ZM30.4552 112.7C30.4552 112.214 30.4222 111.803 30.3562 111.467C30.2962 111.131 30.1702 110.858 29.9782 110.648C29.7862 110.432 29.5012 110.324 29.1232 110.324C28.7452 110.324 28.4602 110.432 28.2682 110.648C28.0762 110.858 27.9472 111.131 27.8812 111.467C27.8212 111.803 27.7912 112.214 27.7912 112.7C27.7912 113.204 27.8212 113.627 27.8812 113.969C27.9412 114.311 28.0672 114.587 28.2592 114.797C28.4572 115.007 28.7452 115.112 29.1232 115.112C29.5012 115.112 29.7862 115.007 29.9782 114.797C30.1762 114.587 30.3052 114.311 30.3652 113.969C30.4252 113.627 30.4552 113.204 30.4552 112.7ZM32.5488 112.7C32.5488 111.662 32.7228 110.852 33.0708 110.27C33.4248 109.682 34.0308 109.388 34.8888 109.388C35.7468 109.388 36.3498 109.682 36.6978 110.27C37.0518 110.852 37.2288 111.662 37.2288 112.7C37.2288 113.75 37.0518 114.572 36.6978 115.166C36.3498 115.754 35.7468 116.048 34.8888 116.048C34.0308 116.048 33.4248 115.754 33.0708 115.166C32.7228 114.572 32.5488 113.75 32.5488 112.7ZM36.2208 112.7C36.2208 112.214 36.1878 111.803 36.1218 111.467C36.0618 111.131 35.9358 110.858 35.7438 110.648C35.5518 110.432 35.2668 110.324 34.8888 110.324C34.5108 110.324 34.2258 110.432 34.0338 110.648C33.8418 110.858 33.7128 111.131 33.6468 111.467C33.5868 111.803 33.5568 112.214 33.5568 112.7C33.5568 113.204 33.5868 113.627 33.6468 113.969C33.7068 114.311 33.8328 114.587 34.0248 114.797C34.2228 115.007 34.5108 115.112 34.8888 115.112C35.2668 115.112 35.5518 115.007 35.7438 114.797C35.9418 114.587 36.0708 114.311 36.1308 113.969C36.1908 113.627 36.2208 113.204 36.2208 112.7ZM40.6523 112.7C40.6523 111.662 40.8263 110.852 41.1743 110.27C41.5283 109.682 42.1343 109.388 42.9923 109.388C43.8503 109.388 44.4533 109.682 44.8013 110.27C45.1553 110.852 45.3323 111.662 45.3323 112.7C45.3323 113.75 45.1553 114.572 44.8013 115.166C44.4533 115.754 43.8503 116.048 42.9923 116.048C42.1343 116.048 41.5283 115.754 41.1743 115.166C40.8263 114.572 40.6523 113.75 40.6523 112.7ZM44.3243 112.7C44.3243 112.214 44.2913 111.803 44.2253 111.467C44.1653 111.131 44.0393 110.858 43.8473 110.648C43.6553 110.432 43.3703 110.324 42.9923 110.324C42.6143 110.324 42.3293 110.432 42.1373 110.648C41.9453 110.858 41.8163 111.131 41.7503 111.467C41.6903 111.803 41.6603 112.214 41.6603 112.7C41.6603 113.204 41.6903 113.627 41.7503 113.969C41.8103 114.311 41.9363 114.587 42.1283 114.797C42.3263 115.007 42.6143 115.112 42.9923 115.112C43.3703 115.112 43.6553 115.007 43.8473 114.797C44.0453 114.587 44.1743 114.311 44.2343 113.969C44.2943 113.627 44.3243 113.204 44.3243 112.7ZM46.4179 112.7C46.4179 111.662 46.5919 110.852 46.9399 110.27C47.2939 109.682 47.8999 109.388 48.7579 109.388C49.6159 109.388 50.2189 109.682 50.5669 110.27C50.9209 110.852 51.0979 111.662 51.0979 112.7C51.0979 113.75 50.9209 114.572 50.5669 115.166C50.2189 115.754 49.6159 116.048 48.7579 116.048C47.8999 116.048 47.2939 115.754 46.9399 115.166C46.5919 114.572 46.4179 113.75 46.4179 112.7ZM50.0899 112.7C50.0899 112.214 50.0569 111.803 49.9909 111.467C49.9309 111.131 49.8049 110.858 49.6129 110.648C49.4209 110.432 49.1359 110.324 48.7579 110.324C48.3799 110.324 48.0949 110.432 47.9029 110.648C47.7109 110.858 47.5819 111.131 47.5159 111.467C47.4559 111.803 47.4259 112.214 47.4259 112.7C47.4259 113.204 47.4559 113.627 47.5159 113.969C47.5759 114.311 47.7019 114.587 47.8939 114.797C48.0919 115.007 48.3799 115.112 48.7579 115.112C49.1359 115.112 49.4209 115.007 49.6129 114.797C49.8109 114.587 49.9399 114.311 49.9999 113.969C50.0599 113.627 50.0899 113.204 50.0899 112.7ZM52.1836 112.7C52.1836 111.662 52.3576 110.852 52.7056 110.27C53.0596 109.682 53.6656 109.388 54.5236 109.388C55.3816 109.388 55.9846 109.682 56.3326 110.27C56.6866 110.852 56.8636 111.662 56.8636 112.7C56.8636 113.75 56.6866 114.572 56.3326 115.166C55.9846 115.754 55.3816 116.048 54.5236 116.048C53.6656 116.048 53.0596 115.754 52.7056 115.166C52.3576 114.572 52.1836 113.75 52.1836 112.7ZM55.8556 112.7C55.8556 112.214 55.8226 111.803 55.7566 111.467C55.6966 111.131 55.5706 110.858 55.3786 110.648C55.1866 110.432 54.9016 110.324 54.5236 110.324C54.1456 110.324 53.8606 110.432 53.6686 110.648C53.4766 110.858 53.3476 111.131 53.2816 111.467C53.2216 111.803 53.1916 112.214 53.1916 112.7C53.1916 113.204 53.2216 113.627 53.2816 113.969C53.3416 114.311 53.4676 114.587 53.6596 114.797C53.8576 115.007 54.1456 115.112 54.5236 115.112C54.9016 115.112 55.1866 115.007 55.3786 114.797C55.5766 114.587 55.7056 114.311 55.7656 113.969C55.8256 113.627 55.8556 113.204 55.8556 112.7Z" fill="white"/>
<rect opacity="0.4" x="324" y="113" width="1.00001" height="258" transform="rotate(90 324 113)" fill="white"/>
<path opacity="0.5" d="M22.5643 138.892C23.1403 138.394 23.5933 137.986 23.9233 137.668C24.2593 137.344 24.5383 137.008 24.7603 136.66C24.9823 136.312 25.0933 135.964 25.0933 135.616C25.0933 135.256 25.0063 134.974 24.8323 134.77C24.6643 134.566 24.3973 134.464 24.0313 134.464C23.6773 134.464 23.4013 134.578 23.2033 134.806C23.0113 135.028 22.9093 135.328 22.8973 135.706H21.9073C21.9253 135.022 22.1293 134.5 22.5193 134.14C22.9153 133.774 23.4163 133.591 24.0223 133.591C24.6763 133.591 25.1863 133.771 25.5523 134.131C25.9243 134.491 26.1103 134.971 26.1103 135.571C26.1103 136.003 25.9993 136.42 25.7773 136.822C25.5613 137.218 25.3003 137.575 24.9943 137.893C24.6943 138.205 24.3103 138.568 23.8423 138.982L23.4373 139.342H26.2903V140.197H21.9163V139.45L22.5643 138.892ZM31.4216 134.608H28.4066V136.399C28.5326 136.231 28.7186 136.09 28.9646 135.976C29.2166 135.862 29.4836 135.805 29.7656 135.805C30.2696 135.805 30.6776 135.913 30.9896 136.129C31.3076 136.345 31.5326 136.618 31.6646 136.948C31.8026 137.278 31.8716 137.626 31.8716 137.992C31.8716 138.436 31.7846 138.832 31.6106 139.18C31.4426 139.522 31.1876 139.792 30.8456 139.99C30.5096 140.188 30.0956 140.287 29.6036 140.287C28.9496 140.287 28.4246 140.125 28.0286 139.801C27.6326 139.477 27.3956 139.048 27.3176 138.514H28.3166C28.3826 138.796 28.5296 139.021 28.7576 139.189C28.9856 139.351 29.2706 139.432 29.6126 139.432C30.0386 139.432 30.3566 139.303 30.5666 139.045C30.7826 138.787 30.8906 138.445 30.8906 138.019C30.8906 137.587 30.7826 137.257 30.5666 137.029C30.3506 136.795 30.0326 136.678 29.6126 136.678C29.3186 136.678 29.0696 136.753 28.8656 136.903C28.6676 137.047 28.5236 137.245 28.4336 137.497H27.4616V133.708H31.4216V134.608ZM32.9397 136.921C32.9397 135.883 33.1137 135.073 33.4617 134.491C33.8157 133.903 34.4217 133.609 35.2797 133.609C36.1377 133.609 36.7407 133.903 37.0887 134.491C37.4427 135.073 37.6197 135.883 37.6197 136.921C37.6197 137.971 37.4427 138.793 37.0887 139.387C36.7407 139.975 36.1377 140.269 35.2797 140.269C34.4217 140.269 33.8157 139.975 33.4617 139.387C33.1137 138.793 32.9397 137.971 32.9397 136.921ZM36.6117 136.921C36.6117 136.435 36.5787 136.024 36.5127 135.688C36.4527 135.352 36.3267 135.079 36.1347 134.869C35.9427 134.653 35.6577 134.545 35.2797 134.545C34.9017 134.545 34.6167 134.653 34.4247 134.869C34.2327 135.079 34.1037 135.352 34.0377 135.688C33.9777 136.024 33.9477 136.435 33.9477 136.921C33.9477 137.425 33.9777 137.848 34.0377 138.19C34.0977 138.532 34.2237 138.808 34.4157 139.018C34.6137 139.228 34.9017 139.333 35.2797 139.333C35.6577 139.333 35.9427 139.228 36.1347 139.018C36.3327 138.808 36.4617 138.532 36.5217 138.19C36.5817 137.848 36.6117 137.425 36.6117 136.921ZM41.0432 136.921C41.0432 135.883 41.2172 135.073 41.5652 134.491C41.9192 133.903 42.5252 133.609 43.3832 133.609C44.2412 133.609 44.8442 133.903 45.1922 134.491C45.5462 135.073 45.7232 135.883 45.7232 136.921C45.7232 137.971 45.5462 138.793 45.1922 139.387C44.8442 139.975 44.2412 140.269 43.3832 140.269C42.5252 140.269 41.9192 139.975 41.5652 139.387C41.2172 138.793 41.0432 137.971 41.0432 136.921ZM44.7152 136.921C44.7152 136.435 44.6822 136.024 44.6162 135.688C44.5562 135.352 44.4302 135.079 44.2382 134.869C44.0462 134.653 43.7612 134.545 43.3832 134.545C43.0052 134.545 42.7202 134.653 42.5282 134.869C42.3362 135.079 42.2072 135.352 42.1412 135.688C42.0812 136.024 42.0512 136.435 42.0512 136.921C42.0512 137.425 42.0812 137.848 42.1412 138.19C42.2012 138.532 42.3272 138.808 42.5192 139.018C42.7172 139.228 43.0052 139.333 43.3832 139.333C43.7612 139.333 44.0462 139.228 44.2382 139.018C44.4362 138.808 44.5652 138.532 44.6252 138.19C44.6852 137.848 44.7152 137.425 44.7152 136.921ZM46.8088 136.921C46.8088 135.883 46.9828 135.073 47.3308 134.491C47.6848 133.903 48.2908 133.609 49.1488 133.609C50.0068 133.609 50.6098 133.903 50.9578 134.491C51.3118 135.073 51.4888 135.883 51.4888 136.921C51.4888 137.971 51.3118 138.793 50.9578 139.387C50.6098 139.975 50.0068 140.269 49.1488 140.269C48.2908 140.269 47.6848 139.975 47.3308 139.387C46.9828 138.793 46.8088 137.971 46.8088 136.921ZM50.4808 136.921C50.4808 136.435 50.4478 136.024 50.3818 135.688C50.3218 135.352 50.1958 135.079 50.0038 134.869C49.8118 134.653 49.5268 134.545 49.1488 134.545C48.7708 134.545 48.4858 134.653 48.2938 134.869C48.1018 135.079 47.9728 135.352 47.9068 135.688C47.8468 136.024 47.8168 136.435 47.8168 136.921C47.8168 137.425 47.8468 137.848 47.9068 138.19C47.9668 138.532 48.0928 138.808 48.2848 139.018C48.4828 139.228 48.7708 139.333 49.1488 139.333C49.5268 139.333 49.8118 139.228 50.0038 139.018C50.2018 138.808 50.3308 138.532 50.3908 138.19C50.4508 137.848 50.4808 137.425 50.4808 136.921ZM52.5744 136.921C52.5744 135.883 52.7484 135.073 53.0964 134.491C53.4504 133.903 54.0564 133.609 54.9144 133.609C55.7724 133.609 56.3754 133.903 56.7234 134.491C57.0774 135.073 57.2544 135.883 57.2544 136.921C57.2544 137.971 57.0774 138.793 56.7234 139.387C56.3754 139.975 55.7724 140.269 54.9144 140.269C54.0564 140.269 53.4504 139.975 53.0964 139.387C52.7484 138.793 52.5744 137.971 52.5744 136.921ZM56.2464 136.921C56.2464 136.435 56.2134 136.024 56.1474 135.688C56.0874 135.352 55.9614 135.079 55.7694 134.869C55.5774 134.653 55.2924 134.545 54.9144 134.545C54.5364 134.545 54.2514 134.653 54.0594 134.869C53.8674 135.079 53.7384 135.352 53.6724 135.688C53.6124 136.024 53.5824 136.435 53.5824 136.921C53.5824 137.425 53.6124 137.848 53.6724 138.19C53.7324 138.532 53.8584 138.808 54.0504 139.018C54.2484 139.228 54.5364 139.333 54.9144 139.333C55.2924 139.333 55.5774 139.228 55.7694 139.018C55.9674 138.808 56.0964 138.532 56.1564 138.19C56.2164 137.848 56.2464 137.425 56.2464 136.921Z" fill="white"/>
<rect opacity="0.4" x="324" y="137" width="1.00001" height="258" transform="rotate(90 324 137)" fill="white"/>
<path opacity="0.5" d="M23.0647 158.887V157.951H24.9367V164.512H23.9017V158.887H23.0647ZM26.3462 161.146C26.3462 160.108 26.5202 159.298 26.8682 158.716C27.2222 158.128 27.8282 157.834 28.6862 157.834C29.5442 157.834 30.1472 158.128 30.4952 158.716C30.8492 159.298 31.0262 160.108 31.0262 161.146C31.0262 162.196 30.8492 163.018 30.4952 163.612C30.1472 164.2 29.5442 164.494 28.6862 164.494C27.8282 164.494 27.2222 164.2 26.8682 163.612C26.5202 163.018 26.3462 162.196 26.3462 161.146ZM30.0182 161.146C30.0182 160.66 29.9852 160.249 29.9192 159.913C29.8592 159.577 29.7332 159.304 29.5412 159.094C29.3492 158.878 29.0642 158.77 28.6862 158.77C28.3082 158.77 28.0232 158.878 27.8312 159.094C27.6392 159.304 27.5102 159.577 27.4442 159.913C27.3842 160.249 27.3542 160.66 27.3542 161.146C27.3542 161.65 27.3842 162.073 27.4442 162.415C27.5042 162.757 27.6302 163.033 27.8222 163.243C28.0202 163.453 28.3082 163.558 28.6862 163.558C29.0642 163.558 29.3492 163.453 29.5412 163.243C29.7392 163.033 29.8682 162.757 29.9282 162.415C29.9882 162.073 30.0182 161.65 30.0182 161.146ZM32.1118 161.146C32.1118 160.108 32.2858 159.298 32.6338 158.716C32.9878 158.128 33.5938 157.834 34.4518 157.834C35.3098 157.834 35.9128 158.128 36.2608 158.716C36.6148 159.298 36.7918 160.108 36.7918 161.146C36.7918 162.196 36.6148 163.018 36.2608 163.612C35.9128 164.2 35.3098 164.494 34.4518 164.494C33.5938 164.494 32.9878 164.2 32.6338 163.612C32.2858 163.018 32.1118 162.196 32.1118 161.146ZM35.7838 161.146C35.7838 160.66 35.7508 160.249 35.6848 159.913C35.6248 159.577 35.4988 159.304 35.3068 159.094C35.1148 158.878 34.8298 158.77 34.4518 158.77C34.0738 158.77 33.7888 158.878 33.5968 159.094C33.4048 159.304 33.2758 159.577 33.2098 159.913C33.1498 160.249 33.1198 160.66 33.1198 161.146C33.1198 161.65 33.1498 162.073 33.2098 162.415C33.2698 162.757 33.3958 163.033 33.5878 163.243C33.7858 163.453 34.0738 163.558 34.4518 163.558C34.8298 163.558 35.1148 163.453 35.3068 163.243C35.5048 163.033 35.6338 162.757 35.6938 162.415C35.7538 162.073 35.7838 161.65 35.7838 161.146ZM40.2153 161.146C40.2153 160.108 40.3893 159.298 40.7373 158.716C41.0913 158.128 41.6973 157.834 42.5553 157.834C43.4133 157.834 44.0163 158.128 44.3643 158.716C44.7183 159.298 44.8953 160.108 44.8953 161.146C44.8953 162.196 44.7183 163.018 44.3643 163.612C44.0163 164.2 43.4133 164.494 42.5553 164.494C41.6973 164.494 41.0913 164.2 40.7373 163.612C40.3893 163.018 40.2153 162.196 40.2153 161.146ZM43.8873 161.146C43.8873 160.66 43.8543 160.249 43.7883 159.913C43.7283 159.577 43.6023 159.304 43.4103 159.094C43.2183 158.878 42.9333 158.77 42.5553 158.77C42.1773 158.77 41.8923 158.878 41.7003 159.094C41.5083 159.304 41.3793 159.577 41.3133 159.913C41.2533 160.249 41.2233 160.66 41.2233 161.146C41.2233 161.65 41.2533 162.073 41.3133 162.415C41.3733 162.757 41.4993 163.033 41.6913 163.243C41.8893 163.453 42.1773 163.558 42.5553 163.558C42.9333 163.558 43.2183 163.453 43.4103 163.243C43.6083 163.033 43.7373 162.757 43.7973 162.415C43.8573 162.073 43.8873 161.65 43.8873 161.146ZM45.9809 161.146C45.9809 160.108 46.1549 159.298 46.5029 158.716C46.8569 158.128 47.4629 157.834 48.3209 157.834C49.1789 157.834 49.7819 158.128 50.1299 158.716C50.4839 159.298 50.6609 160.108 50.6609 161.146C50.6609 162.196 50.4839 163.018 50.1299 163.612C49.7819 164.2 49.1789 164.494 48.3209 164.494C47.4629 164.494 46.8569 164.2 46.5029 163.612C46.1549 163.018 45.9809 162.196 45.9809 161.146ZM49.6529 161.146C49.6529 160.66 49.6199 160.249 49.5539 159.913C49.4939 159.577 49.3679 159.304 49.1759 159.094C48.9839 158.878 48.6989 158.77 48.3209 158.77C47.9429 158.77 47.6579 158.878 47.4659 159.094C47.2739 159.304 47.1449 159.577 47.0789 159.913C47.0189 160.249 46.9889 160.66 46.9889 161.146C46.9889 161.65 47.0189 162.073 47.0789 162.415C47.1389 162.757 47.2649 163.033 47.4569 163.243C47.6549 163.453 47.9429 163.558 48.3209 163.558C48.6989 163.558 48.9839 163.453 49.1759 163.243C49.3739 163.033 49.5029 162.757 49.5629 162.415C49.6229 162.073 49.6529 161.65 49.6529 161.146ZM51.7465 161.146C51.7465 160.108 51.9205 159.298 52.2685 158.716C52.6225 158.128 53.2285 157.834 54.0865 157.834C54.9445 157.834 55.5475 158.128 55.8955 158.716C56.2495 159.298 56.4265 160.108 56.4265 161.146C56.4265 162.196 56.2495 163.018 55.8955 163.612C55.5475 164.2 54.9445 164.494 54.0865 164.494C53.2285 164.494 52.6225 164.2 52.2685 163.612C51.9205 163.018 51.7465 162.196 51.7465 161.146ZM55.4185 161.146C55.4185 160.66 55.3855 160.249 55.3195 159.913C55.2595 159.577 55.1335 159.304 54.9415 159.094C54.7495 158.878 54.4645 158.77 54.0865 158.77C53.7085 158.77 53.4235 158.878 53.2315 159.094C53.0395 159.304 52.9105 159.577 52.8445 159.913C52.7845 160.249 52.7545 160.66 52.7545 161.146C52.7545 161.65 52.7845 162.073 52.8445 162.415C52.9045 162.757 53.0305 163.033 53.2225 163.243C53.4205 163.453 53.7085 163.558 54.0865 163.558C54.4645 163.558 54.7495 163.453 54.9415 163.243C55.1395 163.033 55.2685 162.757 55.3285 162.415C55.3885 162.073 55.4185 161.65 55.4185 161.146Z" fill="white"/>
<rect opacity="0.4" x="324" y="161" width="1.00001" height="258" transform="rotate(90 324 161)" fill="white"/>
<path opacity="0.5" d="M30.5473 183.057H27.5323V184.848C27.6583 184.68 27.8443 184.539 28.0903 184.425C28.3423 184.311 28.6093 184.254 28.8913 184.254C29.3953 184.254 29.8033 184.362 30.1153 184.578C30.4333 184.794 30.6583 185.067 30.7903 185.397C30.9283 185.727 30.9973 186.075 30.9973 186.441C30.9973 186.885 30.9103 187.281 30.7363 187.629C30.5683 187.971 30.3133 188.241 29.9713 188.439C29.6353 188.637 29.2213 188.736 28.7293 188.736C28.0753 188.736 27.5503 188.574 27.1543 188.25C26.7583 187.926 26.5213 187.497 26.4433 186.963H27.4423C27.5083 187.245 27.6553 187.47 27.8833 187.638C28.1113 187.8 28.3963 187.881 28.7383 187.881C29.1643 187.881 29.4823 187.752 29.6923 187.494C29.9083 187.236 30.0163 186.894 30.0163 186.468C30.0163 186.036 29.9083 185.706 29.6923 185.478C29.4763 185.244 29.1583 185.127 28.7383 185.127C28.4443 185.127 28.1953 185.202 27.9913 185.352C27.7933 185.496 27.6493 185.694 27.5593 185.946H26.5873V182.157H30.5473V183.057ZM32.0654 185.37C32.0654 184.332 32.2394 183.522 32.5874 182.94C32.9414 182.352 33.5474 182.058 34.4054 182.058C35.2634 182.058 35.8664 182.352 36.2144 182.94C36.5684 183.522 36.7454 184.332 36.7454 185.37C36.7454 186.42 36.5684 187.242 36.2144 187.836C35.8664 188.424 35.2634 188.718 34.4054 188.718C33.5474 188.718 32.9414 188.424 32.5874 187.836C32.2394 187.242 32.0654 186.42 32.0654 185.37ZM35.7374 185.37C35.7374 184.884 35.7044 184.473 35.6384 184.137C35.5784 183.801 35.4524 183.528 35.2604 183.318C35.0684 183.102 34.7834 182.994 34.4054 182.994C34.0274 182.994 33.7424 183.102 33.5504 183.318C33.3584 183.528 33.2294 183.801 33.1634 184.137C33.1034 184.473 33.0734 184.884 33.0734 185.37C33.0734 185.874 33.1034 186.297 33.1634 186.639C33.2234 186.981 33.3494 187.257 33.5414 187.467C33.7394 187.677 34.0274 187.782 34.4054 187.782C34.7834 187.782 35.0684 187.677 35.2604 187.467C35.4584 187.257 35.5874 186.981 35.6474 186.639C35.7074 186.297 35.7374 185.874 35.7374 185.37ZM40.1689 185.37C40.1689 184.332 40.3429 183.522 40.6909 182.94C41.0449 182.352 41.6509 182.058 42.5089 182.058C43.3669 182.058 43.9699 182.352 44.3179 182.94C44.6719 183.522 44.8489 184.332 44.8489 185.37C44.8489 186.42 44.6719 187.242 44.3179 187.836C43.9699 188.424 43.3669 188.718 42.5089 188.718C41.6509 188.718 41.0449 188.424 40.6909 187.836C40.3429 187.242 40.1689 186.42 40.1689 185.37ZM43.8409 185.37C43.8409 184.884 43.8079 184.473 43.7419 184.137C43.6819 183.801 43.5559 183.528 43.3639 183.318C43.1719 183.102 42.8869 182.994 42.5089 182.994C42.1309 182.994 41.8459 183.102 41.6539 183.318C41.4619 183.528 41.3329 183.801 41.2669 184.137C41.2069 184.473 41.1769 184.884 41.1769 185.37C41.1769 185.874 41.2069 186.297 41.2669 186.639C41.3269 186.981 41.4529 187.257 41.6449 187.467C41.8429 187.677 42.1309 187.782 42.5089 187.782C42.8869 187.782 43.1719 187.677 43.3639 187.467C43.5619 187.257 43.6909 186.981 43.7509 186.639C43.8109 186.297 43.8409 185.874 43.8409 185.37ZM45.9345 185.37C45.9345 184.332 46.1085 183.522 46.4565 182.94C46.8105 182.352 47.4165 182.058 48.2745 182.058C49.1325 182.058 49.7355 182.352 50.0835 182.94C50.4375 183.522 50.6145 184.332 50.6145 185.37C50.6145 186.42 50.4375 187.242 50.0835 187.836C49.7355 188.424 49.1325 188.718 48.2745 188.718C47.4165 188.718 46.8105 188.424 46.4565 187.836C46.1085 187.242 45.9345 186.42 45.9345 185.37ZM49.6065 185.37C49.6065 184.884 49.5735 184.473 49.5075 184.137C49.4475 183.801 49.3215 183.528 49.1295 183.318C48.9375 183.102 48.6525 182.994 48.2745 182.994C47.8965 182.994 47.6115 183.102 47.4195 183.318C47.2275 183.528 47.0985 183.801 47.0325 184.137C46.9725 184.473 46.9425 184.884 46.9425 185.37C46.9425 185.874 46.9725 186.297 47.0325 186.639C47.0925 186.981 47.2185 187.257 47.4105 187.467C47.6085 187.677 47.8965 187.782 48.2745 187.782C48.6525 187.782 48.9375 187.677 49.1295 187.467C49.3275 187.257 49.4565 186.981 49.5165 186.639C49.5765 186.297 49.6065 185.874 49.6065 185.37ZM51.7002 185.37C51.7002 184.332 51.8742 183.522 52.2222 182.94C52.5762 182.352 53.1822 182.058 54.0402 182.058C54.8982 182.058 55.5012 182.352 55.8492 182.94C56.2032 183.522 56.3802 184.332 56.3802 185.37C56.3802 186.42 56.2032 187.242 55.8492 187.836C55.5012 188.424 54.8982 188.718 54.0402 188.718C53.1822 188.718 52.5762 188.424 52.2222 187.836C51.8742 187.242 51.7002 186.42 51.7002 185.37ZM55.3722 185.37C55.3722 184.884 55.3392 184.473 55.2732 184.137C55.2132 183.801 55.0872 183.528 54.8952 183.318C54.7032 183.102 54.4182 182.994 54.0402 182.994C53.6622 182.994 53.3772 183.102 53.1852 183.318C52.9932 183.528 52.8642 183.801 52.7982 184.137C52.7382 184.473 52.7082 184.884 52.7082 185.37C52.7082 185.874 52.7382 186.297 52.7982 186.639C52.8582 186.981 52.9842 187.257 53.1762 187.467C53.3742 187.677 53.6622 187.782 54.0402 187.782C54.4182 187.782 54.7032 187.677 54.8952 187.467C55.0932 187.257 55.2222 186.981 55.2822 186.639C55.3422 186.297 55.3722 185.874 55.3722 185.37Z" fill="white"/>
<rect opacity="0.4" x="324" y="185" width="1.00001" height="258" transform="rotate(90 324 185)" fill="white"/>
<path opacity="0.5" d="M27.8463 211.562C28.4223 211.064 28.8753 210.656 29.2053 210.338C29.5413 210.014 29.8203 209.678 30.0423 209.33C30.2643 208.982 30.3753 208.634 30.3753 208.286C30.3753 207.926 30.2883 207.644 30.1143 207.44C29.9463 207.236 29.6793 207.134 29.3133 207.134C28.9593 207.134 28.6833 207.248 28.4853 207.476C28.2933 207.698 28.1913 207.998 28.1793 208.376H27.1893C27.2073 207.692 27.4113 207.17 27.8013 206.81C28.1973 206.444 28.6983 206.261 29.3043 206.261C29.9583 206.261 30.4683 206.441 30.8343 206.801C31.2063 207.161 31.3923 207.641 31.3923 208.241C31.3923 208.673 31.2813 209.09 31.0593 209.492C30.8433 209.888 30.5823 210.245 30.2763 210.563C29.9763 210.875 29.5923 211.238 29.1243 211.652L28.7193 212.012H31.5723V212.867H27.1983V212.12L27.8463 211.562ZM36.7036 207.278H33.6886V209.069C33.8146 208.901 34.0006 208.76 34.2466 208.646C34.4986 208.532 34.7656 208.475 35.0476 208.475C35.5516 208.475 35.9596 208.583 36.2716 208.799C36.5896 209.015 36.8146 209.288 36.9466 209.618C37.0846 209.948 37.1536 210.296 37.1536 210.662C37.1536 211.106 37.0666 211.502 36.8926 211.85C36.7246 212.192 36.4696 212.462 36.1276 212.66C35.7916 212.858 35.3776 212.957 34.8856 212.957C34.2316 212.957 33.7066 212.795 33.3106 212.471C32.9146 212.147 32.6776 211.718 32.5996 211.184H33.5986C33.6646 211.466 33.8116 211.691 34.0396 211.859C34.2676 212.021 34.5526 212.102 34.8946 212.102C35.3206 212.102 35.6386 211.973 35.8486 211.715C36.0646 211.457 36.1726 211.115 36.1726 210.689C36.1726 210.257 36.0646 209.927 35.8486 209.699C35.6326 209.465 35.3146 209.348 34.8946 209.348C34.6006 209.348 34.3516 209.423 34.1476 209.573C33.9496 209.717 33.8056 209.915 33.7156 210.167H32.7436V206.378H36.7036V207.278ZM40.5595 209.591C40.5595 208.553 40.7335 207.743 41.0815 207.161C41.4355 206.573 42.0415 206.279 42.8995 206.279C43.7575 206.279 44.3605 206.573 44.7085 207.161C45.0625 207.743 45.2395 208.553 45.2395 209.591C45.2395 210.641 45.0625 211.463 44.7085 212.057C44.3605 212.645 43.7575 212.939 42.8995 212.939C42.0415 212.939 41.4355 212.645 41.0815 212.057C40.7335 211.463 40.5595 210.641 40.5595 209.591ZM44.2315 209.591C44.2315 209.105 44.1985 208.694 44.1325 208.358C44.0725 208.022 43.9465 207.749 43.7545 207.539C43.5625 207.323 43.2775 207.215 42.8995 207.215C42.5215 207.215 42.2365 207.323 42.0445 207.539C41.8525 207.749 41.7235 208.022 41.6575 208.358C41.5975 208.694 41.5675 209.105 41.5675 209.591C41.5675 210.095 41.5975 210.518 41.6575 210.86C41.7175 211.202 41.8435 211.478 42.0355 211.688C42.2335 211.898 42.5215 212.003 42.8995 212.003C43.2775 212.003 43.5625 211.898 43.7545 211.688C43.9525 211.478 44.0815 211.202 44.1415 210.86C44.2015 210.518 44.2315 210.095 44.2315 209.591ZM46.3252 209.591C46.3252 208.553 46.4992 207.743 46.8472 207.161C47.2012 206.573 47.8072 206.279 48.6652 206.279C49.5232 206.279 50.1262 206.573 50.4742 207.161C50.8282 207.743 51.0052 208.553 51.0052 209.591C51.0052 210.641 50.8282 211.463 50.4742 212.057C50.1262 212.645 49.5232 212.939 48.6652 212.939C47.8072 212.939 47.2012 212.645 46.8472 212.057C46.4992 211.463 46.3252 210.641 46.3252 209.591ZM49.9972 209.591C49.9972 209.105 49.9642 208.694 49.8982 208.358C49.8382 208.022 49.7122 207.749 49.5202 207.539C49.3282 207.323 49.0432 207.215 48.6652 207.215C48.2872 207.215 48.0022 207.323 47.8102 207.539C47.6182 207.749 47.4892 208.022 47.4232 208.358C47.3632 208.694 47.3332 209.105 47.3332 209.591C47.3332 210.095 47.3632 210.518 47.4232 210.86C47.4832 211.202 47.6092 211.478 47.8012 211.688C47.9992 211.898 48.2872 212.003 48.6652 212.003C49.0432 212.003 49.3282 211.898 49.5202 211.688C49.7182 211.478 49.8472 211.202 49.9072 210.86C49.9672 210.518 49.9972 210.095 49.9972 209.591ZM52.0908 209.591C52.0908 208.553 52.2648 207.743 52.6128 207.161C52.9668 206.573 53.5728 206.279 54.4308 206.279C55.2888 206.279 55.8918 206.573 56.2398 207.161C56.5938 207.743 56.7708 208.553 56.7708 209.591C56.7708 210.641 56.5938 211.463 56.2398 212.057C55.8918 212.645 55.2888 212.939 54.4308 212.939C53.5728 212.939 52.9668 212.645 52.6128 212.057C52.2648 211.463 52.0908 210.641 52.0908 209.591ZM55.7628 209.591C55.7628 209.105 55.7298 208.694 55.6638 208.358C55.6038 208.022 55.4778 207.749 55.2858 207.539C55.0938 207.323 54.8088 207.215 54.4308 207.215C54.0528 207.215 53.7678 207.323 53.5758 207.539C53.3838 207.749 53.2548 208.022 53.1888 208.358C53.1288 208.694 53.0988 209.105 53.0988 209.591C53.0988 210.095 53.1288 210.518 53.1888 210.86C53.2488 211.202 53.3748 211.478 53.5668 211.688C53.7648 211.898 54.0528 212.003 54.4308 212.003C54.8088 212.003 55.0938 211.898 55.2858 211.688C55.4838 211.478 55.6128 211.202 55.6728 210.86C55.7328 210.518 55.7628 210.095 55.7628 209.591Z" fill="white"/>
<rect opacity="0.4" x="324" y="210" width="1.00001" height="258" transform="rotate(90 324 210)" fill="white"/>
<path opacity="0.4" d="M324 231L324 232L66 232L66 231L324 231Z" fill="white"/>
<circle cx="188.5" cy="272" r="3" fill="#8554FB"/>
<path d="M199.97 272.43C200.343 272.497 200.66 272.693 200.92 273.02C201.18 273.347 201.31 273.717 201.31 274.13C201.31 274.483 201.217 274.803 201.03 275.09C200.85 275.37 200.587 275.593 200.24 275.76C199.893 275.92 199.49 276 199.03 276L196.25 276L196.25 269.05L198.9 269.05C199.373 269.05 199.78 269.13 200.12 269.29C200.46 269.45 200.717 269.667 200.89 269.94C201.063 270.207 201.15 270.507 201.15 270.84C201.15 271.24 201.043 271.573 200.83 271.84C200.617 272.107 200.33 272.303 199.97 272.43ZM197.39 271.97L198.8 271.97C199.173 271.97 199.463 271.887 199.67 271.72C199.883 271.547 199.99 271.3 199.99 270.98C199.99 270.667 199.883 270.423 199.67 270.25C199.463 270.07 199.173 269.98 198.8 269.98L197.39 269.98L197.39 271.97ZM198.93 275.07C199.317 275.07 199.62 274.977 199.84 274.79C200.06 274.603 200.17 274.343 200.17 274.01C200.17 273.67 200.053 273.4 199.82 273.2C199.587 273 199.277 272.9 198.89 272.9L197.39 272.9L197.39 275.07L198.93 275.07ZM204.939 276.09C204.419 276.09 203.949 275.973 203.529 275.74C203.109 275.5 202.779 275.167 202.539 274.74C202.299 274.307 202.179 273.807 202.179 273.24C202.179 272.68 202.302 272.183 202.549 271.75C202.795 271.317 203.132 270.983 203.559 270.75C203.985 270.517 204.462 270.4 204.989 270.4C205.515 270.4 205.992 270.517 206.419 270.75C206.845 270.983 207.182 271.317 207.429 271.75C207.675 272.183 207.799 272.68 207.799 273.24C207.799 273.8 207.672 274.297 207.419 274.73C207.165 275.163 206.819 275.5 206.379 275.74C205.945 275.973 205.465 276.09 204.939 276.09ZM204.939 275.1C205.232 275.1 205.505 275.03 205.759 274.89C206.019 274.75 206.229 274.54 206.389 274.26C206.549 273.98 206.629 273.64 206.629 273.24C206.629 272.84 206.552 272.503 206.399 272.23C206.245 271.95 206.042 271.74 205.789 271.6C205.535 271.46 205.262 271.39 204.969 271.39C204.675 271.39 204.402 271.46 204.149 271.6C203.902 271.74 203.705 271.95 203.559 272.23C203.412 272.503 203.339 272.84 203.339 273.24C203.339 273.833 203.489 274.293 203.789 274.62C204.095 274.94 204.479 275.1 204.939 275.1ZM211.286 273.21L213.066 276L211.776 276L210.586 274.13L209.466 276L208.276 276L210.056 273.29L208.276 270.49L209.566 270.49L210.756 272.36L211.876 270.49L213.066 270.49L211.286 273.21ZM218.966 273.11C218.966 273.317 218.953 273.503 218.926 273.67L214.716 273.67C214.749 274.11 214.913 274.463 215.206 274.73C215.499 274.997 215.859 275.13 216.286 275.13C216.899 275.13 217.333 274.873 217.586 274.36L218.816 274.36C218.649 274.867 218.346 275.283 217.906 275.61C217.473 275.93 216.933 276.09 216.286 276.09C215.759 276.09 215.286 275.973 214.866 275.74C214.453 275.5 214.126 275.167 213.886 274.74C213.653 274.307 213.536 273.807 213.536 273.24C213.536 272.673 213.649 272.177 213.876 271.75C214.109 271.317 214.433 270.983 214.846 270.75C215.266 270.517 215.746 270.4 216.286 270.4C216.806 270.4 217.269 270.513 217.676 270.74C218.083 270.967 218.399 271.287 218.626 271.7C218.853 272.107 218.966 272.577 218.966 273.11ZM217.776 272.75C217.769 272.33 217.619 271.993 217.326 271.74C217.033 271.487 216.669 271.36 216.236 271.36C215.843 271.36 215.506 271.487 215.226 271.74C214.946 271.987 214.779 272.323 214.726 272.75L217.776 272.75ZM222.088 276.09C221.655 276.09 221.265 276.013 220.918 275.86C220.578 275.7 220.308 275.487 220.108 275.22C219.908 274.947 219.801 274.643 219.788 274.31L220.968 274.31C220.988 274.543 221.098 274.74 221.298 274.9C221.505 275.053 221.761 275.13 222.068 275.13C222.388 275.13 222.635 275.07 222.808 274.95C222.988 274.823 223.078 274.663 223.078 274.47C223.078 274.263 222.978 274.11 222.778 274.01C222.585 273.91 222.275 273.8 221.848 273.68C221.435 273.567 221.098 273.457 220.838 273.35C220.578 273.243 220.351 273.08 220.158 272.86C219.971 272.64 219.878 272.35 219.878 271.99C219.878 271.697 219.965 271.43 220.138 271.19C220.311 270.943 220.558 270.75 220.878 270.61C221.205 270.47 221.578 270.4 221.998 270.4C222.625 270.4 223.128 270.56 223.508 270.88C223.895 271.193 224.101 271.623 224.128 272.17L222.988 272.17C222.968 271.923 222.868 271.727 222.688 271.58C222.508 271.433 222.265 271.36 221.958 271.36C221.658 271.36 221.428 271.417 221.268 271.53C221.108 271.643 221.028 271.793 221.028 271.98C221.028 272.127 221.081 272.25 221.188 272.35C221.295 272.45 221.425 272.53 221.578 272.59C221.731 272.643 221.958 272.713 222.258 272.8C222.658 272.907 222.985 273.017 223.238 273.13C223.498 273.237 223.721 273.397 223.908 273.61C224.095 273.823 224.191 274.107 224.198 274.46C224.198 274.773 224.111 275.053 223.938 275.3C223.765 275.547 223.518 275.74 223.198 275.88C222.885 276.02 222.515 276.09 222.088 276.09ZM230.417 276.09C229.897 276.09 229.427 275.973 229.007 275.74C228.587 275.5 228.257 275.167 228.017 274.74C227.777 274.307 227.657 273.807 227.657 273.24C227.657 272.68 227.781 272.183 228.027 271.75C228.274 271.317 228.611 270.983 229.037 270.75C229.464 270.517 229.941 270.4 230.467 270.4C230.994 270.4 231.471 270.517 231.897 270.75C232.324 270.983 232.661 271.317 232.907 271.75C233.154 272.183 233.277 272.68 233.277 273.24C233.277 273.8 233.151 274.297 232.897 274.73C232.644 275.163 232.297 275.5 231.857 275.74C231.424 275.973 230.944 276.09 230.417 276.09ZM230.417 275.1C230.711 275.1 230.984 275.03 231.237 274.89C231.497 274.75 231.707 274.54 231.867 274.26C232.027 273.98 232.107 273.64 232.107 273.24C232.107 272.84 232.031 272.503 231.877 272.23C231.724 271.95 231.521 271.74 231.267 271.6C231.014 271.46 230.741 271.39 230.447 271.39C230.154 271.39 229.881 271.46 229.627 271.6C229.381 271.74 229.184 271.95 229.037 272.23C228.891 272.503 228.817 272.84 228.817 273.24C228.817 273.833 228.967 274.293 229.267 274.62C229.574 274.94 229.957 275.1 230.417 275.1ZM235.544 271.3C235.738 271.047 236.001 270.833 236.334 270.66C236.668 270.487 237.044 270.4 237.464 270.4C237.944 270.4 238.381 270.52 238.774 270.76C239.174 270.993 239.488 271.323 239.714 271.75C239.941 272.177 240.054 272.667 240.054 273.22C240.054 273.773 239.941 274.27 239.714 274.71C239.488 275.143 239.174 275.483 238.774 275.73C238.381 275.97 237.944 276.09 237.464 276.09C237.044 276.09 236.671 276.007 236.344 275.84C236.018 275.667 235.751 275.453 235.544 275.2L235.544 278.62L234.404 278.62L234.404 270.49L235.544 270.49L235.544 271.3ZM238.894 273.22C238.894 272.84 238.814 272.513 238.654 272.24C238.501 271.96 238.294 271.75 238.034 271.61C237.781 271.463 237.508 271.39 237.214 271.39C236.928 271.39 236.654 271.463 236.394 271.61C236.141 271.757 235.934 271.97 235.774 272.25C235.621 272.53 235.544 272.86 235.544 273.24C235.544 273.62 235.621 273.953 235.774 274.24C235.934 274.52 236.141 274.733 236.394 274.88C236.654 275.027 236.928 275.1 237.214 275.1C237.508 275.1 237.781 275.027 238.034 274.88C238.294 274.727 238.501 274.507 238.654 274.22C238.814 273.933 238.894 273.6 238.894 273.22ZM246.232 273.11C246.232 273.317 246.218 273.503 246.192 273.67L241.982 273.67C242.015 274.11 242.178 274.463 242.472 274.73C242.765 274.997 243.125 275.13 243.552 275.13C244.165 275.13 244.598 274.873 244.852 274.36L246.082 274.36C245.915 274.867 245.612 275.283 245.172 275.61C244.738 275.93 244.198 276.09 243.552 276.09C243.025 276.09 242.552 275.973 242.132 275.74C241.718 275.5 241.392 275.167 241.152 274.74C240.918 274.307 240.802 273.807 240.802 273.24C240.802 272.673 240.915 272.177 241.142 271.75C241.375 271.317 241.698 270.983 242.112 270.75C242.532 270.517 243.012 270.4 243.552 270.4C244.072 270.4 244.535 270.513 244.942 270.74C245.348 270.967 245.665 271.287 245.892 271.7C246.118 272.107 246.232 272.577 246.232 273.11ZM245.042 272.75C245.035 272.33 244.885 271.993 244.592 271.74C244.298 271.487 243.935 271.36 243.502 271.36C243.108 271.36 242.772 271.487 242.492 271.74C242.212 271.987 242.045 272.323 241.992 272.75L245.042 272.75ZM250.134 270.4C250.567 270.4 250.954 270.49 251.294 270.67C251.64 270.85 251.91 271.117 252.104 271.47C252.297 271.823 252.394 272.25 252.394 272.75L252.394 276L251.264 276L251.264 272.92C251.264 272.427 251.14 272.05 250.894 271.79C250.647 271.523 250.31 271.39 249.884 271.39C249.457 271.39 249.117 271.523 248.864 271.79C248.617 272.05 248.494 272.427 248.494 272.92L248.494 276L247.354 276L247.354 270.49L248.494 270.49L248.494 271.12C248.68 270.893 248.917 270.717 249.204 270.59C249.497 270.463 249.807 270.4 250.134 270.4ZM258.898 273.11C258.898 273.317 258.884 273.503 258.858 273.67L254.648 273.67C254.681 274.11 254.844 274.463 255.138 274.73C255.431 274.997 255.791 275.13 256.218 275.13C256.831 275.13 257.264 274.873 257.518 274.36L258.748 274.36C258.581 274.867 258.278 275.283 257.838 275.61C257.404 275.93 256.864 276.09 256.218 276.09C255.691 276.09 255.218 275.973 254.798 275.74C254.384 275.5 254.058 275.167 253.818 274.74C253.584 274.307 253.468 273.807 253.468 273.24C253.468 272.673 253.581 272.177 253.808 271.75C254.041 271.317 254.364 270.983 254.778 270.75C255.198 270.517 255.678 270.4 256.218 270.4C256.738 270.4 257.201 270.513 257.608 270.74C258.014 270.967 258.331 271.287 258.558 271.7C258.784 272.107 258.898 272.577 258.898 273.11ZM257.708 272.75C257.701 272.33 257.551 271.993 257.258 271.74C256.964 271.487 256.601 271.36 256.168 271.36C255.774 271.36 255.438 271.487 255.158 271.74C254.878 271.987 254.711 272.323 254.658 272.75L257.708 272.75ZM259.64 273.22C259.64 272.667 259.753 272.177 259.98 271.75C260.213 271.323 260.526 270.993 260.92 270.76C261.32 270.52 261.763 270.4 262.25 270.4C262.61 270.4 262.963 270.48 263.31 270.64C263.663 270.793 263.943 271 264.15 271.26L264.15 268.6L265.3 268.6L265.3 276L264.15 276L264.15 275.17C263.963 275.437 263.703 275.657 263.37 275.83C263.043 276.003 262.666 276.09 262.24 276.09C261.76 276.09 261.32 275.97 260.92 275.73C260.526 275.483 260.213 275.143 259.98 274.71C259.753 274.27 259.64 273.773 259.64 273.22ZM264.15 273.24C264.15 272.86 264.07 272.53 263.91 272.25C263.756 271.97 263.553 271.757 263.3 271.61C263.046 271.463 262.773 271.39 262.48 271.39C262.186 271.39 261.913 271.463 261.66 271.61C261.406 271.75 261.2 271.96 261.04 272.24C260.886 272.513 260.81 272.84 260.81 273.22C260.81 273.6 260.886 273.933 261.04 274.22C261.2 274.507 261.406 274.727 261.66 274.88C261.92 275.027 262.193 275.1 262.48 275.1C262.773 275.1 263.046 275.027 263.3 274.88C263.553 274.733 263.756 274.52 263.91 274.24C264.07 273.953 264.15 273.62 264.15 273.24Z" fill="white"/>
<circle cx="122.5" cy="272" r="3" fill="#FFC700"/>
<path d="M133.86 276L132.26 273.22L131.39 273.22L131.39 276L130.25 276L130.25 269.05L132.65 269.05C133.183 269.05 133.633 269.143 134 269.33C134.373 269.517 134.65 269.767 134.83 270.08C135.017 270.393 135.11 270.743 135.11 271.13C135.11 271.583 134.977 271.997 134.71 272.37C134.45 272.737 134.047 272.987 133.5 273.12L135.22 276L133.86 276ZM131.39 272.31L132.65 272.31C133.077 272.31 133.397 272.203 133.61 271.99C133.83 271.777 133.94 271.49 133.94 271.13C133.94 270.77 133.833 270.49 133.62 270.29C133.407 270.083 133.083 269.98 132.65 269.98L131.39 269.98L131.39 272.31ZM141.618 273.11C141.618 273.317 141.605 273.503 141.578 273.67L137.368 273.67C137.402 274.11 137.565 274.463 137.858 274.73C138.152 274.997 138.512 275.13 138.938 275.13C139.552 275.13 139.985 274.873 140.238 274.36L141.468 274.36C141.302 274.867 140.998 275.283 140.558 275.61C140.125 275.93 139.585 276.09 138.938 276.09C138.412 276.09 137.938 275.973 137.518 275.74C137.105 275.5 136.778 275.167 136.538 274.74C136.305 274.307 136.188 273.807 136.188 273.24C136.188 272.673 136.302 272.177 136.528 271.75C136.762 271.317 137.085 270.983 137.498 270.75C137.918 270.517 138.398 270.4 138.938 270.4C139.458 270.4 139.922 270.513 140.328 270.74C140.735 270.967 141.052 271.287 141.278 271.7C141.505 272.107 141.618 272.577 141.618 273.11ZM140.428 272.75C140.422 272.33 140.272 271.993 139.978 271.74C139.685 271.487 139.322 271.36 138.888 271.36C138.495 271.36 138.158 271.487 137.878 271.74C137.598 271.987 137.432 272.323 137.378 272.75L140.428 272.75ZM144.87 274.98L146.43 270.49L147.64 270.49L145.54 276L144.18 276L142.09 270.49L143.31 270.49L144.87 274.98ZM153.552 273.11C153.552 273.317 153.539 273.503 153.512 273.67L149.302 273.67C149.335 274.11 149.499 274.463 149.792 274.73C150.085 274.997 150.445 275.13 150.872 275.13C151.485 275.13 151.919 274.873 152.172 274.36L153.402 274.36C153.235 274.867 152.932 275.283 152.492 275.61C152.059 275.93 151.519 276.09 150.872 276.09C150.345 276.09 149.872 275.973 149.452 275.74C149.039 275.5 148.712 275.167 148.472 274.74C148.239 274.307 148.122 273.807 148.122 273.24C148.122 272.673 148.235 272.177 148.462 271.75C148.695 271.317 149.019 270.983 149.432 270.75C149.852 270.517 150.332 270.4 150.872 270.4C151.392 270.4 151.855 270.513 152.262 270.74C152.669 270.967 152.985 271.287 153.212 271.7C153.439 272.107 153.552 272.577 153.552 273.11ZM152.362 272.75C152.355 272.33 152.205 271.993 151.912 271.74C151.619 271.487 151.255 271.36 150.822 271.36C150.429 271.36 150.092 271.487 149.812 271.74C149.532 271.987 149.365 272.323 149.312 272.75L152.362 272.75ZM157.454 270.4C157.887 270.4 158.274 270.49 158.614 270.67C158.96 270.85 159.23 271.117 159.424 271.47C159.617 271.823 159.714 272.25 159.714 272.75L159.714 276L158.584 276L158.584 272.92C158.584 272.427 158.46 272.05 158.214 271.79C157.967 271.523 157.63 271.39 157.204 271.39C156.777 271.39 156.437 271.523 156.184 271.79C155.937 272.05 155.814 272.427 155.814 272.92L155.814 276L154.674 276L154.674 270.49L155.814 270.49L155.814 271.12C156 270.893 156.237 270.717 156.524 270.59C156.817 270.463 157.127 270.4 157.454 270.4ZM166.158 270.49L166.158 276L165.018 276L165.018 275.35C164.838 275.577 164.601 275.757 164.308 275.89C164.021 276.017 163.715 276.08 163.388 276.08C162.955 276.08 162.565 275.99 162.218 275.81C161.878 275.63 161.608 275.363 161.408 275.01C161.215 274.657 161.118 274.23 161.118 273.73L161.118 270.49L162.248 270.49L162.248 273.56C162.248 274.053 162.371 274.433 162.618 274.7C162.865 274.96 163.201 275.09 163.628 275.09C164.055 275.09 164.391 274.96 164.638 274.7C164.891 274.433 165.018 274.053 165.018 273.56L165.018 270.49L166.158 270.49ZM172.712 273.11C172.712 273.317 172.699 273.503 172.672 273.67L168.462 273.67C168.495 274.11 168.659 274.463 168.952 274.73C169.245 274.997 169.605 275.13 170.032 275.13C170.645 275.13 171.079 274.873 171.332 274.36L172.562 274.36C172.395 274.867 172.092 275.283 171.652 275.61C171.219 275.93 170.679 276.09 170.032 276.09C169.505 276.09 169.032 275.973 168.612 275.74C168.199 275.5 167.872 275.167 167.632 274.74C167.399 274.307 167.282 273.807 167.282 273.24C167.282 272.673 167.395 272.177 167.622 271.75C167.855 271.317 168.179 270.983 168.592 270.75C169.012 270.517 169.492 270.4 170.032 270.4C170.552 270.4 171.015 270.513 171.422 270.74C171.829 270.967 172.145 271.287 172.372 271.7C172.599 272.107 172.712 272.577 172.712 273.11ZM171.522 272.75C171.515 272.33 171.365 271.993 171.072 271.74C170.779 271.487 170.415 271.36 169.982 271.36C169.589 271.36 169.252 271.487 168.972 271.74C168.692 271.987 168.525 272.323 168.472 272.75L171.522 272.75Z" fill="white"/>
<circle cx="72.5" cy="272" r="3" fill="#FF00FB"/>
<path d="M81.38 269.05L81.38 273.48C81.38 274.007 81.5167 274.403 81.79 274.67C82.07 274.937 82.4567 275.07 82.95 275.07C83.45 275.07 83.8367 274.937 84.11 274.67C84.39 274.403 84.53 274.007 84.53 273.48L84.53 269.05L85.67 269.05L85.67 273.46C85.67 274.027 85.5467 274.507 85.3 274.9C85.0533 275.293 84.7233 275.587 84.31 275.78C83.8967 275.973 83.44 276.07 82.94 276.07C82.44 276.07 81.9833 275.973 81.57 275.78C81.1633 275.587 80.84 275.293 80.6 274.9C80.36 274.507 80.24 274.027 80.24 273.46L80.24 269.05L81.38 269.05ZM89.1543 276.09C88.721 276.09 88.331 276.013 87.9843 275.86C87.6443 275.7 87.3743 275.487 87.1743 275.22C86.9743 274.947 86.8676 274.643 86.8543 274.31L88.0343 274.31C88.0543 274.543 88.1643 274.74 88.3643 274.9C88.571 275.053 88.8276 275.13 89.1343 275.13C89.4543 275.13 89.701 275.07 89.8743 274.95C90.0543 274.823 90.1443 274.663 90.1443 274.47C90.1443 274.263 90.0443 274.11 89.8443 274.01C89.651 273.91 89.341 273.8 88.9143 273.68C88.501 273.567 88.1643 273.457 87.9043 273.35C87.6443 273.243 87.4176 273.08 87.2243 272.86C87.0376 272.64 86.9443 272.35 86.9443 271.99C86.9443 271.697 87.031 271.43 87.2043 271.19C87.3776 270.943 87.6243 270.75 87.9443 270.61C88.271 270.47 88.6443 270.4 89.0643 270.4C89.691 270.4 90.1943 270.56 90.5743 270.88C90.961 271.193 91.1676 271.623 91.1943 272.17L90.0543 272.17C90.0343 271.923 89.9343 271.727 89.7543 271.58C89.5743 271.433 89.331 271.36 89.0243 271.36C88.7243 271.36 88.4943 271.417 88.3343 271.53C88.1743 271.643 88.0943 271.793 88.0943 271.98C88.0943 272.127 88.1476 272.25 88.2543 272.35C88.361 272.45 88.491 272.53 88.6443 272.59C88.7976 272.643 89.0243 272.713 89.3243 272.8C89.7243 272.907 90.051 273.017 90.3043 273.13C90.5643 273.237 90.7876 273.397 90.9743 273.61C91.161 273.823 91.2576 274.107 91.2643 274.46C91.2643 274.773 91.1776 275.053 91.0043 275.3C90.831 275.547 90.5843 275.74 90.2643 275.88C89.951 276.02 89.581 276.09 89.1543 276.09ZM97.5461 273.11C97.5461 273.317 97.5328 273.503 97.5061 273.67L93.2961 273.67C93.3294 274.11 93.4928 274.463 93.7861 274.73C94.0794 274.997 94.4394 275.13 94.8661 275.13C95.4794 275.13 95.9128 274.873 96.1661 274.36L97.3961 274.36C97.2294 274.867 96.9261 275.283 96.4861 275.61C96.0528 275.93 95.5128 276.09 94.8661 276.09C94.3394 276.09 93.8661 275.973 93.4461 275.74C93.0328 275.5 92.7061 275.167 92.4661 274.74C92.2328 274.307 92.1161 273.807 92.1161 273.24C92.1161 272.673 92.2294 272.177 92.4561 271.75C92.6894 271.317 93.0128 270.983 93.4261 270.75C93.8461 270.517 94.3261 270.4 94.8661 270.4C95.3861 270.4 95.8494 270.513 96.2561 270.74C96.6628 270.967 96.9794 271.287 97.2061 271.7C97.4328 272.107 97.5461 272.577 97.5461 273.11ZM96.3561 272.75C96.3494 272.33 96.1994 271.993 95.9061 271.74C95.6128 271.487 95.2494 271.36 94.8161 271.36C94.4228 271.36 94.0861 271.487 93.8061 271.74C93.5261 271.987 93.3594 272.323 93.3061 272.75L96.3561 272.75ZM99.808 271.29C99.9746 271.01 100.195 270.793 100.468 270.64C100.748 270.48 101.078 270.4 101.458 270.4L101.458 271.58L101.168 271.58C100.721 271.58 100.381 271.693 100.148 271.92C99.9213 272.147 99.808 272.54 99.808 273.1L99.808 276L98.668 276L98.668 270.49L99.808 270.49L99.808 271.29ZM104.506 276.09C104.073 276.09 103.683 276.013 103.336 275.86C102.996 275.7 102.726 275.487 102.526 275.22C102.326 274.947 102.219 274.643 102.206 274.31L103.386 274.31C103.406 274.543 103.516 274.74 103.716 274.9C103.923 275.053 104.179 275.13 104.486 275.13C104.806 275.13 105.053 275.07 105.226 274.95C105.406 274.823 105.496 274.663 105.496 274.47C105.496 274.263 105.396 274.11 105.196 274.01C105.003 273.91 104.693 273.8 104.266 273.68C103.853 273.567 103.516 273.457 103.256 273.35C102.996 273.243 102.769 273.08 102.576 272.86C102.389 272.64 102.296 272.35 102.296 271.99C102.296 271.697 102.383 271.43 102.556 271.19C102.729 270.943 102.976 270.75 103.296 270.61C103.623 270.47 103.996 270.4 104.416 270.4C105.043 270.4 105.546 270.56 105.926 270.88C106.313 271.193 106.519 271.623 106.546 272.17L105.406 272.17C105.386 271.923 105.286 271.727 105.106 271.58C104.926 271.433 104.683 271.36 104.376 271.36C104.076 271.36 103.846 271.417 103.686 271.53C103.526 271.643 103.446 271.793 103.446 271.98C103.446 272.127 103.499 272.25 103.606 272.35C103.713 272.45 103.843 272.53 103.996 272.59C104.149 272.643 104.376 272.713 104.676 272.8C105.076 272.907 105.403 273.017 105.656 273.13C105.916 273.237 106.139 273.397 106.326 273.61C106.513 273.823 106.609 274.107 106.616 274.46C106.616 274.773 106.529 275.053 106.356 275.3C106.183 275.547 105.936 275.74 105.616 275.88C105.303 276.02 104.933 276.09 104.506 276.09Z" fill="white"/>
<circle cx="66.5" cy="231.5" r="1.5" fill="white"/>
<circle cx="95.5" cy="225.5" r="1.5" fill="white"/>
<circle cx="124.5" cy="218.5" r="1.5" fill="white"/>
<circle cx="152.5" cy="210.5" r="1.5" fill="white"/>
<circle cx="181.5" cy="191.5" r="1.5" fill="white"/>
<circle cx="210.5" cy="176.5" r="1.5" fill="white"/>
<circle cx="239.5" cy="169.5" r="1.5" fill="white"/>
<circle cx="267.5" cy="164.5" r="1.5" fill="white"/>
<circle cx="296.5" cy="159.5" r="1.5" fill="white"/>
<circle cx="323.5" cy="155.5" r="1.5" fill="white"/>
<circle cx="95.5" cy="216.5" r="1.5" fill="white"/>
<circle cx="124.5" cy="166.5" r="1.5" fill="white"/>
<circle cx="152.5" cy="130.5" r="1.5" fill="white"/>
<circle cx="181.5" cy="101.5" r="1.5" fill="white"/>
<circle cx="210.5" cy="90.5" r="1.5" fill="white"/>
<circle cx="239.5" cy="83.5" r="1.5" fill="white"/>
<circle cx="267.5" cy="75.5" r="1.5" fill="white"/>
<circle cx="296.5" cy="66.5" r="1.5" fill="white"/>
<circle cx="323.5" cy="52.5" r="1.5" fill="white"/>
<circle cx="95.5" cy="181.5" r="1.5" fill="white"/>
<circle cx="124.5" cy="159.5" r="1.5" fill="white"/>
<circle cx="152.5" cy="146.5" r="1.5" fill="white"/>
<circle cx="181.5" cy="130.5" r="1.5" fill="white"/>
<circle cx="210.5" cy="123.5" r="1.5" fill="white"/>
<circle cx="239.5" cy="117.5" r="1.5" fill="white"/>
<circle cx="267.5" cy="106.5" r="1.5" fill="white"/>
<circle cx="296.5" cy="96.5" r="1.5" fill="white"/>
<circle cx="323.5" cy="85.5" r="1.5" fill="white"/>
<defs>
<linearGradient id="paint0_linear_397_24238" x1="195" y1="29.682" x2="195" y2="230" gradientUnits="userSpaceOnUse">
<stop stop-color="#8554FB"/>
<stop offset="1" stop-color="#8555FB" stop-opacity="0"/>
</linearGradient>
<linearGradient id="paint1_linear_397_24238" x1="195" y1="87.9027" x2="195" y2="230" gradientUnits="userSpaceOnUse">
<stop stop-color="#FFC700"/>
<stop offset="1" stop-color="#FFC701" stop-opacity="0"/>
</linearGradient>
<linearGradient id="paint2_linear_397_24238" x1="195" y1="123.885" x2="195" y2="230" gradientUnits="userSpaceOnUse">
<stop stop-color="#FF00FB"/>
<stop offset="1" stop-color="#FF01FB" stop-opacity="0"/>
</linearGradient>
</defs>
</svg>
