<svg width="860" height="772" viewBox="0 0 860 772" fill="none" xmlns="http://www.w3.org/2000/svg">
<rect width="860" height="772" rx="20" fill="#080531"/>
<circle cx="479" cy="725" r="6" fill="#8554FB"/>
<path d="M503.258 725.002C503.781 725.095 504.224 725.371 504.588 725.828C504.952 726.285 505.134 726.803 505.134 727.382C505.134 727.877 505.003 728.325 504.742 728.726C504.49 729.118 504.121 729.431 503.636 729.664C503.151 729.888 502.586 730 501.942 730L498.05 730L498.05 720.27L501.76 720.27C502.423 720.27 502.992 720.382 503.468 720.606C503.944 720.83 504.303 721.133 504.546 721.516C504.789 721.889 504.91 722.309 504.91 722.776C504.91 723.336 504.761 723.803 504.462 724.176C504.163 724.549 503.762 724.825 503.258 725.002ZM499.646 724.358L501.62 724.358C502.143 724.358 502.549 724.241 502.838 724.008C503.137 723.765 503.286 723.42 503.286 722.972C503.286 722.533 503.137 722.193 502.838 721.95C502.549 721.698 502.143 721.572 501.62 721.572L499.646 721.572L499.646 724.358ZM501.802 728.698C502.343 728.698 502.768 728.567 503.076 728.306C503.384 728.045 503.538 727.681 503.538 727.214C503.538 726.738 503.375 726.36 503.048 726.08C502.721 725.8 502.287 725.66 501.746 725.66L499.646 725.66L499.646 728.698L501.802 728.698ZM510.214 730.126C509.486 730.126 508.828 729.963 508.24 729.636C507.652 729.3 507.19 728.833 506.854 728.236C506.518 727.629 506.35 726.929 506.35 726.136C506.35 725.352 506.523 724.657 506.868 724.05C507.214 723.443 507.685 722.977 508.282 722.65C508.88 722.323 509.547 722.16 510.284 722.16C511.022 722.16 511.689 722.323 512.286 722.65C512.884 722.977 513.355 723.443 513.7 724.05C514.046 724.657 514.218 725.352 514.218 726.136C514.218 726.92 514.041 727.615 513.686 728.222C513.332 728.829 512.846 729.3 512.23 729.636C511.624 729.963 510.952 730.126 510.214 730.126ZM510.214 728.74C510.625 728.74 511.008 728.642 511.362 728.446C511.726 728.25 512.02 727.956 512.244 727.564C512.468 727.172 512.58 726.696 512.58 726.136C512.58 725.576 512.473 725.105 512.258 724.722C512.044 724.33 511.759 724.036 511.404 723.84C511.05 723.644 510.667 723.546 510.256 723.546C509.846 723.546 509.463 723.644 509.108 723.84C508.763 724.036 508.488 724.33 508.282 724.722C508.077 725.105 507.974 725.576 507.974 726.136C507.974 726.967 508.184 727.611 508.604 728.068C509.034 728.516 509.57 728.74 510.214 728.74ZM519.1 726.094L521.592 730L519.786 730L518.12 727.382L516.552 730L514.886 730L517.378 726.206L514.886 722.286L516.692 722.286L518.358 724.904L519.926 722.286L521.592 722.286L519.1 726.094ZM529.852 725.954C529.852 726.243 529.834 726.505 529.796 726.738L523.902 726.738C523.949 727.354 524.178 727.849 524.588 728.222C524.999 728.595 525.503 728.782 526.1 728.782C526.959 728.782 527.566 728.423 527.92 727.704L529.642 727.704C529.409 728.413 528.984 728.997 528.368 729.454C527.762 729.902 527.006 730.126 526.1 730.126C525.363 730.126 524.7 729.963 524.112 729.636C523.534 729.3 523.076 728.833 522.74 728.236C522.414 727.629 522.25 726.929 522.25 726.136C522.25 725.343 522.409 724.647 522.726 724.05C523.053 723.443 523.506 722.977 524.084 722.65C524.672 722.323 525.344 722.16 526.1 722.16C526.828 722.16 527.477 722.319 528.046 722.636C528.616 722.953 529.059 723.401 529.376 723.98C529.694 724.549 529.852 725.207 529.852 725.954ZM528.186 725.45C528.177 724.862 527.967 724.391 527.556 724.036C527.146 723.681 526.637 723.504 526.03 723.504C525.48 723.504 525.008 723.681 524.616 724.036C524.224 724.381 523.991 724.853 523.916 725.45L528.186 725.45ZM534.223 730.126C533.616 730.126 533.07 730.019 532.585 729.804C532.109 729.58 531.731 729.281 531.451 728.908C531.171 728.525 531.022 728.101 531.003 727.634L532.655 727.634C532.683 727.961 532.837 728.236 533.117 728.46C533.406 728.675 533.766 728.782 534.195 728.782C534.643 728.782 534.988 728.698 535.231 728.53C535.483 728.353 535.609 728.129 535.609 727.858C535.609 727.569 535.469 727.354 535.189 727.214C534.918 727.074 534.484 726.92 533.887 726.752C533.308 726.593 532.837 726.439 532.473 726.29C532.109 726.141 531.792 725.912 531.521 725.604C531.26 725.296 531.129 724.89 531.129 724.386C531.129 723.975 531.25 723.602 531.493 723.266C531.736 722.921 532.081 722.65 532.529 722.454C532.986 722.258 533.509 722.16 534.097 722.16C534.974 722.16 535.679 722.384 536.211 722.832C536.752 723.271 537.042 723.873 537.079 724.638L535.483 724.638C535.455 724.293 535.315 724.017 535.063 723.812C534.811 723.607 534.47 723.504 534.041 723.504C533.621 723.504 533.299 723.583 533.075 723.742C532.851 723.901 532.739 724.111 532.739 724.372C532.739 724.577 532.814 724.75 532.963 724.89C533.112 725.03 533.294 725.142 533.509 725.226C533.724 725.301 534.041 725.399 534.461 725.52C535.021 725.669 535.478 725.823 535.833 725.982C536.197 726.131 536.51 726.355 536.771 726.654C537.032 726.953 537.168 727.349 537.177 727.844C537.177 728.283 537.056 728.675 536.813 729.02C536.57 729.365 536.225 729.636 535.777 729.832C535.338 730.028 534.82 730.126 534.223 730.126ZM545.884 730.126C545.156 730.126 544.498 729.963 543.91 729.636C543.322 729.3 542.86 728.833 542.524 728.236C542.188 727.629 542.02 726.929 542.02 726.136C542.02 725.352 542.193 724.657 542.538 724.05C542.884 723.443 543.355 722.977 543.952 722.65C544.55 722.323 545.217 722.16 545.954 722.16C546.692 722.16 547.359 722.323 547.956 722.65C548.554 722.977 549.025 723.443 549.37 724.05C549.716 724.657 549.888 725.352 549.888 726.136C549.888 726.92 549.711 727.615 549.356 728.222C549.002 728.829 548.516 729.3 547.9 729.636C547.294 729.963 546.622 730.126 545.884 730.126ZM545.884 728.74C546.295 728.74 546.678 728.642 547.032 728.446C547.396 728.25 547.69 727.956 547.914 727.564C548.138 727.172 548.25 726.696 548.25 726.136C548.25 725.576 548.143 725.105 547.928 724.722C547.714 724.33 547.429 724.036 547.074 723.84C546.72 723.644 546.337 723.546 545.926 723.546C545.516 723.546 545.133 723.644 544.778 723.84C544.433 724.036 544.158 724.33 543.952 724.722C543.747 725.105 543.644 725.576 543.644 726.136C543.644 726.967 543.854 727.611 544.274 728.068C544.704 728.516 545.24 728.74 545.884 728.74ZM553.062 723.42C553.333 723.065 553.701 722.767 554.168 722.524C554.635 722.281 555.162 722.16 555.75 722.16C556.422 722.16 557.033 722.328 557.584 722.664C558.144 722.991 558.583 723.453 558.9 724.05C559.217 724.647 559.376 725.333 559.376 726.108C559.376 726.883 559.217 727.578 558.9 728.194C558.583 728.801 558.144 729.277 557.584 729.622C557.033 729.958 556.422 730.126 555.75 730.126C555.162 730.126 554.639 730.009 554.182 729.776C553.725 729.533 553.351 729.235 553.062 728.88L553.062 733.668L551.466 733.668L551.466 722.286L553.062 722.286L553.062 723.42ZM557.752 726.108C557.752 725.576 557.64 725.119 557.416 724.736C557.201 724.344 556.912 724.05 556.548 723.854C556.193 723.649 555.811 723.546 555.4 723.546C554.999 723.546 554.616 723.649 554.252 723.854C553.897 724.059 553.608 724.358 553.384 724.75C553.169 725.142 553.062 725.604 553.062 726.136C553.062 726.668 553.169 727.135 553.384 727.536C553.608 727.928 553.897 728.227 554.252 728.432C554.616 728.637 554.999 728.74 555.4 728.74C555.811 728.74 556.193 728.637 556.548 728.432C556.912 728.217 557.201 727.909 557.416 727.508C557.64 727.107 557.752 726.64 557.752 726.108ZM568.024 725.954C568.024 726.243 568.006 726.505 567.968 726.738L562.074 726.738C562.121 727.354 562.35 727.849 562.76 728.222C563.171 728.595 563.675 728.782 564.272 728.782C565.131 728.782 565.738 728.423 566.092 727.704L567.814 727.704C567.581 728.413 567.156 728.997 566.54 729.454C565.934 729.902 565.178 730.126 564.272 730.126C563.535 730.126 562.872 729.963 562.284 729.636C561.706 729.3 561.248 728.833 560.912 728.236C560.586 727.629 560.422 726.929 560.422 726.136C560.422 725.343 560.581 724.647 560.898 724.05C561.225 723.443 561.678 722.977 562.256 722.65C562.844 722.323 563.516 722.16 564.272 722.16C565 722.16 565.649 722.319 566.218 722.636C566.788 722.953 567.231 723.401 567.548 723.98C567.866 724.549 568.024 725.207 568.024 725.954ZM566.358 725.45C566.349 724.862 566.139 724.391 565.728 724.036C565.318 723.681 564.809 723.504 564.202 723.504C563.652 723.504 563.18 723.681 562.788 724.036C562.396 724.381 562.163 724.853 562.088 725.45L566.358 725.45ZM573.487 722.16C574.094 722.16 574.635 722.286 575.111 722.538C575.596 722.79 575.974 723.163 576.245 723.658C576.516 724.153 576.651 724.75 576.651 725.45L576.651 730L575.069 730L575.069 725.688C575.069 724.997 574.896 724.47 574.551 724.106C574.206 723.733 573.734 723.546 573.137 723.546C572.54 723.546 572.064 723.733 571.709 724.106C571.364 724.47 571.191 724.997 571.191 725.688L571.191 730L569.595 730L569.595 722.286L571.191 722.286L571.191 723.168C571.452 722.851 571.784 722.603 572.185 722.426C572.596 722.249 573.03 722.16 573.487 722.16ZM585.757 725.954C585.757 726.243 585.738 726.505 585.701 726.738L579.807 726.738C579.853 727.354 580.082 727.849 580.493 728.222C580.903 728.595 581.407 728.782 582.005 728.782C582.863 728.782 583.47 728.423 583.825 727.704L585.547 727.704C585.313 728.413 584.889 728.997 584.273 729.454C583.666 729.902 582.91 730.126 582.005 730.126C581.267 730.126 580.605 729.963 580.017 729.636C579.438 729.3 578.981 728.833 578.645 728.236C578.318 727.629 578.155 726.929 578.155 726.136C578.155 725.343 578.313 724.647 578.631 724.05C578.957 723.443 579.41 722.977 579.989 722.65C580.577 722.323 581.249 722.16 582.005 722.16C582.733 722.16 583.381 722.319 583.951 722.636C584.52 722.953 584.963 723.401 585.281 723.98C585.598 724.549 585.757 725.207 585.757 725.954ZM584.091 725.45C584.081 724.862 583.871 724.391 583.461 724.036C583.05 723.681 582.541 723.504 581.935 723.504C581.384 723.504 580.913 723.681 580.521 724.036C580.129 724.381 579.895 724.853 579.821 725.45L584.091 725.45ZM586.795 726.108C586.795 725.333 586.954 724.647 587.271 724.05C587.598 723.453 588.037 722.991 588.587 722.664C589.147 722.328 589.768 722.16 590.449 722.16C590.953 722.16 591.448 722.272 591.933 722.496C592.428 722.711 592.82 723 593.109 723.364L593.109 719.64L594.719 719.64L594.719 730L593.109 730L593.109 728.838C592.848 729.211 592.484 729.519 592.017 729.762C591.56 730.005 591.033 730.126 590.435 730.126C589.763 730.126 589.147 729.958 588.587 729.622C588.037 729.277 587.598 728.801 587.271 728.194C586.954 727.578 586.795 726.883 586.795 726.108ZM593.109 726.136C593.109 725.604 592.997 725.142 592.773 724.75C592.559 724.358 592.274 724.059 591.919 723.854C591.565 723.649 591.182 723.546 590.771 723.546C590.361 723.546 589.978 723.649 589.623 723.854C589.269 724.05 588.979 724.344 588.755 724.736C588.541 725.119 588.433 725.576 588.433 726.108C588.433 726.64 588.541 727.107 588.755 727.508C588.979 727.909 589.269 728.217 589.623 728.432C589.987 728.637 590.37 728.74 590.771 728.74C591.182 728.74 591.565 728.637 591.919 728.432C592.274 728.227 592.559 727.928 592.773 727.536C592.997 727.135 593.109 726.668 593.109 726.136Z" fill="white"/>
<circle cx="363" cy="725" r="6" fill="#FFC700"/>
<path d="M387.104 730L384.864 726.108L383.646 726.108L383.646 730L382.05 730L382.05 720.27L385.41 720.27C386.157 720.27 386.787 720.401 387.3 720.662C387.823 720.923 388.21 721.273 388.462 721.712C388.723 722.151 388.854 722.641 388.854 723.182C388.854 723.817 388.667 724.395 388.294 724.918C387.93 725.431 387.365 725.781 386.6 725.968L389.008 730L387.104 730ZM383.646 724.834L385.41 724.834C386.007 724.834 386.455 724.685 386.754 724.386C387.062 724.087 387.216 723.686 387.216 723.182C387.216 722.678 387.067 722.286 386.768 722.006C386.469 721.717 386.017 721.572 385.41 721.572L383.646 721.572L383.646 724.834ZM397.966 725.954C397.966 726.243 397.947 726.505 397.91 726.738L392.016 726.738C392.062 727.354 392.291 727.849 392.702 728.222C393.112 728.595 393.616 728.782 394.214 728.782C395.072 728.782 395.679 728.423 396.034 727.704L397.756 727.704C397.522 728.413 397.098 728.997 396.482 729.454C395.875 729.902 395.119 730.126 394.214 730.126C393.476 730.126 392.814 729.963 392.226 729.636C391.647 729.3 391.19 728.833 390.854 728.236C390.527 727.629 390.364 726.929 390.364 726.136C390.364 725.343 390.522 724.647 390.84 724.05C391.166 723.443 391.619 722.977 392.198 722.65C392.786 722.323 393.458 722.16 394.214 722.16C394.942 722.16 395.59 722.319 396.16 722.636C396.729 722.953 397.172 723.401 397.49 723.98C397.807 724.549 397.966 725.207 397.966 725.954ZM396.3 725.45C396.29 724.862 396.08 724.391 395.67 724.036C395.259 723.681 394.75 723.504 394.144 723.504C393.593 723.504 393.122 723.681 392.73 724.036C392.338 724.381 392.104 724.853 392.03 725.45L396.3 725.45ZM402.518 728.572L404.702 722.286L406.396 722.286L403.456 730L401.552 730L398.626 722.286L400.334 722.286L402.518 728.572ZM414.673 725.954C414.673 726.243 414.654 726.505 414.617 726.738L408.723 726.738C408.769 727.354 408.998 727.849 409.409 728.222C409.819 728.595 410.323 728.782 410.921 728.782C411.779 728.782 412.386 728.423 412.741 727.704L414.463 727.704C414.229 728.413 413.805 728.997 413.189 729.454C412.582 729.902 411.826 730.126 410.921 730.126C410.183 730.126 409.521 729.963 408.933 729.636C408.354 729.3 407.897 728.833 407.561 728.236C407.234 727.629 407.071 726.929 407.071 726.136C407.071 725.343 407.229 724.647 407.547 724.05C407.873 723.443 408.326 722.977 408.905 722.65C409.493 722.323 410.165 722.16 410.921 722.16C411.649 722.16 412.297 722.319 412.867 722.636C413.436 722.953 413.879 723.401 414.197 723.98C414.514 724.549 414.673 725.207 414.673 725.954ZM413.007 725.45C412.997 724.862 412.787 724.391 412.377 724.036C411.966 723.681 411.457 723.504 410.851 723.504C410.3 723.504 409.829 723.681 409.437 724.036C409.045 724.381 408.811 724.853 408.737 725.45L413.007 725.45ZM420.135 722.16C420.742 722.16 421.283 722.286 421.759 722.538C422.245 722.79 422.623 723.163 422.893 723.658C423.164 724.153 423.299 724.75 423.299 725.45L423.299 730L421.717 730L421.717 725.688C421.717 724.997 421.545 724.47 421.199 724.106C420.854 723.733 420.383 723.546 419.785 723.546C419.188 723.546 418.712 723.733 418.357 724.106C418.012 724.47 417.839 724.997 417.839 725.688L417.839 730L416.243 730L416.243 722.286L417.839 722.286L417.839 723.168C418.101 722.851 418.432 722.603 418.833 722.426C419.244 722.249 419.678 722.16 420.135 722.16ZM432.321 722.286L432.321 730L430.725 730L430.725 729.09C430.473 729.407 430.142 729.659 429.731 729.846C429.33 730.023 428.9 730.112 428.443 730.112C427.836 730.112 427.29 729.986 426.805 729.734C426.329 729.482 425.951 729.109 425.671 728.614C425.4 728.119 425.265 727.522 425.265 726.822L425.265 722.286L426.847 722.286L426.847 726.584C426.847 727.275 427.02 727.807 427.365 728.18C427.71 728.544 428.182 728.726 428.779 728.726C429.376 728.726 429.848 728.544 430.193 728.18C430.548 727.807 430.725 727.275 430.725 726.584L430.725 722.286L432.321 722.286ZM441.497 725.954C441.497 726.243 441.478 726.505 441.441 726.738L435.547 726.738C435.594 727.354 435.822 727.849 436.233 728.222C436.644 728.595 437.148 728.782 437.745 728.782C438.604 728.782 439.21 728.423 439.565 727.704L441.287 727.704C441.054 728.413 440.629 728.997 440.013 729.454C439.406 729.902 438.65 730.126 437.745 730.126C437.008 730.126 436.345 729.963 435.757 729.636C435.178 729.3 434.721 728.833 434.385 728.236C434.058 727.629 433.895 726.929 433.895 726.136C433.895 725.343 434.054 724.647 434.371 724.05C434.698 723.443 435.15 722.977 435.729 722.65C436.317 722.323 436.989 722.16 437.745 722.16C438.473 722.16 439.122 722.319 439.691 722.636C440.26 722.953 440.704 723.401 441.021 723.98C441.338 724.549 441.497 725.207 441.497 725.954ZM439.831 725.45C439.822 724.862 439.612 724.391 439.201 724.036C438.79 723.681 438.282 723.504 437.675 723.504C437.124 723.504 436.653 723.681 436.261 724.036C435.869 724.381 435.636 724.853 435.561 725.45L439.831 725.45Z" fill="white"/>
<circle cx="270" cy="725" r="6" fill="#FF00FB"/>
<path d="M290.632 720.27L290.632 726.472C290.632 727.209 290.823 727.765 291.206 728.138C291.598 728.511 292.139 728.698 292.83 728.698C293.53 728.698 294.071 728.511 294.454 728.138C294.846 727.765 295.042 727.209 295.042 726.472L295.042 720.27L296.638 720.27L296.638 726.444C296.638 727.237 296.465 727.909 296.12 728.46C295.775 729.011 295.313 729.421 294.734 729.692C294.155 729.963 293.516 730.098 292.816 730.098C292.116 730.098 291.477 729.963 290.898 729.692C290.329 729.421 289.876 729.011 289.54 728.46C289.204 727.909 289.036 727.237 289.036 726.444L289.036 720.27L290.632 720.27ZM301.516 730.126C300.909 730.126 300.363 730.019 299.878 729.804C299.402 729.58 299.024 729.281 298.744 728.908C298.464 728.525 298.315 728.101 298.296 727.634L299.948 727.634C299.976 727.961 300.13 728.236 300.41 728.46C300.699 728.675 301.059 728.782 301.488 728.782C301.936 728.782 302.281 728.698 302.524 728.53C302.776 728.353 302.902 728.129 302.902 727.858C302.902 727.569 302.762 727.354 302.482 727.214C302.211 727.074 301.777 726.92 301.18 726.752C300.601 726.593 300.13 726.439 299.766 726.29C299.402 726.141 299.085 725.912 298.814 725.604C298.553 725.296 298.422 724.89 298.422 724.386C298.422 723.975 298.543 723.602 298.786 723.266C299.029 722.921 299.374 722.65 299.822 722.454C300.279 722.258 300.802 722.16 301.39 722.16C302.267 722.16 302.972 722.384 303.504 722.832C304.045 723.271 304.335 723.873 304.372 724.638L302.776 724.638C302.748 724.293 302.608 724.017 302.356 723.812C302.104 723.607 301.763 723.504 301.334 723.504C300.914 723.504 300.592 723.583 300.368 723.742C300.144 723.901 300.032 724.111 300.032 724.372C300.032 724.577 300.107 724.75 300.256 724.89C300.405 725.03 300.587 725.142 300.802 725.226C301.017 725.301 301.334 725.399 301.754 725.52C302.314 725.669 302.771 725.823 303.126 725.982C303.49 726.131 303.803 726.355 304.064 726.654C304.325 726.953 304.461 727.349 304.47 727.844C304.47 728.283 304.349 728.675 304.106 729.02C303.863 729.365 303.518 729.636 303.07 729.832C302.631 730.028 302.113 730.126 301.516 730.126ZM313.265 725.954C313.265 726.243 313.246 726.505 313.209 726.738L307.315 726.738C307.361 727.354 307.59 727.849 308.001 728.222C308.411 728.595 308.915 728.782 309.513 728.782C310.371 728.782 310.978 728.423 311.333 727.704L313.055 727.704C312.821 728.413 312.397 728.997 311.781 729.454C311.174 729.902 310.418 730.126 309.513 730.126C308.775 730.126 308.113 729.963 307.525 729.636C306.946 729.3 306.489 728.833 306.153 728.236C305.826 727.629 305.663 726.929 305.663 726.136C305.663 725.343 305.821 724.647 306.139 724.05C306.465 723.443 306.918 722.977 307.497 722.65C308.085 722.323 308.757 722.16 309.513 722.16C310.241 722.16 310.889 722.319 311.459 722.636C312.028 722.953 312.471 723.401 312.789 723.98C313.106 724.549 313.265 725.207 313.265 725.954ZM311.599 725.45C311.589 724.862 311.379 724.391 310.969 724.036C310.558 723.681 310.049 723.504 309.443 723.504C308.892 723.504 308.421 723.681 308.029 724.036C307.637 724.381 307.403 724.853 307.329 725.45L311.599 725.45ZM316.431 723.406C316.664 723.014 316.972 722.711 317.355 722.496C317.747 722.272 318.209 722.16 318.741 722.16L318.741 723.812L318.335 723.812C317.71 723.812 317.234 723.971 316.907 724.288C316.59 724.605 316.431 725.156 316.431 725.94L316.431 730L314.835 730L314.835 722.286L316.431 722.286L316.431 723.406ZM323.008 730.126C322.402 730.126 321.856 730.019 321.37 729.804C320.894 729.58 320.516 729.281 320.236 728.908C319.956 728.525 319.807 728.101 319.788 727.634L321.44 727.634C321.468 727.961 321.622 728.236 321.902 728.46C322.192 728.675 322.551 728.782 322.98 728.782C323.428 728.782 323.774 728.698 324.016 728.53C324.268 728.353 324.394 728.129 324.394 727.858C324.394 727.569 324.254 727.354 323.974 727.214C323.704 727.074 323.27 726.92 322.672 726.752C322.094 726.593 321.622 726.439 321.258 726.29C320.894 726.141 320.577 725.912 320.306 725.604C320.045 725.296 319.914 724.89 319.914 724.386C319.914 723.975 320.036 723.602 320.278 723.266C320.521 722.921 320.866 722.65 321.314 722.454C321.772 722.258 322.294 722.16 322.882 722.16C323.76 722.16 324.464 722.384 324.996 722.832C325.538 723.271 325.827 723.873 325.864 724.638L324.268 724.638C324.24 724.293 324.1 724.017 323.848 723.812C323.596 723.607 323.256 723.504 322.826 723.504C322.406 723.504 322.084 723.583 321.86 723.742C321.636 723.901 321.524 724.111 321.524 724.372C321.524 724.577 321.599 724.75 321.748 724.89C321.898 725.03 322.08 725.142 322.294 725.226C322.509 725.301 322.826 725.399 323.246 725.52C323.806 725.669 324.264 725.823 324.618 725.982C324.982 726.131 325.295 726.355 325.556 726.654C325.818 726.953 325.953 727.349 325.962 727.844C325.962 728.283 325.841 728.675 325.598 729.02C325.356 729.365 325.01 729.636 324.562 729.832C324.124 730.028 323.606 730.126 323.008 730.126Z" fill="white"/>
<path d="M341.328 62.208C342.864 60.928 344.088 59.864 345 59.016C345.912 58.152 346.672 57.256 347.28 56.328C347.888 55.4 348.192 54.488 348.192 53.592C348.192 52.776 348 52.136 347.616 51.672C347.232 51.208 346.64 50.976 345.84 50.976C345.04 50.976 344.424 51.248 343.992 51.792C343.56 52.32 343.336 53.048 343.32 53.976H340.056C340.12 52.056 340.688 50.6 341.76 49.608C342.848 48.616 344.224 48.12 345.888 48.12C347.712 48.12 349.112 48.608 350.088 49.584C351.064 50.544 351.552 51.816 351.552 53.4C351.552 54.648 351.216 55.84 350.544 56.976C349.872 58.112 349.104 59.104 348.24 59.952C347.376 60.784 346.248 61.792 344.856 62.976H351.936V65.76H340.08V63.264L341.328 62.208ZM356.453 57.024C356.453 54.256 356.949 52.088 357.941 50.52C358.949 48.952 360.613 48.168 362.933 48.168C365.253 48.168 366.909 48.952 367.901 50.52C368.909 52.088 369.413 54.256 369.413 57.024C369.413 59.808 368.909 61.992 367.901 63.576C366.909 65.16 365.253 65.952 362.933 65.952C360.613 65.952 358.949 65.16 357.941 63.576C356.949 61.992 356.453 59.808 356.453 57.024ZM366.101 57.024C366.101 55.84 366.021 54.848 365.861 54.048C365.717 53.232 365.413 52.568 364.949 52.056C364.501 51.544 363.829 51.288 362.933 51.288C362.037 51.288 361.357 51.544 360.893 52.056C360.445 52.568 360.141 53.232 359.981 54.048C359.837 54.848 359.765 55.84 359.765 57.024C359.765 58.24 359.837 59.264 359.981 60.096C360.125 60.912 360.429 61.576 360.893 62.088C361.357 62.584 362.037 62.832 362.933 62.832C363.829 62.832 364.509 62.584 364.973 62.088C365.437 61.576 365.741 60.912 365.885 60.096C366.029 59.264 366.101 58.24 366.101 57.024ZM375.425 62.208C376.961 60.928 378.185 59.864 379.097 59.016C380.009 58.152 380.769 57.256 381.377 56.328C381.985 55.4 382.289 54.488 382.289 53.592C382.289 52.776 382.097 52.136 381.713 51.672C381.329 51.208 380.737 50.976 379.937 50.976C379.137 50.976 378.521 51.248 378.089 51.792C377.657 52.32 377.433 53.048 377.417 53.976H374.153C374.217 52.056 374.785 50.6 375.857 49.608C376.945 48.616 378.321 48.12 379.985 48.12C381.809 48.12 383.209 48.608 384.185 49.584C385.161 50.544 385.649 51.816 385.649 53.4C385.649 54.648 385.313 55.84 384.641 56.976C383.969 58.112 383.201 59.104 382.337 59.952C381.473 60.784 380.345 61.792 378.953 62.976H386.033V65.76H374.177V63.264L375.425 62.208ZM390.598 53.112C390.678 51.512 391.238 50.28 392.278 49.416C393.334 48.536 394.718 48.096 396.43 48.096C397.598 48.096 398.598 48.304 399.43 48.72C400.262 49.12 400.886 49.672 401.302 50.376C401.734 51.064 401.95 51.848 401.95 52.728C401.95 53.736 401.686 54.592 401.158 55.296C400.646 55.984 400.03 56.448 399.31 56.688V56.784C400.238 57.072 400.958 57.584 401.47 58.32C401.998 59.056 402.262 60 402.262 61.152C402.262 62.112 402.038 62.968 401.59 63.72C401.158 64.472 400.51 65.064 399.646 65.496C398.798 65.912 397.774 66.12 396.574 66.12C394.766 66.12 393.294 65.664 392.158 64.752C391.022 63.84 390.422 62.496 390.358 60.72H393.622C393.654 61.504 393.918 62.136 394.414 62.616C394.926 63.08 395.622 63.312 396.502 63.312C397.318 63.312 397.942 63.088 398.374 62.64C398.822 62.176 399.046 61.584 399.046 60.864C399.046 59.904 398.742 59.216 398.134 58.8C397.526 58.384 396.582 58.176 395.302 58.176H394.606V55.416H395.302C397.574 55.416 398.71 54.656 398.71 53.136C398.71 52.448 398.502 51.912 398.086 51.528C397.686 51.144 397.102 50.952 396.334 50.952C395.582 50.952 394.998 51.16 394.582 51.576C394.182 51.976 393.95 52.488 393.886 53.112H390.598ZM424.46 66L420.764 59.472H419.18V66H415.82V49.248H422.108C423.404 49.248 424.508 49.48 425.42 49.944C426.332 50.392 427.012 51.008 427.46 51.792C427.924 52.56 428.156 53.424 428.156 54.384C428.156 55.488 427.836 56.488 427.196 57.384C426.556 58.264 425.604 58.872 424.34 59.208L428.348 66H424.46ZM419.18 56.952H421.988C422.9 56.952 423.58 56.736 424.028 56.304C424.476 55.856 424.7 55.24 424.7 54.456C424.7 53.688 424.476 53.096 424.028 52.68C423.58 52.248 422.9 52.032 421.988 52.032H419.18V56.952ZM436.955 51.96V56.16H442.595V58.824H436.955V63.264H443.315V66H433.595V49.224H443.315V51.96H436.955ZM471.161 49.248L466.481 66H462.521L459.377 54.072L456.089 66L452.153 66.024L447.641 49.248H451.241L454.193 62.256L457.601 49.248H461.345L464.561 62.184L467.537 49.248H471.161ZM479.114 49.248V66H475.754V49.248H479.114ZM499.162 66H495.802L488.194 54.504V66H484.834V49.224L488.194 49.224L495.802 60.744V49.224H499.162V66ZM510.739 49.248C512.499 49.248 514.043 49.592 515.371 50.28C516.715 50.968 517.747 51.952 518.467 53.232C519.203 54.496 519.571 55.968 519.571 57.648C519.571 59.328 519.203 60.8 518.467 62.064C517.747 63.312 516.715 64.28 515.371 64.968C514.043 65.656 512.499 66 510.739 66H504.883V49.248H510.739ZM510.619 63.144C512.379 63.144 513.739 62.664 514.699 61.704C515.659 60.744 516.139 59.392 516.139 57.648C516.139 55.904 515.659 54.544 514.699 53.568C513.739 52.576 512.379 52.08 510.619 52.08H508.243V63.144H510.619Z" fill="white"/>
<path d="M191.822 581.527L111 612.273V616H829V159L753.19 196.268L672.995 218.629L592.799 240.524L512.604 257.76L431.782 285.712L352.213 359.782L272.644 452.486L191.822 581.527Z" fill="url(#paint0_linear_222_21035)"/>
<path d="M191.822 493L111 616H829V243.5L753.19 272.5L672.995 298L592.799 326L512.604 342.683L432.408 359L352.213 400.5L272.017 435L191.822 493Z" fill="url(#paint1_linear_222_21035)"/>
<path d="M191.822 603.904L111 616H829V422L753.19 433.631L672.995 444.796L592.799 458.288L512.604 475.966L432.408 515.046L352.213 564.36L272.017 586.691L191.822 603.904Z" fill="url(#paint2_linear_222_21035)"/>
<g opacity="0.5">
<path d="M99.5919 632.054L104.457 640.481L103.075 641.279L99.7427 635.508L100.504 642.763L99.5466 643.316L93.6321 639.036L96.9641 644.807L95.5819 645.605L90.7169 637.178L92.2082 636.317L98.9815 641.217L98.1128 632.908L99.5919 632.054ZM103.867 636.327C103.48 635.656 103.274 634.983 103.25 634.307C103.234 633.626 103.383 633.007 103.697 632.449C104.014 631.878 104.463 631.424 105.045 631.088C105.571 630.785 106.088 630.626 106.597 630.613C107.11 630.586 107.572 630.659 107.984 630.83L107.424 629.86L108.818 629.055L112.675 635.736L111.281 636.541L110.707 635.547C110.655 635.997 110.487 636.444 110.204 636.888C109.921 637.331 109.521 637.702 109.004 638.001C108.43 638.332 107.821 638.49 107.176 638.475C106.526 638.451 105.908 638.258 105.322 637.896C104.739 637.521 104.254 636.998 103.867 636.327ZM109.349 633.195C109.083 632.734 108.755 632.39 108.365 632.162C107.983 631.93 107.587 631.814 107.177 631.813C106.768 631.813 106.385 631.915 106.029 632.121C105.674 632.326 105.393 632.606 105.189 632.961C104.98 633.308 104.876 633.708 104.878 634.159C104.884 634.598 105.019 635.048 105.285 635.508C105.551 635.969 105.878 636.32 106.264 636.56C106.659 636.795 107.064 636.917 107.478 636.926C107.896 636.922 108.279 636.819 108.626 636.619C108.982 636.413 109.262 636.133 109.466 635.778C109.671 635.423 109.768 635.022 109.758 634.575C109.751 634.115 109.615 633.655 109.349 633.195ZM112.576 628.179C112.582 627.723 112.697 627.306 112.921 626.929C113.149 626.539 113.493 626.211 113.953 625.945L114.779 627.376L114.428 627.579C113.886 627.892 113.553 628.267 113.429 628.705C113.313 629.139 113.451 629.695 113.843 630.374L115.873 633.89L114.491 634.688L110.634 628.007L112.016 627.209L112.576 628.179Z" fill="white"/>
<path d="M179.556 638.158L176.028 640.195L176.416 642.267L174.973 643.1L173.12 632.918L174.721 631.994L182.612 638.69L181.157 639.53L179.556 638.158ZM178.517 637.255L174.886 634.129L175.765 638.844L178.517 637.255ZM182.016 631.435C182.073 630.993 182.243 630.55 182.526 630.107C182.809 629.663 183.205 629.294 183.714 629C184.296 628.664 184.91 628.504 185.555 628.52C186.203 628.523 186.814 628.703 187.387 629.062C187.961 629.421 188.441 629.935 188.828 630.606C189.216 631.277 189.426 631.959 189.459 632.651C189.488 633.335 189.346 633.967 189.034 634.546C188.725 635.112 188.279 635.563 187.697 635.899C187.188 636.193 186.677 636.353 186.164 636.38C185.647 636.398 185.174 636.326 184.746 636.164L187.14 640.311L185.758 641.109L180.067 631.251L181.449 630.453L182.016 631.435ZM187.422 631.418C187.156 630.958 186.83 630.618 186.445 630.398C186.063 630.166 185.666 630.056 185.252 630.068C184.843 630.068 184.46 630.17 184.104 630.376C183.757 630.576 183.477 630.857 183.264 631.216C183.059 631.572 182.958 631.975 182.96 632.426C182.97 632.873 183.108 633.327 183.374 633.788C183.64 634.248 183.967 634.599 184.353 634.839C184.743 635.067 185.143 635.181 185.553 635.181C185.971 635.177 186.354 635.074 186.701 634.874C187.057 634.668 187.337 634.388 187.541 634.033C187.749 633.665 187.846 633.254 187.831 632.799C187.824 632.339 187.688 631.879 187.422 631.418ZM190.227 626.679C190.233 626.223 190.348 625.806 190.572 625.429C190.799 625.039 191.143 624.711 191.604 624.445L192.43 625.876L192.078 626.079C191.537 626.392 191.204 626.767 191.08 627.205C190.964 627.639 191.102 628.195 191.494 628.874L193.524 632.39L192.141 633.188L188.284 626.507L189.667 625.709L190.227 626.679Z" fill="white"/>
<path d="M256.82 632.442L261.685 640.868L260.303 641.666L256.971 635.895L257.732 643.15L256.774 643.703L250.86 639.423L254.192 645.194L252.81 645.992L247.945 637.566L249.436 636.705L256.209 641.605L255.341 633.296L256.82 632.442ZM261.095 636.715C260.707 636.044 260.502 635.371 260.478 634.695C260.462 634.014 260.611 633.395 260.925 632.836C261.242 632.265 261.691 631.812 262.273 631.476C262.798 631.173 263.316 631.014 263.825 631C264.338 630.974 264.8 631.046 265.212 631.218L264.652 630.248L266.046 629.443L269.903 636.124L268.509 636.929L267.935 635.934C267.882 636.385 267.715 636.832 267.432 637.276C267.149 637.719 266.749 638.09 266.232 638.389C265.658 638.72 265.049 638.878 264.404 638.862C263.754 638.839 263.136 638.646 262.55 638.284C261.967 637.909 261.482 637.386 261.095 636.715ZM266.577 633.582C266.311 633.122 265.983 632.777 265.593 632.55C265.211 632.318 264.815 632.202 264.405 632.201C263.995 632.201 263.613 632.303 263.257 632.508C262.901 632.714 262.621 632.994 262.417 633.349C262.208 633.696 262.104 634.095 262.106 634.547C262.112 634.986 262.247 635.435 262.513 635.896C262.779 636.357 263.106 636.707 263.492 636.948C263.887 637.183 264.291 637.305 264.706 637.314C265.124 637.31 265.506 637.207 265.854 637.006C266.21 636.801 266.49 636.521 266.694 636.166C266.899 635.811 266.996 635.41 266.986 634.963C266.979 634.503 266.843 634.043 266.577 633.582ZM273.875 624.923L275.447 637.11L274.017 637.936L273.498 633.902L267.073 628.85L268.613 627.961L273.433 631.968L272.445 625.749L273.875 624.923Z" fill="white"/>
<path d="M335.297 632.465L338.804 638.539C339.238 639.291 339.351 640.018 339.142 640.72C338.941 641.418 338.469 641.982 337.726 642.411C336.982 642.84 336.254 642.97 335.541 642.799C334.836 642.624 334.267 642.161 333.833 641.409L335.227 640.604C335.45 640.971 335.713 641.213 336.017 641.328C336.329 641.439 336.663 641.392 337.019 641.187C337.374 640.981 337.582 640.716 337.642 640.39C337.697 640.057 337.62 639.708 337.41 639.344L333.903 633.27L335.297 632.465ZM344.604 629.42L348.461 636.1L347.078 636.898L346.623 636.11C346.564 636.511 346.403 636.895 346.141 637.262C345.882 637.616 345.554 637.907 345.158 638.136C344.633 638.439 344.097 638.603 343.551 638.628C343.012 638.647 342.498 638.513 342.009 638.225C341.527 637.932 341.111 637.482 340.761 636.876L338.493 632.948L339.863 632.157L342.012 635.879C342.357 636.477 342.773 636.851 343.259 637.002C343.74 637.144 344.239 637.066 344.756 636.768C345.273 636.469 345.591 636.076 345.708 635.588C345.828 635.087 345.716 634.538 345.37 633.94L343.221 630.218L344.604 629.42ZM349.735 626.312C350.26 626.008 350.792 625.847 351.33 625.827C351.877 625.802 352.391 625.937 352.872 626.23C353.354 626.523 353.77 626.973 354.12 627.579L356.395 631.519L355.025 632.31L352.869 628.576C352.524 627.978 352.11 627.607 351.629 627.465C351.144 627.314 350.642 627.388 350.125 627.687C349.607 627.986 349.289 628.385 349.168 628.886C349.051 629.374 349.165 629.917 349.51 630.515L351.666 634.249L350.284 635.047L346.427 628.367L347.809 627.569L348.25 628.332C348.318 627.927 348.481 627.547 348.74 627.193C349.007 626.834 349.339 626.54 349.735 626.312Z" fill="white"/>
<path d="M417.625 629.765L421.132 635.839C421.566 636.591 421.678 637.318 421.469 638.02C421.269 638.718 420.797 639.282 420.053 639.711C419.309 640.14 418.581 640.27 417.869 640.099C417.164 639.924 416.595 639.461 416.161 638.709L417.555 637.904C417.778 638.271 418.041 638.512 418.345 638.628C418.657 638.739 418.99 638.692 419.346 638.486C419.702 638.281 419.909 638.016 419.969 637.69C420.025 637.356 419.947 637.008 419.737 636.644L416.23 630.57L417.625 629.765ZM426.931 626.719L430.788 633.4L429.406 634.198L428.951 633.41C428.891 633.811 428.73 634.195 428.468 634.562C428.209 634.916 427.882 635.207 427.486 635.436C426.96 635.739 426.424 635.903 425.878 635.928C425.34 635.947 424.826 635.813 424.336 635.525C423.854 635.232 423.438 634.782 423.088 634.176L420.82 630.247L422.19 629.456L424.339 633.179C424.685 633.777 425.1 634.151 425.586 634.302C426.067 634.444 426.566 634.366 427.084 634.068C427.601 633.769 427.918 633.376 428.035 632.888C428.156 632.387 428.043 631.838 427.698 631.24L425.549 627.517L426.931 626.719ZM428.814 622.577L433.994 631.549L432.612 632.347L427.432 623.375L428.814 622.577Z" fill="white"/>
<path d="M496.465 641.018L492.937 643.055L493.324 645.126L491.882 645.959L490.029 635.778L491.629 634.854L499.52 641.549L498.065 642.389L496.465 641.018ZM495.426 640.114L491.795 636.989L492.674 641.703L495.426 640.114ZM503.026 630.618L506.883 637.298L505.5 638.096L505.045 637.308C504.986 637.709 504.825 638.093 504.563 638.46C504.304 638.814 503.976 639.106 503.58 639.334C503.055 639.638 502.519 639.802 501.973 639.826C501.434 639.846 500.92 639.711 500.431 639.423C499.949 639.13 499.533 638.68 499.183 638.074L496.915 634.146L498.285 633.355L500.434 637.077C500.779 637.675 501.195 638.05 501.681 638.2C502.162 638.343 502.661 638.265 503.178 637.966C503.695 637.667 504.013 637.274 504.13 636.786C504.25 636.286 504.138 635.736 503.792 635.138L501.643 631.416L503.026 630.618ZM507.478 627.902C507.995 627.603 508.513 627.445 509.03 627.426C509.551 627.395 510.013 627.467 510.417 627.644L509.857 626.674L511.251 625.869L515.171 632.659C515.526 633.273 515.711 633.893 515.728 634.519C515.749 635.154 515.593 635.751 515.258 636.31C514.932 636.865 514.429 637.338 513.75 637.73C512.845 638.253 511.97 638.473 511.124 638.39C510.284 638.315 509.613 637.937 509.112 637.256L510.482 636.465C510.788 636.752 511.171 636.902 511.632 636.917C512.105 636.934 512.581 636.805 513.057 636.53C513.615 636.208 513.966 635.779 514.109 635.244C514.261 634.704 514.15 634.11 513.777 633.464L513.133 632.348C513.08 632.799 512.915 633.25 512.637 633.701C512.362 634.14 511.97 634.507 511.461 634.801C510.879 635.137 510.261 635.299 509.608 635.288C508.959 635.264 508.341 635.071 507.755 634.709C507.172 634.335 506.687 633.812 506.3 633.141C505.912 632.47 505.707 631.797 505.683 631.121C505.667 630.44 505.816 629.82 506.129 629.262C506.446 628.691 506.896 628.238 507.478 627.902ZM511.782 630.008C511.516 629.547 511.188 629.203 510.798 628.976C510.416 628.744 510.02 628.627 509.61 628.627C509.2 628.626 508.818 628.729 508.462 628.934C508.106 629.139 507.826 629.42 507.622 629.775C507.413 630.122 507.309 630.521 507.311 630.973C507.316 631.411 507.452 631.861 507.718 632.322C507.984 632.783 508.31 633.133 508.697 633.373C509.092 633.609 509.496 633.731 509.911 633.739C510.329 633.735 510.711 633.633 511.059 633.432C511.415 633.227 511.695 632.947 511.899 632.591C512.104 632.236 512.201 631.835 512.191 631.389C512.184 630.929 512.048 630.469 511.782 630.008Z" fill="white"/>
<path d="M576.114 646.272C575.548 646.599 574.983 646.796 574.419 646.863C573.849 646.922 573.33 646.845 572.862 646.631C572.393 646.416 572.019 646.066 571.739 645.581L573.218 644.727C573.46 645.073 573.774 645.29 574.16 645.38C574.554 645.465 574.981 645.374 575.442 645.108C575.919 644.833 576.226 644.505 576.362 644.125C576.493 643.736 576.454 643.36 576.244 642.997C576.08 642.714 575.863 642.532 575.59 642.453C575.326 642.368 575.04 642.35 574.734 642.397C574.435 642.44 574.035 642.531 573.533 642.67C572.9 642.842 572.367 642.955 571.936 643.011C571.507 643.053 571.081 642.987 570.657 642.811C570.232 642.636 569.868 642.286 569.565 641.76C569.285 641.275 569.161 640.781 569.194 640.277C569.226 639.774 569.405 639.299 569.729 638.853C570.054 638.407 570.503 638.018 571.077 637.687C571.893 637.215 572.679 637.037 573.434 637.15C574.193 637.251 574.806 637.641 575.273 638.319L573.745 639.201C573.544 638.908 573.247 638.729 572.854 638.665C572.461 638.601 572.047 638.695 571.61 638.947C571.214 639.176 570.949 639.463 570.815 639.81C570.681 640.157 570.724 640.52 570.943 640.9C571.093 641.159 571.293 641.328 571.545 641.41C571.8 641.478 572.076 641.49 572.375 641.447C572.673 641.404 573.065 641.318 573.551 641.189C574.197 641.02 574.739 640.913 575.175 640.865C575.619 640.814 576.056 640.879 576.485 641.063C576.918 641.233 577.288 641.585 577.596 642.119C577.843 642.547 577.96 643.019 577.944 643.534C577.937 644.045 577.779 644.546 577.47 645.037C577.164 645.515 576.712 645.927 576.114 646.272ZM584.706 636.527C584.85 636.777 584.965 637.013 585.049 637.234L579.945 640.181C580.293 640.691 580.739 641.005 581.281 641.123C581.823 641.241 582.353 641.151 582.87 640.852C583.614 640.423 583.96 639.808 583.908 639.008L585.399 638.147C585.551 638.878 585.475 639.596 585.171 640.3C584.869 640.991 584.326 641.563 583.542 642.016C582.904 642.385 582.248 642.574 581.576 642.585C580.907 642.584 580.277 642.408 579.688 642.059C579.101 641.697 578.61 641.172 578.213 640.485C577.817 639.798 577.606 639.117 577.582 638.441C577.562 637.752 577.721 637.122 578.059 636.549C578.404 635.973 578.905 635.495 579.559 635.117C580.19 634.753 580.831 634.566 581.483 634.556C582.134 634.546 582.742 634.713 583.307 635.055C583.866 635.39 584.332 635.88 584.706 636.527ZM583.011 636.923C582.709 636.419 582.291 636.116 581.758 636.014C581.225 635.912 580.696 636.013 580.171 636.316C579.694 636.591 579.374 636.981 579.212 637.484C579.045 637.979 579.079 638.504 579.313 639.058L583.011 636.923ZM586.181 632.749C586.238 632.306 586.408 631.864 586.691 631.42C586.974 630.977 587.37 630.608 587.879 630.314C588.461 629.978 589.074 629.818 589.719 629.833C590.368 629.836 590.979 630.017 591.552 630.376C592.125 630.734 592.606 631.249 592.993 631.92C593.381 632.591 593.591 633.272 593.624 633.964C593.653 634.648 593.511 635.28 593.198 635.859C592.889 636.425 592.444 636.877 591.862 637.213C591.353 637.507 590.842 637.667 590.329 637.693C589.812 637.712 589.339 637.64 588.911 637.477L591.305 641.624L589.923 642.422L584.232 632.565L585.614 631.767L586.181 632.749ZM591.587 632.732C591.321 632.271 590.995 631.931 590.61 631.712C590.228 631.48 589.83 631.37 589.417 631.382C589.007 631.381 588.625 631.484 588.269 631.689C587.921 631.89 587.641 632.17 587.429 632.53C587.224 632.885 587.123 633.288 587.125 633.74C587.135 634.187 587.273 634.64 587.539 635.101C587.805 635.562 588.131 635.912 588.518 636.153C588.908 636.38 589.308 636.494 589.718 636.494C590.136 636.49 590.518 636.388 590.866 636.187C591.222 635.982 591.502 635.702 591.706 635.346C591.914 634.979 592.011 634.567 591.996 634.112C591.989 633.653 591.853 633.193 591.587 632.732Z" fill="white"/>
<path d="M656.56 642.658C655.776 643.111 654.948 643.347 654.075 643.366C653.206 643.372 652.388 643.159 651.622 642.729C650.86 642.285 650.24 641.651 649.764 640.827C649.288 640.002 649.051 639.153 649.053 638.279C649.063 637.4 649.29 636.59 649.735 635.848C650.183 635.094 650.799 634.49 651.583 634.038C652.376 633.58 653.206 633.349 654.076 633.342C654.949 633.324 655.764 633.532 656.522 633.967C657.28 634.403 657.897 635.032 658.373 635.857C658.849 636.681 659.088 637.535 659.091 638.417C659.089 639.291 658.864 640.105 658.416 640.86C657.971 641.601 657.353 642.201 656.56 642.658ZM655.867 641.458C656.425 641.136 656.85 640.724 657.142 640.221C657.429 639.71 657.558 639.151 657.53 638.542C657.505 637.92 657.313 637.298 656.954 636.676C656.595 636.054 656.154 635.58 655.633 635.256C655.12 634.927 654.573 634.764 653.992 634.765C653.411 634.766 652.841 634.928 652.283 635.25C651.726 635.572 651.301 635.984 651.009 636.487C650.717 636.99 650.581 637.548 650.602 638.161C650.63 638.77 650.824 639.386 651.183 640.008C651.542 640.63 651.981 641.11 652.499 641.447C653.02 641.771 653.573 641.936 654.159 641.943C654.74 641.942 655.31 641.78 655.867 641.458ZM659.783 636.223C659.386 635.536 659.176 634.854 659.152 634.178C659.132 633.489 659.286 632.861 659.616 632.294C659.946 631.726 660.43 631.258 661.069 630.889C661.877 630.423 662.656 630.232 663.405 630.316C664.158 630.388 664.833 630.726 665.429 631.33L663.938 632.191C663.625 631.93 663.282 631.783 662.908 631.751C662.534 631.719 662.145 631.82 661.741 632.053C661.175 632.38 660.839 632.843 660.733 633.444C660.63 634.031 660.786 634.684 661.202 635.404C661.617 636.123 662.107 636.589 662.672 636.802C663.244 637.01 663.814 636.951 664.38 636.624C665.18 636.162 665.506 635.505 665.359 634.652L666.85 633.791C667.048 634.582 666.997 635.334 666.697 636.046C666.392 636.75 665.844 637.331 665.052 637.788C664.413 638.157 663.766 638.342 663.109 638.344C662.448 638.337 661.827 638.157 661.245 637.803C660.667 637.437 660.18 636.91 659.783 636.223ZM667.852 628.622L669.987 632.32C670.132 632.57 670.293 632.72 670.472 632.767C670.654 632.802 670.886 632.738 671.169 632.575L672.018 632.085L672.683 633.237L671.592 633.867C670.969 634.226 670.408 634.356 669.909 634.256C669.41 634.157 668.971 633.779 668.593 633.125L666.458 629.427L665.67 629.882L665.019 628.754L665.807 628.299L664.848 626.638L666.242 625.833L667.201 627.494L668.826 626.556L669.477 627.684L667.852 628.622Z" fill="white"/>
<path d="M737.673 644.546L736.291 645.344L728.499 641.453L732.132 647.745L730.75 648.543L725.878 640.105L727.26 639.307L735.045 643.186L731.419 636.906L732.801 636.108L737.673 644.546ZM742.449 641.934C741.818 642.298 741.167 642.486 740.494 642.497C739.817 642.5 739.184 642.327 738.594 641.978C738 641.62 737.504 641.098 737.107 640.411C736.715 639.732 736.517 639.044 736.513 638.345C736.509 637.647 736.684 637.008 737.038 636.426C737.392 635.844 737.888 635.369 738.526 635.001C739.165 634.632 739.825 634.44 740.505 634.424C741.186 634.408 741.827 634.577 742.43 634.929C743.032 635.282 743.529 635.798 743.921 636.477C744.313 637.156 744.507 637.847 744.504 638.55C744.5 639.252 744.315 639.903 743.95 640.502C743.588 641.088 743.087 641.566 742.449 641.934ZM741.756 640.734C742.111 640.529 742.394 640.253 742.603 639.906C742.82 639.554 742.928 639.152 742.926 638.701C742.924 638.249 742.783 637.781 742.503 637.296C742.223 636.811 741.894 636.457 741.517 636.232C741.135 636 740.741 635.888 740.336 635.896C739.931 635.903 739.551 636.01 739.195 636.215C738.839 636.42 738.557 636.697 738.348 637.044C738.147 637.386 738.055 637.778 738.074 638.22C738.087 638.655 738.234 639.114 738.514 639.599C738.929 640.318 739.433 640.771 740.025 640.957C740.621 641.131 741.198 641.056 741.756 640.734ZM749.088 636.307L747.837 629.771L749.304 628.924L750.615 637.074L748.966 638.026L742.575 632.809L744.054 631.955L749.088 636.307Z" fill="white"/>
<path d="M808.126 636.966C809.024 636.448 809.908 636.169 810.78 636.13C811.654 636.077 812.461 636.269 813.198 636.706C813.938 637.13 814.556 637.77 815.05 638.627C815.545 639.484 815.788 640.335 815.781 641.18C815.781 642.02 815.539 642.806 815.057 643.538C814.577 644.256 813.889 644.875 812.991 645.393L810.239 646.982L805.374 638.555L808.126 636.966ZM812.34 644.265C813.327 643.696 813.928 642.993 814.146 642.156C814.363 641.319 814.192 640.416 813.632 639.446C813.067 638.468 812.363 637.856 811.521 637.609C810.678 637.363 809.764 637.525 808.777 638.094L807.407 638.885L810.97 645.056L812.34 644.265ZM822.935 634.98C823.08 635.23 823.194 635.466 823.278 635.687L818.174 638.634C818.523 639.144 818.968 639.458 819.51 639.576C820.053 639.694 820.582 639.604 821.1 639.305C821.843 638.876 822.189 638.261 822.137 637.461L823.628 636.6C823.781 637.331 823.705 638.049 823.4 638.753C823.098 639.444 822.556 640.016 821.772 640.469C821.133 640.838 820.478 641.028 819.805 641.039C819.136 641.037 818.506 640.861 817.917 640.512C817.331 640.15 816.839 639.626 816.442 638.939C816.046 638.251 815.836 637.57 815.812 636.894C815.791 636.205 815.95 635.575 816.288 635.003C816.634 634.426 817.134 633.948 817.789 633.57C818.419 633.206 819.06 633.019 819.712 633.009C820.364 633 820.972 633.166 821.536 633.508C822.095 633.843 822.562 634.333 822.935 634.98ZM821.24 635.376C820.938 634.872 820.521 634.569 819.988 634.467C819.455 634.365 818.925 634.466 818.4 634.769C817.923 635.044 817.604 635.434 817.441 635.937C817.275 636.432 817.308 636.957 817.542 637.511L821.24 635.376ZM823.925 634.618C823.529 633.931 823.319 633.25 823.295 632.574C823.274 631.885 823.429 631.257 823.759 630.689C824.088 630.122 824.572 629.654 825.211 629.285C826.019 628.818 826.798 628.627 827.548 628.712C828.3 628.784 828.975 629.122 829.572 629.726L828.08 630.587C827.768 630.325 827.424 630.179 827.05 630.147C826.676 630.115 826.287 630.216 825.883 630.449C825.317 630.776 824.981 631.239 824.875 631.839C824.772 632.426 824.929 633.08 825.344 633.799C825.759 634.519 826.249 634.985 826.814 635.198C827.387 635.406 827.956 635.346 828.522 635.02C829.322 634.558 829.649 633.9 829.501 633.048L830.993 632.187C831.191 632.978 831.14 633.729 830.839 634.442C830.535 635.146 829.986 635.726 829.194 636.184C828.555 636.552 827.908 636.738 827.252 636.739C826.591 636.733 825.969 636.553 825.388 636.199C824.81 635.832 824.322 635.305 823.925 634.618Z" fill="white"/>
</g>
<path opacity="0.5" d="M32.5833 131.83C33.4793 131.055 34.184 130.421 34.6973 129.926C35.22 129.422 35.654 128.899 35.9993 128.358C36.3447 127.817 36.5173 127.275 36.5173 126.734C36.5173 126.174 36.382 125.735 36.1113 125.418C35.85 125.101 35.4347 124.942 34.8653 124.942C34.3147 124.942 33.8853 125.119 33.5773 125.474C33.2787 125.819 33.12 126.286 33.1013 126.874H31.5613C31.5893 125.81 31.9067 124.998 32.5133 124.438C33.1293 123.869 33.9087 123.584 34.8513 123.584C35.8687 123.584 36.662 123.864 37.2313 124.424C37.81 124.984 38.0993 125.731 38.0993 126.664C38.0993 127.336 37.9267 127.985 37.5813 128.61C37.2453 129.226 36.8393 129.781 36.3633 130.276C35.8967 130.761 35.2993 131.326 34.5713 131.97L33.9413 132.53H38.3793V133.86H31.5753V132.698L32.5833 131.83ZM49.9981 125.166H45.3081V127.952C45.5041 127.691 45.7935 127.471 46.1761 127.294C46.5681 127.117 46.9835 127.028 47.4221 127.028C48.2061 127.028 48.8408 127.196 49.3261 127.532C49.8208 127.868 50.1708 128.293 50.3761 128.806C50.5908 129.319 50.6981 129.861 50.6981 130.43C50.6981 131.121 50.5628 131.737 50.2921 132.278C50.0308 132.81 49.6341 133.23 49.1021 133.538C48.5795 133.846 47.9355 134 47.1701 134C46.1528 134 45.3361 133.748 44.7201 133.244C44.1041 132.74 43.7355 132.073 43.6141 131.242H45.1681C45.2708 131.681 45.4995 132.031 45.8541 132.292C46.2088 132.544 46.6521 132.67 47.1841 132.67C47.8468 132.67 48.3415 132.469 48.6681 132.068C49.0041 131.667 49.1721 131.135 49.1721 130.472C49.1721 129.8 49.0041 129.287 48.6681 128.932C48.3321 128.568 47.8375 128.386 47.1841 128.386C46.7268 128.386 46.3395 128.503 46.0221 128.736C45.7141 128.96 45.4901 129.268 45.3501 129.66H43.8381V123.766H49.9981V125.166ZM52.3595 128.764C52.3595 127.149 52.6302 125.889 53.1715 124.984C53.7222 124.069 54.6649 123.612 55.9995 123.612C57.3342 123.612 58.2722 124.069 58.8135 124.984C59.3642 125.889 59.6395 127.149 59.6395 128.764C59.6395 130.397 59.3642 131.676 58.8135 132.6C58.2722 133.515 57.3342 133.972 55.9995 133.972C54.6649 133.972 53.7222 133.515 53.1715 132.6C52.6302 131.676 52.3595 130.397 52.3595 128.764ZM58.0715 128.764C58.0715 128.008 58.0202 127.369 57.9175 126.846C57.8242 126.323 57.6282 125.899 57.3295 125.572C57.0309 125.236 56.5875 125.068 55.9995 125.068C55.4115 125.068 54.9682 125.236 54.6695 125.572C54.3709 125.899 54.1702 126.323 54.0675 126.846C53.9742 127.369 53.9275 128.008 53.9275 128.764C53.9275 129.548 53.9742 130.206 54.0675 130.738C54.1609 131.27 54.3569 131.699 54.6555 132.026C54.9635 132.353 55.4115 132.516 55.9995 132.516C56.5875 132.516 57.0309 132.353 57.3295 132.026C57.6375 131.699 57.8382 131.27 57.9315 130.738C58.0249 130.206 58.0715 129.548 58.0715 128.764ZM61.3283 128.764C61.3283 127.149 61.5989 125.889 62.1403 124.984C62.6909 124.069 63.6336 123.612 64.9683 123.612C66.3029 123.612 67.2409 124.069 67.7823 124.984C68.3329 125.889 68.6083 127.149 68.6083 128.764C68.6083 130.397 68.3329 131.676 67.7823 132.6C67.2409 133.515 66.3029 133.972 64.9683 133.972C63.6336 133.972 62.6909 133.515 62.1403 132.6C61.5989 131.676 61.3283 130.397 61.3283 128.764ZM67.0403 128.764C67.0403 128.008 66.9889 127.369 66.8863 126.846C66.7929 126.323 66.5969 125.899 66.2983 125.572C65.9996 125.236 65.5563 125.068 64.9683 125.068C64.3803 125.068 63.9369 125.236 63.6383 125.572C63.3396 125.899 63.1389 126.323 63.0363 126.846C62.9429 127.369 62.8963 128.008 62.8963 128.764C62.8963 129.548 62.9429 130.206 63.0363 130.738C63.1296 131.27 63.3256 131.699 63.6243 132.026C63.9323 132.353 64.3803 132.516 64.9683 132.516C65.5563 132.516 65.9996 132.353 66.2983 132.026C66.6063 131.699 66.8069 131.27 66.9003 130.738C66.9936 130.206 67.0403 129.548 67.0403 128.764ZM73.9338 128.764C73.9338 127.149 74.2044 125.889 74.7458 124.984C75.2964 124.069 76.2391 123.612 77.5738 123.612C78.9084 123.612 79.8464 124.069 80.3878 124.984C80.9384 125.889 81.2138 127.149 81.2138 128.764C81.2138 130.397 80.9384 131.676 80.3878 132.6C79.8464 133.515 78.9084 133.972 77.5738 133.972C76.2391 133.972 75.2964 133.515 74.7458 132.6C74.2044 131.676 73.9338 130.397 73.9338 128.764ZM79.6458 128.764C79.6458 128.008 79.5944 127.369 79.4918 126.846C79.3984 126.323 79.2024 125.899 78.9038 125.572C78.6051 125.236 78.1618 125.068 77.5738 125.068C76.9858 125.068 76.5424 125.236 76.2438 125.572C75.9451 125.899 75.7444 126.323 75.6418 126.846C75.5484 127.369 75.5018 128.008 75.5018 128.764C75.5018 129.548 75.5484 130.206 75.6418 130.738C75.7351 131.27 75.9311 131.699 76.2298 132.026C76.5378 132.353 76.9858 132.516 77.5738 132.516C78.1618 132.516 78.6051 132.353 78.9038 132.026C79.2118 131.699 79.4124 131.27 79.5058 130.738C79.5991 130.206 79.6458 129.548 79.6458 128.764ZM82.9025 128.764C82.9025 127.149 83.1732 125.889 83.7145 124.984C84.2652 124.069 85.2078 123.612 86.5425 123.612C87.8772 123.612 88.8152 124.069 89.3565 124.984C89.9072 125.889 90.1825 127.149 90.1825 128.764C90.1825 130.397 89.9072 131.676 89.3565 132.6C88.8152 133.515 87.8772 133.972 86.5425 133.972C85.2078 133.972 84.2652 133.515 83.7145 132.6C83.1732 131.676 82.9025 130.397 82.9025 128.764ZM88.6145 128.764C88.6145 128.008 88.5632 127.369 88.4605 126.846C88.3672 126.323 88.1712 125.899 87.8725 125.572C87.5738 125.236 87.1305 125.068 86.5425 125.068C85.9545 125.068 85.5112 125.236 85.2125 125.572C84.9138 125.899 84.7132 126.323 84.6105 126.846C84.5172 127.369 84.4705 128.008 84.4705 128.764C84.4705 129.548 84.5172 130.206 84.6105 130.738C84.7038 131.27 84.8998 131.699 85.1985 132.026C85.5065 132.353 85.9545 132.516 86.5425 132.516C87.1305 132.516 87.5738 132.353 87.8725 132.026C88.1805 131.699 88.3812 131.27 88.4745 130.738C88.5678 130.206 88.6145 129.548 88.6145 128.764ZM91.8713 128.764C91.8713 127.149 92.1419 125.889 92.6833 124.984C93.2339 124.069 94.1766 123.612 95.5113 123.612C96.8459 123.612 97.7839 124.069 98.3253 124.984C98.8759 125.889 99.1513 127.149 99.1513 128.764C99.1513 130.397 98.8759 131.676 98.3253 132.6C97.7839 133.515 96.8459 133.972 95.5113 133.972C94.1766 133.972 93.2339 133.515 92.6833 132.6C92.1419 131.676 91.8713 130.397 91.8713 128.764ZM97.5833 128.764C97.5833 128.008 97.5319 127.369 97.4293 126.846C97.3359 126.323 97.1399 125.899 96.8413 125.572C96.5426 125.236 96.0993 125.068 95.5113 125.068C94.9233 125.068 94.4799 125.236 94.1813 125.572C93.8826 125.899 93.6819 126.323 93.5793 126.846C93.4859 127.369 93.4393 128.008 93.4393 128.764C93.4393 129.548 93.4859 130.206 93.5793 130.738C93.6726 131.27 93.8686 131.699 94.1673 132.026C94.4753 132.353 94.9233 132.516 95.5113 132.516C96.0993 132.516 96.5426 132.353 96.8413 132.026C97.1493 131.699 97.3499 131.27 97.4433 130.738C97.5366 130.206 97.5833 129.548 97.5833 128.764Z" fill="white"/>
<rect opacity="0.4" x="829" y="129" width="1.00002" height="718" transform="rotate(90 829 129)" fill="white"/>
<path opacity="0.5" d="M32.556 193.83C33.452 193.055 34.1567 192.421 34.67 191.926C35.1927 191.422 35.6267 190.899 35.972 190.358C36.3173 189.817 36.49 189.275 36.49 188.734C36.49 188.174 36.3547 187.735 36.084 187.418C35.8227 187.101 35.4073 186.942 34.838 186.942C34.2873 186.942 33.858 187.119 33.55 187.474C33.2513 187.819 33.0927 188.286 33.074 188.874H31.534C31.562 187.81 31.8793 186.998 32.486 186.438C33.102 185.869 33.8813 185.584 34.824 185.584C35.8413 185.584 36.6347 185.864 37.204 186.424C37.7827 186.984 38.072 187.731 38.072 188.664C38.072 189.336 37.8993 189.985 37.554 190.61C37.218 191.226 36.812 191.781 36.336 192.276C35.8693 192.761 35.272 193.326 34.544 193.97L33.914 194.53H38.352V195.86H31.548V194.698L32.556 193.83ZM43.3908 190.764C43.3908 189.149 43.6614 187.889 44.2028 186.984C44.7534 186.069 45.6961 185.612 47.0308 185.612C48.3654 185.612 49.3034 186.069 49.8448 186.984C50.3954 187.889 50.6708 189.149 50.6708 190.764C50.6708 192.397 50.3954 193.676 49.8448 194.6C49.3034 195.515 48.3654 195.972 47.0308 195.972C45.6961 195.972 44.7534 195.515 44.2028 194.6C43.6614 193.676 43.3908 192.397 43.3908 190.764ZM49.1028 190.764C49.1028 190.008 49.0514 189.369 48.9488 188.846C48.8554 188.323 48.6594 187.899 48.3608 187.572C48.0621 187.236 47.6188 187.068 47.0308 187.068C46.4428 187.068 45.9994 187.236 45.7008 187.572C45.4021 187.899 45.2014 188.323 45.0988 188.846C45.0054 189.369 44.9588 190.008 44.9588 190.764C44.9588 191.548 45.0054 192.206 45.0988 192.738C45.1921 193.27 45.3881 193.699 45.6868 194.026C45.9948 194.353 46.4428 194.516 47.0308 194.516C47.6188 194.516 48.0621 194.353 48.3608 194.026C48.6688 193.699 48.8694 193.27 48.9628 192.738C49.0561 192.206 49.1028 191.548 49.1028 190.764ZM52.3595 190.764C52.3595 189.149 52.6302 187.889 53.1715 186.984C53.7222 186.069 54.6649 185.612 55.9995 185.612C57.3342 185.612 58.2722 186.069 58.8135 186.984C59.3642 187.889 59.6395 189.149 59.6395 190.764C59.6395 192.397 59.3642 193.676 58.8135 194.6C58.2722 195.515 57.3342 195.972 55.9995 195.972C54.6649 195.972 53.7222 195.515 53.1715 194.6C52.6302 193.676 52.3595 192.397 52.3595 190.764ZM58.0715 190.764C58.0715 190.008 58.0202 189.369 57.9175 188.846C57.8242 188.323 57.6282 187.899 57.3295 187.572C57.0309 187.236 56.5875 187.068 55.9995 187.068C55.4115 187.068 54.9682 187.236 54.6695 187.572C54.3709 187.899 54.1702 188.323 54.0675 188.846C53.9742 189.369 53.9275 190.008 53.9275 190.764C53.9275 191.548 53.9742 192.206 54.0675 192.738C54.1609 193.27 54.3569 193.699 54.6555 194.026C54.9635 194.353 55.4115 194.516 55.9995 194.516C56.5875 194.516 57.0309 194.353 57.3295 194.026C57.6375 193.699 57.8382 193.27 57.9315 192.738C58.0249 192.206 58.0715 191.548 58.0715 190.764ZM61.3283 190.764C61.3283 189.149 61.5989 187.889 62.1403 186.984C62.6909 186.069 63.6336 185.612 64.9683 185.612C66.3029 185.612 67.2409 186.069 67.7823 186.984C68.3329 187.889 68.6083 189.149 68.6083 190.764C68.6083 192.397 68.3329 193.676 67.7823 194.6C67.2409 195.515 66.3029 195.972 64.9683 195.972C63.6336 195.972 62.6909 195.515 62.1403 194.6C61.5989 193.676 61.3283 192.397 61.3283 190.764ZM67.0403 190.764C67.0403 190.008 66.9889 189.369 66.8863 188.846C66.7929 188.323 66.5969 187.899 66.2983 187.572C65.9996 187.236 65.5563 187.068 64.9683 187.068C64.3803 187.068 63.9369 187.236 63.6383 187.572C63.3396 187.899 63.1389 188.323 63.0363 188.846C62.9429 189.369 62.8963 190.008 62.8963 190.764C62.8963 191.548 62.9429 192.206 63.0363 192.738C63.1296 193.27 63.3256 193.699 63.6243 194.026C63.9323 194.353 64.3803 194.516 64.9683 194.516C65.5563 194.516 65.9996 194.353 66.2983 194.026C66.6063 193.699 66.8069 193.27 66.9003 192.738C66.9936 192.206 67.0403 191.548 67.0403 190.764ZM73.9338 190.764C73.9338 189.149 74.2044 187.889 74.7458 186.984C75.2964 186.069 76.2391 185.612 77.5738 185.612C78.9084 185.612 79.8464 186.069 80.3878 186.984C80.9384 187.889 81.2138 189.149 81.2138 190.764C81.2138 192.397 80.9384 193.676 80.3878 194.6C79.8464 195.515 78.9084 195.972 77.5738 195.972C76.2391 195.972 75.2964 195.515 74.7458 194.6C74.2044 193.676 73.9338 192.397 73.9338 190.764ZM79.6458 190.764C79.6458 190.008 79.5944 189.369 79.4918 188.846C79.3984 188.323 79.2024 187.899 78.9038 187.572C78.6051 187.236 78.1618 187.068 77.5738 187.068C76.9858 187.068 76.5424 187.236 76.2438 187.572C75.9451 187.899 75.7444 188.323 75.6418 188.846C75.5484 189.369 75.5018 190.008 75.5018 190.764C75.5018 191.548 75.5484 192.206 75.6418 192.738C75.7351 193.27 75.9311 193.699 76.2298 194.026C76.5378 194.353 76.9858 194.516 77.5738 194.516C78.1618 194.516 78.6051 194.353 78.9038 194.026C79.2118 193.699 79.4124 193.27 79.5058 192.738C79.5991 192.206 79.6458 191.548 79.6458 190.764ZM82.9025 190.764C82.9025 189.149 83.1732 187.889 83.7145 186.984C84.2652 186.069 85.2078 185.612 86.5425 185.612C87.8772 185.612 88.8152 186.069 89.3565 186.984C89.9072 187.889 90.1825 189.149 90.1825 190.764C90.1825 192.397 89.9072 193.676 89.3565 194.6C88.8152 195.515 87.8772 195.972 86.5425 195.972C85.2078 195.972 84.2652 195.515 83.7145 194.6C83.1732 193.676 82.9025 192.397 82.9025 190.764ZM88.6145 190.764C88.6145 190.008 88.5632 189.369 88.4605 188.846C88.3672 188.323 88.1712 187.899 87.8725 187.572C87.5738 187.236 87.1305 187.068 86.5425 187.068C85.9545 187.068 85.5112 187.236 85.2125 187.572C84.9138 187.899 84.7132 188.323 84.6105 188.846C84.5172 189.369 84.4705 190.008 84.4705 190.764C84.4705 191.548 84.5172 192.206 84.6105 192.738C84.7038 193.27 84.8998 193.699 85.1985 194.026C85.5065 194.353 85.9545 194.516 86.5425 194.516C87.1305 194.516 87.5738 194.353 87.8725 194.026C88.1805 193.699 88.3812 193.27 88.4745 192.738C88.5678 192.206 88.6145 191.548 88.6145 190.764ZM91.8713 190.764C91.8713 189.149 92.1419 187.889 92.6833 186.984C93.2339 186.069 94.1766 185.612 95.5113 185.612C96.8459 185.612 97.7839 186.069 98.3253 186.984C98.8759 187.889 99.1513 189.149 99.1513 190.764C99.1513 192.397 98.8759 193.676 98.3253 194.6C97.7839 195.515 96.8459 195.972 95.5113 195.972C94.1766 195.972 93.2339 195.515 92.6833 194.6C92.1419 193.676 91.8713 192.397 91.8713 190.764ZM97.5833 190.764C97.5833 190.008 97.5319 189.369 97.4293 188.846C97.3359 188.323 97.1399 187.899 96.8413 187.572C96.5426 187.236 96.0993 187.068 95.5113 187.068C94.9233 187.068 94.4799 187.236 94.1813 187.572C93.8826 187.899 93.6819 188.323 93.5793 188.846C93.4859 189.369 93.4393 190.008 93.4393 190.764C93.4393 191.548 93.4859 192.206 93.5793 192.738C93.6726 193.27 93.8686 193.699 94.1673 194.026C94.4753 194.353 94.9233 194.516 95.5113 194.516C96.0993 194.516 96.5426 194.353 96.8413 194.026C97.1493 193.699 97.3499 193.27 97.4433 192.738C97.5366 192.206 97.5833 191.548 97.5833 190.764Z" fill="white"/>
<rect opacity="0.4" x="829" y="191" width="1.00002" height="718" transform="rotate(90 829 191)" fill="white"/>
<path opacity="0.5" d="M34.6495 249.25V247.794H37.5615V258H35.9515V249.25H34.6495ZM43.3908 252.764C43.3908 251.149 43.6614 249.889 44.2028 248.984C44.7534 248.069 45.6961 247.612 47.0308 247.612C48.3654 247.612 49.3034 248.069 49.8448 248.984C50.3954 249.889 50.6708 251.149 50.6708 252.764C50.6708 254.397 50.3954 255.676 49.8448 256.6C49.3034 257.515 48.3654 257.972 47.0308 257.972C45.6961 257.972 44.7534 257.515 44.2028 256.6C43.6614 255.676 43.3908 254.397 43.3908 252.764ZM49.1028 252.764C49.1028 252.008 49.0514 251.369 48.9488 250.846C48.8554 250.323 48.6594 249.899 48.3608 249.572C48.0621 249.236 47.6188 249.068 47.0308 249.068C46.4428 249.068 45.9994 249.236 45.7008 249.572C45.4021 249.899 45.2014 250.323 45.0988 250.846C45.0054 251.369 44.9588 252.008 44.9588 252.764C44.9588 253.548 45.0054 254.206 45.0988 254.738C45.1921 255.27 45.3881 255.699 45.6868 256.026C45.9948 256.353 46.4428 256.516 47.0308 256.516C47.6188 256.516 48.0621 256.353 48.3608 256.026C48.6688 255.699 48.8694 255.27 48.9628 254.738C49.0561 254.206 49.1028 253.548 49.1028 252.764ZM52.3595 252.764C52.3595 251.149 52.6302 249.889 53.1715 248.984C53.7222 248.069 54.6649 247.612 55.9995 247.612C57.3342 247.612 58.2722 248.069 58.8135 248.984C59.3642 249.889 59.6395 251.149 59.6395 252.764C59.6395 254.397 59.3642 255.676 58.8135 256.6C58.2722 257.515 57.3342 257.972 55.9995 257.972C54.6649 257.972 53.7222 257.515 53.1715 256.6C52.6302 255.676 52.3595 254.397 52.3595 252.764ZM58.0715 252.764C58.0715 252.008 58.0202 251.369 57.9175 250.846C57.8242 250.323 57.6282 249.899 57.3295 249.572C57.0309 249.236 56.5875 249.068 55.9995 249.068C55.4115 249.068 54.9682 249.236 54.6695 249.572C54.3709 249.899 54.1702 250.323 54.0675 250.846C53.9742 251.369 53.9275 252.008 53.9275 252.764C53.9275 253.548 53.9742 254.206 54.0675 254.738C54.1609 255.27 54.3569 255.699 54.6555 256.026C54.9635 256.353 55.4115 256.516 55.9995 256.516C56.5875 256.516 57.0309 256.353 57.3295 256.026C57.6375 255.699 57.8382 255.27 57.9315 254.738C58.0249 254.206 58.0715 253.548 58.0715 252.764ZM61.3283 252.764C61.3283 251.149 61.5989 249.889 62.1403 248.984C62.6909 248.069 63.6336 247.612 64.9683 247.612C66.3029 247.612 67.2409 248.069 67.7823 248.984C68.3329 249.889 68.6083 251.149 68.6083 252.764C68.6083 254.397 68.3329 255.676 67.7823 256.6C67.2409 257.515 66.3029 257.972 64.9683 257.972C63.6336 257.972 62.6909 257.515 62.1403 256.6C61.5989 255.676 61.3283 254.397 61.3283 252.764ZM67.0403 252.764C67.0403 252.008 66.9889 251.369 66.8863 250.846C66.7929 250.323 66.5969 249.899 66.2983 249.572C65.9996 249.236 65.5563 249.068 64.9683 249.068C64.3803 249.068 63.9369 249.236 63.6383 249.572C63.3396 249.899 63.1389 250.323 63.0363 250.846C62.9429 251.369 62.8963 252.008 62.8963 252.764C62.8963 253.548 62.9429 254.206 63.0363 254.738C63.1296 255.27 63.3256 255.699 63.6243 256.026C63.9323 256.353 64.3803 256.516 64.9683 256.516C65.5563 256.516 65.9996 256.353 66.2983 256.026C66.6063 255.699 66.8069 255.27 66.9003 254.738C66.9936 254.206 67.0403 253.548 67.0403 252.764ZM73.9338 252.764C73.9338 251.149 74.2044 249.889 74.7458 248.984C75.2964 248.069 76.2391 247.612 77.5738 247.612C78.9084 247.612 79.8464 248.069 80.3878 248.984C80.9384 249.889 81.2138 251.149 81.2138 252.764C81.2138 254.397 80.9384 255.676 80.3878 256.6C79.8464 257.515 78.9084 257.972 77.5738 257.972C76.2391 257.972 75.2964 257.515 74.7458 256.6C74.2044 255.676 73.9338 254.397 73.9338 252.764ZM79.6458 252.764C79.6458 252.008 79.5944 251.369 79.4918 250.846C79.3984 250.323 79.2024 249.899 78.9038 249.572C78.6051 249.236 78.1618 249.068 77.5738 249.068C76.9858 249.068 76.5424 249.236 76.2438 249.572C75.9451 249.899 75.7444 250.323 75.6418 250.846C75.5484 251.369 75.5018 252.008 75.5018 252.764C75.5018 253.548 75.5484 254.206 75.6418 254.738C75.7351 255.27 75.9311 255.699 76.2298 256.026C76.5378 256.353 76.9858 256.516 77.5738 256.516C78.1618 256.516 78.6051 256.353 78.9038 256.026C79.2118 255.699 79.4124 255.27 79.5058 254.738C79.5991 254.206 79.6458 253.548 79.6458 252.764ZM82.9025 252.764C82.9025 251.149 83.1732 249.889 83.7145 248.984C84.2652 248.069 85.2078 247.612 86.5425 247.612C87.8772 247.612 88.8152 248.069 89.3565 248.984C89.9072 249.889 90.1825 251.149 90.1825 252.764C90.1825 254.397 89.9072 255.676 89.3565 256.6C88.8152 257.515 87.8772 257.972 86.5425 257.972C85.2078 257.972 84.2652 257.515 83.7145 256.6C83.1732 255.676 82.9025 254.397 82.9025 252.764ZM88.6145 252.764C88.6145 252.008 88.5632 251.369 88.4605 250.846C88.3672 250.323 88.1712 249.899 87.8725 249.572C87.5738 249.236 87.1305 249.068 86.5425 249.068C85.9545 249.068 85.5112 249.236 85.2125 249.572C84.9138 249.899 84.7132 250.323 84.6105 250.846C84.5172 251.369 84.4705 252.008 84.4705 252.764C84.4705 253.548 84.5172 254.206 84.6105 254.738C84.7038 255.27 84.8998 255.699 85.1985 256.026C85.5065 256.353 85.9545 256.516 86.5425 256.516C87.1305 256.516 87.5738 256.353 87.8725 256.026C88.1805 255.699 88.3812 255.27 88.4745 254.738C88.5678 254.206 88.6145 253.548 88.6145 252.764ZM91.8713 252.764C91.8713 251.149 92.1419 249.889 92.6833 248.984C93.2339 248.069 94.1766 247.612 95.5113 247.612C96.8459 247.612 97.7839 248.069 98.3253 248.984C98.8759 249.889 99.1513 251.149 99.1513 252.764C99.1513 254.397 98.8759 255.676 98.3253 256.6C97.7839 257.515 96.8459 257.972 95.5113 257.972C94.1766 257.972 93.2339 257.515 92.6833 256.6C92.1419 255.676 91.8713 254.397 91.8713 252.764ZM97.5833 252.764C97.5833 252.008 97.5319 251.369 97.4293 250.846C97.3359 250.323 97.1399 249.899 96.8413 249.572C96.5426 249.236 96.0993 249.068 95.5113 249.068C94.9233 249.068 94.4799 249.236 94.1813 249.572C93.8826 249.899 93.6819 250.323 93.5793 250.846C93.4859 251.369 93.4393 252.008 93.4393 252.764C93.4393 253.548 93.4859 254.206 93.5793 254.738C93.6726 255.27 93.8686 255.699 94.1673 256.026C94.4753 256.353 94.9233 256.516 95.5113 256.516C96.0993 256.516 96.5426 256.353 96.8413 256.026C97.1493 255.699 97.3499 255.27 97.4433 254.738C97.5366 254.206 97.5833 253.548 97.5833 252.764Z" fill="white"/>
<rect opacity="0.4" x="829" y="253" width="1.00002" height="718" transform="rotate(90 829 253)" fill="white"/>
<path opacity="0.5" d="M49.9981 311.166H45.3081V313.952C45.5041 313.691 45.7935 313.471 46.1761 313.294C46.5681 313.117 46.9835 313.028 47.4221 313.028C48.2061 313.028 48.8408 313.196 49.3261 313.532C49.8208 313.868 50.1708 314.293 50.3761 314.806C50.5908 315.319 50.6981 315.861 50.6981 316.43C50.6981 317.121 50.5628 317.737 50.2921 318.278C50.0308 318.81 49.6341 319.23 49.1021 319.538C48.5795 319.846 47.9355 320 47.1701 320C46.1528 320 45.3361 319.748 44.7201 319.244C44.1041 318.74 43.7355 318.073 43.6141 317.242H45.1681C45.2708 317.681 45.4995 318.031 45.8541 318.292C46.2088 318.544 46.6521 318.67 47.1841 318.67C47.8468 318.67 48.3415 318.469 48.6681 318.068C49.0041 317.667 49.1721 317.135 49.1721 316.472C49.1721 315.8 49.0041 315.287 48.6681 314.932C48.3321 314.568 47.8375 314.386 47.1841 314.386C46.7268 314.386 46.3395 314.503 46.0221 314.736C45.7141 314.96 45.4901 315.268 45.3501 315.66H43.8381V309.766H49.9981V311.166ZM52.3595 314.764C52.3595 313.149 52.6302 311.889 53.1715 310.984C53.7222 310.069 54.6649 309.612 55.9995 309.612C57.3342 309.612 58.2722 310.069 58.8135 310.984C59.3642 311.889 59.6395 313.149 59.6395 314.764C59.6395 316.397 59.3642 317.676 58.8135 318.6C58.2722 319.515 57.3342 319.972 55.9995 319.972C54.6649 319.972 53.7222 319.515 53.1715 318.6C52.6302 317.676 52.3595 316.397 52.3595 314.764ZM58.0715 314.764C58.0715 314.008 58.0202 313.369 57.9175 312.846C57.8242 312.323 57.6282 311.899 57.3295 311.572C57.0309 311.236 56.5875 311.068 55.9995 311.068C55.4115 311.068 54.9682 311.236 54.6695 311.572C54.3709 311.899 54.1702 312.323 54.0675 312.846C53.9742 313.369 53.9275 314.008 53.9275 314.764C53.9275 315.548 53.9742 316.206 54.0675 316.738C54.1609 317.27 54.3569 317.699 54.6555 318.026C54.9635 318.353 55.4115 318.516 55.9995 318.516C56.5875 318.516 57.0309 318.353 57.3295 318.026C57.6375 317.699 57.8382 317.27 57.9315 316.738C58.0249 316.206 58.0715 315.548 58.0715 314.764ZM61.3283 314.764C61.3283 313.149 61.5989 311.889 62.1403 310.984C62.6909 310.069 63.6336 309.612 64.9683 309.612C66.3029 309.612 67.2409 310.069 67.7823 310.984C68.3329 311.889 68.6083 313.149 68.6083 314.764C68.6083 316.397 68.3329 317.676 67.7823 318.6C67.2409 319.515 66.3029 319.972 64.9683 319.972C63.6336 319.972 62.6909 319.515 62.1403 318.6C61.5989 317.676 61.3283 316.397 61.3283 314.764ZM67.0403 314.764C67.0403 314.008 66.9889 313.369 66.8863 312.846C66.7929 312.323 66.5969 311.899 66.2983 311.572C65.9996 311.236 65.5563 311.068 64.9683 311.068C64.3803 311.068 63.9369 311.236 63.6383 311.572C63.3396 311.899 63.1389 312.323 63.0363 312.846C62.9429 313.369 62.8963 314.008 62.8963 314.764C62.8963 315.548 62.9429 316.206 63.0363 316.738C63.1296 317.27 63.3256 317.699 63.6243 318.026C63.9323 318.353 64.3803 318.516 64.9683 318.516C65.5563 318.516 65.9996 318.353 66.2983 318.026C66.6063 317.699 66.8069 317.27 66.9003 316.738C66.9936 316.206 67.0403 315.548 67.0403 314.764ZM73.9338 314.764C73.9338 313.149 74.2044 311.889 74.7458 310.984C75.2964 310.069 76.2391 309.612 77.5738 309.612C78.9084 309.612 79.8464 310.069 80.3878 310.984C80.9384 311.889 81.2138 313.149 81.2138 314.764C81.2138 316.397 80.9384 317.676 80.3878 318.6C79.8464 319.515 78.9084 319.972 77.5738 319.972C76.2391 319.972 75.2964 319.515 74.7458 318.6C74.2044 317.676 73.9338 316.397 73.9338 314.764ZM79.6458 314.764C79.6458 314.008 79.5944 313.369 79.4918 312.846C79.3984 312.323 79.2024 311.899 78.9038 311.572C78.6051 311.236 78.1618 311.068 77.5738 311.068C76.9858 311.068 76.5424 311.236 76.2438 311.572C75.9451 311.899 75.7444 312.323 75.6418 312.846C75.5484 313.369 75.5018 314.008 75.5018 314.764C75.5018 315.548 75.5484 316.206 75.6418 316.738C75.7351 317.27 75.9311 317.699 76.2298 318.026C76.5378 318.353 76.9858 318.516 77.5738 318.516C78.1618 318.516 78.6051 318.353 78.9038 318.026C79.2118 317.699 79.4124 317.27 79.5058 316.738C79.5991 316.206 79.6458 315.548 79.6458 314.764ZM82.9025 314.764C82.9025 313.149 83.1732 311.889 83.7145 310.984C84.2652 310.069 85.2078 309.612 86.5425 309.612C87.8772 309.612 88.8152 310.069 89.3565 310.984C89.9072 311.889 90.1825 313.149 90.1825 314.764C90.1825 316.397 89.9072 317.676 89.3565 318.6C88.8152 319.515 87.8772 319.972 86.5425 319.972C85.2078 319.972 84.2652 319.515 83.7145 318.6C83.1732 317.676 82.9025 316.397 82.9025 314.764ZM88.6145 314.764C88.6145 314.008 88.5632 313.369 88.4605 312.846C88.3672 312.323 88.1712 311.899 87.8725 311.572C87.5738 311.236 87.1305 311.068 86.5425 311.068C85.9545 311.068 85.5112 311.236 85.2125 311.572C84.9138 311.899 84.7132 312.323 84.6105 312.846C84.5172 313.369 84.4705 314.008 84.4705 314.764C84.4705 315.548 84.5172 316.206 84.6105 316.738C84.7038 317.27 84.8998 317.699 85.1985 318.026C85.5065 318.353 85.9545 318.516 86.5425 318.516C87.1305 318.516 87.5738 318.353 87.8725 318.026C88.1805 317.699 88.3812 317.27 88.4745 316.738C88.5678 316.206 88.6145 315.548 88.6145 314.764ZM91.8713 314.764C91.8713 313.149 92.1419 311.889 92.6833 310.984C93.2339 310.069 94.1766 309.612 95.5113 309.612C96.8459 309.612 97.7839 310.069 98.3253 310.984C98.8759 311.889 99.1513 313.149 99.1513 314.764C99.1513 316.397 98.8759 317.676 98.3253 318.6C97.7839 319.515 96.8459 319.972 95.5113 319.972C94.1766 319.972 93.2339 319.515 92.6833 318.6C92.1419 317.676 91.8713 316.397 91.8713 314.764ZM97.5833 314.764C97.5833 314.008 97.5319 313.369 97.4293 312.846C97.3359 312.323 97.1399 311.899 96.8413 311.572C96.5426 311.236 96.0993 311.068 95.5113 311.068C94.9233 311.068 94.4799 311.236 94.1813 311.572C93.8826 311.899 93.6819 312.323 93.5793 312.846C93.4859 313.369 93.4393 314.008 93.4393 314.764C93.4393 315.548 93.4859 316.206 93.5793 316.738C93.6726 317.27 93.8686 317.699 94.1673 318.026C94.4753 318.353 94.9233 318.516 95.5113 318.516C96.0993 318.516 96.5426 318.353 96.8413 318.026C97.1493 317.699 97.3499 317.27 97.4433 316.738C97.5366 316.206 97.5833 315.548 97.5833 314.764Z" fill="white"/>
<rect opacity="0.4" x="829" y="315" width="1.00002" height="718" transform="rotate(90 829 315)" fill="white"/>
<path opacity="0.5" d="M45.1888 379.83C46.0848 379.055 46.7895 378.421 47.3028 377.926C47.8255 377.422 48.2595 376.899 48.6048 376.358C48.9501 375.817 49.1228 375.275 49.1228 374.734C49.1228 374.174 48.9875 373.735 48.7168 373.418C48.4555 373.101 48.0401 372.942 47.4708 372.942C46.9201 372.942 46.4908 373.119 46.1828 373.474C45.8841 373.819 45.7255 374.286 45.7068 374.874H44.1668C44.1948 373.81 44.5121 372.998 45.1188 372.438C45.7348 371.869 46.5141 371.584 47.4568 371.584C48.4741 371.584 49.2675 371.864 49.8368 372.424C50.4155 372.984 50.7048 373.731 50.7048 374.664C50.7048 375.336 50.5321 375.985 50.1868 376.61C49.8508 377.226 49.4448 377.781 48.9688 378.276C48.5021 378.761 47.9048 379.326 47.1768 379.97L46.5468 380.53H50.9848V381.86H44.1808V380.698L45.1888 379.83ZM58.9669 373.166H54.2769V375.952C54.4729 375.691 54.7622 375.471 55.1449 375.294C55.5369 375.117 55.9522 375.028 56.3909 375.028C57.1749 375.028 57.8095 375.196 58.2949 375.532C58.7895 375.868 59.1395 376.293 59.3449 376.806C59.5595 377.319 59.6669 377.861 59.6669 378.43C59.6669 379.121 59.5315 379.737 59.2609 380.278C58.9995 380.81 58.6029 381.23 58.0709 381.538C57.5482 381.846 56.9042 382 56.1389 382C55.1215 382 54.3049 381.748 53.6889 381.244C53.0729 380.74 52.7042 380.073 52.5829 379.242H54.1369C54.2395 379.681 54.4682 380.031 54.8229 380.292C55.1775 380.544 55.6209 380.67 56.1529 380.67C56.8155 380.67 57.3102 380.469 57.6369 380.068C57.9729 379.667 58.1409 379.135 58.1409 378.472C58.1409 377.8 57.9729 377.287 57.6369 376.932C57.3009 376.568 56.8062 376.386 56.1529 376.386C55.6955 376.386 55.3082 376.503 54.9909 376.736C54.6829 376.96 54.4589 377.268 54.3189 377.66H52.8069V371.766H58.9669V373.166ZM61.3283 376.764C61.3283 375.149 61.5989 373.889 62.1403 372.984C62.6909 372.069 63.6336 371.612 64.9683 371.612C66.3029 371.612 67.2409 372.069 67.7823 372.984C68.3329 373.889 68.6083 375.149 68.6083 376.764C68.6083 378.397 68.3329 379.676 67.7823 380.6C67.2409 381.515 66.3029 381.972 64.9683 381.972C63.6336 381.972 62.6909 381.515 62.1403 380.6C61.5989 379.676 61.3283 378.397 61.3283 376.764ZM67.0403 376.764C67.0403 376.008 66.9889 375.369 66.8863 374.846C66.7929 374.323 66.5969 373.899 66.2983 373.572C65.9996 373.236 65.5563 373.068 64.9683 373.068C64.3803 373.068 63.9369 373.236 63.6383 373.572C63.3396 373.899 63.1389 374.323 63.0363 374.846C62.9429 375.369 62.8963 376.008 62.8963 376.764C62.8963 377.548 62.9429 378.206 63.0363 378.738C63.1296 379.27 63.3256 379.699 63.6243 380.026C63.9323 380.353 64.3803 380.516 64.9683 380.516C65.5563 380.516 65.9996 380.353 66.2983 380.026C66.6063 379.699 66.8069 379.27 66.9003 378.738C66.9936 378.206 67.0403 377.548 67.0403 376.764ZM73.9338 376.764C73.9338 375.149 74.2044 373.889 74.7458 372.984C75.2964 372.069 76.2391 371.612 77.5738 371.612C78.9084 371.612 79.8464 372.069 80.3878 372.984C80.9384 373.889 81.2138 375.149 81.2138 376.764C81.2138 378.397 80.9384 379.676 80.3878 380.6C79.8464 381.515 78.9084 381.972 77.5738 381.972C76.2391 381.972 75.2964 381.515 74.7458 380.6C74.2044 379.676 73.9338 378.397 73.9338 376.764ZM79.6458 376.764C79.6458 376.008 79.5944 375.369 79.4918 374.846C79.3984 374.323 79.2024 373.899 78.9038 373.572C78.6051 373.236 78.1618 373.068 77.5738 373.068C76.9858 373.068 76.5424 373.236 76.2438 373.572C75.9451 373.899 75.7444 374.323 75.6418 374.846C75.5484 375.369 75.5018 376.008 75.5018 376.764C75.5018 377.548 75.5484 378.206 75.6418 378.738C75.7351 379.27 75.9311 379.699 76.2298 380.026C76.5378 380.353 76.9858 380.516 77.5738 380.516C78.1618 380.516 78.6051 380.353 78.9038 380.026C79.2118 379.699 79.4124 379.27 79.5058 378.738C79.5991 378.206 79.6458 377.548 79.6458 376.764ZM82.9025 376.764C82.9025 375.149 83.1732 373.889 83.7145 372.984C84.2652 372.069 85.2078 371.612 86.5425 371.612C87.8772 371.612 88.8152 372.069 89.3565 372.984C89.9072 373.889 90.1825 375.149 90.1825 376.764C90.1825 378.397 89.9072 379.676 89.3565 380.6C88.8152 381.515 87.8772 381.972 86.5425 381.972C85.2078 381.972 84.2652 381.515 83.7145 380.6C83.1732 379.676 82.9025 378.397 82.9025 376.764ZM88.6145 376.764C88.6145 376.008 88.5632 375.369 88.4605 374.846C88.3672 374.323 88.1712 373.899 87.8725 373.572C87.5738 373.236 87.1305 373.068 86.5425 373.068C85.9545 373.068 85.5112 373.236 85.2125 373.572C84.9138 373.899 84.7132 374.323 84.6105 374.846C84.5172 375.369 84.4705 376.008 84.4705 376.764C84.4705 377.548 84.5172 378.206 84.6105 378.738C84.7038 379.27 84.8998 379.699 85.1985 380.026C85.5065 380.353 85.9545 380.516 86.5425 380.516C87.1305 380.516 87.5738 380.353 87.8725 380.026C88.1805 379.699 88.3812 379.27 88.4745 378.738C88.5678 378.206 88.6145 377.548 88.6145 376.764ZM91.8713 376.764C91.8713 375.149 92.1419 373.889 92.6833 372.984C93.2339 372.069 94.1766 371.612 95.5113 371.612C96.8459 371.612 97.7839 372.069 98.3253 372.984C98.8759 373.889 99.1513 375.149 99.1513 376.764C99.1513 378.397 98.8759 379.676 98.3253 380.6C97.7839 381.515 96.8459 381.972 95.5113 381.972C94.1766 381.972 93.2339 381.515 92.6833 380.6C92.1419 379.676 91.8713 378.397 91.8713 376.764ZM97.5833 376.764C97.5833 376.008 97.5319 375.369 97.4293 374.846C97.3359 374.323 97.1399 373.899 96.8413 373.572C96.5426 373.236 96.0993 373.068 95.5113 373.068C94.9233 373.068 94.4799 373.236 94.1813 373.572C93.8826 373.899 93.6819 374.323 93.5793 374.846C93.4859 375.369 93.4393 376.008 93.4393 376.764C93.4393 377.548 93.4859 378.206 93.5793 378.738C93.6726 379.27 93.8686 379.699 94.1673 380.026C94.4753 380.353 94.9233 380.516 95.5113 380.516C96.0993 380.516 96.5426 380.353 96.8413 380.026C97.1493 379.699 97.3499 379.27 97.4433 378.738C97.5366 378.206 97.5833 377.548 97.5833 376.764Z" fill="white"/>
<rect opacity="0.4" x="829" y="377" width="1.00002" height="718" transform="rotate(90 829 377)" fill="white"/>
<path opacity="0.5" d="M47.255 435.25V433.794H50.167V444H48.557V435.25H47.255ZM52.3595 438.764C52.3595 437.149 52.6302 435.889 53.1715 434.984C53.7222 434.069 54.6649 433.612 55.9995 433.612C57.3342 433.612 58.2722 434.069 58.8135 434.984C59.3642 435.889 59.6395 437.149 59.6395 438.764C59.6395 440.397 59.3642 441.676 58.8135 442.6C58.2722 443.515 57.3342 443.972 55.9995 443.972C54.6649 443.972 53.7222 443.515 53.1715 442.6C52.6302 441.676 52.3595 440.397 52.3595 438.764ZM58.0715 438.764C58.0715 438.008 58.0202 437.369 57.9175 436.846C57.8242 436.323 57.6282 435.899 57.3295 435.572C57.0309 435.236 56.5875 435.068 55.9995 435.068C55.4115 435.068 54.9682 435.236 54.6695 435.572C54.3709 435.899 54.1702 436.323 54.0675 436.846C53.9742 437.369 53.9275 438.008 53.9275 438.764C53.9275 439.548 53.9742 440.206 54.0675 440.738C54.1609 441.27 54.3569 441.699 54.6555 442.026C54.9635 442.353 55.4115 442.516 55.9995 442.516C56.5875 442.516 57.0309 442.353 57.3295 442.026C57.6375 441.699 57.8382 441.27 57.9315 440.738C58.0249 440.206 58.0715 439.548 58.0715 438.764ZM61.3283 438.764C61.3283 437.149 61.5989 435.889 62.1403 434.984C62.6909 434.069 63.6336 433.612 64.9683 433.612C66.3029 433.612 67.2409 434.069 67.7823 434.984C68.3329 435.889 68.6083 437.149 68.6083 438.764C68.6083 440.397 68.3329 441.676 67.7823 442.6C67.2409 443.515 66.3029 443.972 64.9683 443.972C63.6336 443.972 62.6909 443.515 62.1403 442.6C61.5989 441.676 61.3283 440.397 61.3283 438.764ZM67.0403 438.764C67.0403 438.008 66.9889 437.369 66.8863 436.846C66.7929 436.323 66.5969 435.899 66.2983 435.572C65.9996 435.236 65.5563 435.068 64.9683 435.068C64.3803 435.068 63.9369 435.236 63.6383 435.572C63.3396 435.899 63.1389 436.323 63.0363 436.846C62.9429 437.369 62.8963 438.008 62.8963 438.764C62.8963 439.548 62.9429 440.206 63.0363 440.738C63.1296 441.27 63.3256 441.699 63.6243 442.026C63.9323 442.353 64.3803 442.516 64.9683 442.516C65.5563 442.516 65.9996 442.353 66.2983 442.026C66.6063 441.699 66.8069 441.27 66.9003 440.738C66.9936 440.206 67.0403 439.548 67.0403 438.764ZM73.9338 438.764C73.9338 437.149 74.2044 435.889 74.7458 434.984C75.2964 434.069 76.2391 433.612 77.5738 433.612C78.9084 433.612 79.8464 434.069 80.3878 434.984C80.9384 435.889 81.2138 437.149 81.2138 438.764C81.2138 440.397 80.9384 441.676 80.3878 442.6C79.8464 443.515 78.9084 443.972 77.5738 443.972C76.2391 443.972 75.2964 443.515 74.7458 442.6C74.2044 441.676 73.9338 440.397 73.9338 438.764ZM79.6458 438.764C79.6458 438.008 79.5944 437.369 79.4918 436.846C79.3984 436.323 79.2024 435.899 78.9038 435.572C78.6051 435.236 78.1618 435.068 77.5738 435.068C76.9858 435.068 76.5424 435.236 76.2438 435.572C75.9451 435.899 75.7444 436.323 75.6418 436.846C75.5484 437.369 75.5018 438.008 75.5018 438.764C75.5018 439.548 75.5484 440.206 75.6418 440.738C75.7351 441.27 75.9311 441.699 76.2298 442.026C76.5378 442.353 76.9858 442.516 77.5738 442.516C78.1618 442.516 78.6051 442.353 78.9038 442.026C79.2118 441.699 79.4124 441.27 79.5058 440.738C79.5991 440.206 79.6458 439.548 79.6458 438.764ZM82.9025 438.764C82.9025 437.149 83.1732 435.889 83.7145 434.984C84.2652 434.069 85.2078 433.612 86.5425 433.612C87.8772 433.612 88.8152 434.069 89.3565 434.984C89.9072 435.889 90.1825 437.149 90.1825 438.764C90.1825 440.397 89.9072 441.676 89.3565 442.6C88.8152 443.515 87.8772 443.972 86.5425 443.972C85.2078 443.972 84.2652 443.515 83.7145 442.6C83.1732 441.676 82.9025 440.397 82.9025 438.764ZM88.6145 438.764C88.6145 438.008 88.5632 437.369 88.4605 436.846C88.3672 436.323 88.1712 435.899 87.8725 435.572C87.5738 435.236 87.1305 435.068 86.5425 435.068C85.9545 435.068 85.5112 435.236 85.2125 435.572C84.9138 435.899 84.7132 436.323 84.6105 436.846C84.5172 437.369 84.4705 438.008 84.4705 438.764C84.4705 439.548 84.5172 440.206 84.6105 440.738C84.7038 441.27 84.8998 441.699 85.1985 442.026C85.5065 442.353 85.9545 442.516 86.5425 442.516C87.1305 442.516 87.5738 442.353 87.8725 442.026C88.1805 441.699 88.3812 441.27 88.4745 440.738C88.5678 440.206 88.6145 439.548 88.6145 438.764ZM91.8713 438.764C91.8713 437.149 92.1419 435.889 92.6833 434.984C93.2339 434.069 94.1766 433.612 95.5113 433.612C96.8459 433.612 97.7839 434.069 98.3253 434.984C98.8759 435.889 99.1513 437.149 99.1513 438.764C99.1513 440.397 98.8759 441.676 98.3253 442.6C97.7839 443.515 96.8459 443.972 95.5113 443.972C94.1766 443.972 93.2339 443.515 92.6833 442.6C92.1419 441.676 91.8713 440.397 91.8713 438.764ZM97.5833 438.764C97.5833 438.008 97.5319 437.369 97.4293 436.846C97.3359 436.323 97.1399 435.899 96.8413 435.572C96.5426 435.236 96.0993 435.068 95.5113 435.068C94.9233 435.068 94.4799 435.236 94.1813 435.572C93.8826 435.899 93.6819 436.323 93.5793 436.846C93.4859 437.369 93.4393 438.008 93.4393 438.764C93.4393 439.548 93.4859 440.206 93.5793 440.738C93.6726 441.27 93.8686 441.699 94.1673 442.026C94.4753 442.353 94.9233 442.516 95.5113 442.516C96.0993 442.516 96.5426 442.353 96.8413 442.026C97.1493 441.699 97.3499 441.27 97.4433 440.738C97.5366 440.206 97.5833 439.548 97.5833 438.764Z" fill="white"/>
<rect opacity="0.4" x="829" y="439" width="1.00002" height="718" transform="rotate(90 829 439)" fill="white"/>
<path opacity="0.5" d="M58.9669 497.166H54.2769V499.952C54.4729 499.691 54.7622 499.471 55.1449 499.294C55.5369 499.117 55.9522 499.028 56.3909 499.028C57.1749 499.028 57.8095 499.196 58.2949 499.532C58.7895 499.868 59.1395 500.293 59.3449 500.806C59.5595 501.319 59.6669 501.861 59.6669 502.43C59.6669 503.121 59.5315 503.737 59.2609 504.278C58.9995 504.81 58.6029 505.23 58.0709 505.538C57.5482 505.846 56.9042 506 56.1389 506C55.1215 506 54.3049 505.748 53.6889 505.244C53.0729 504.74 52.7042 504.073 52.5829 503.242H54.1369C54.2395 503.681 54.4682 504.031 54.8229 504.292C55.1775 504.544 55.6209 504.67 56.1529 504.67C56.8155 504.67 57.3102 504.469 57.6369 504.068C57.9729 503.667 58.1409 503.135 58.1409 502.472C58.1409 501.8 57.9729 501.287 57.6369 500.932C57.3009 500.568 56.8062 500.386 56.1529 500.386C55.6955 500.386 55.3082 500.503 54.9909 500.736C54.6829 500.96 54.4589 501.268 54.3189 501.66H52.8069V495.766H58.9669V497.166ZM61.3283 500.764C61.3283 499.149 61.5989 497.889 62.1403 496.984C62.6909 496.069 63.6336 495.612 64.9683 495.612C66.3029 495.612 67.2409 496.069 67.7823 496.984C68.3329 497.889 68.6083 499.149 68.6083 500.764C68.6083 502.397 68.3329 503.676 67.7823 504.6C67.2409 505.515 66.3029 505.972 64.9683 505.972C63.6336 505.972 62.6909 505.515 62.1403 504.6C61.5989 503.676 61.3283 502.397 61.3283 500.764ZM67.0403 500.764C67.0403 500.008 66.9889 499.369 66.8863 498.846C66.7929 498.323 66.5969 497.899 66.2983 497.572C65.9996 497.236 65.5563 497.068 64.9683 497.068C64.3803 497.068 63.9369 497.236 63.6383 497.572C63.3396 497.899 63.1389 498.323 63.0363 498.846C62.9429 499.369 62.8963 500.008 62.8963 500.764C62.8963 501.548 62.9429 502.206 63.0363 502.738C63.1296 503.27 63.3256 503.699 63.6243 504.026C63.9323 504.353 64.3803 504.516 64.9683 504.516C65.5563 504.516 65.9996 504.353 66.2983 504.026C66.6063 503.699 66.8069 503.27 66.9003 502.738C66.9936 502.206 67.0403 501.548 67.0403 500.764ZM73.9338 500.764C73.9338 499.149 74.2044 497.889 74.7458 496.984C75.2964 496.069 76.2391 495.612 77.5738 495.612C78.9084 495.612 79.8464 496.069 80.3878 496.984C80.9384 497.889 81.2138 499.149 81.2138 500.764C81.2138 502.397 80.9384 503.676 80.3878 504.6C79.8464 505.515 78.9084 505.972 77.5738 505.972C76.2391 505.972 75.2964 505.515 74.7458 504.6C74.2044 503.676 73.9338 502.397 73.9338 500.764ZM79.6458 500.764C79.6458 500.008 79.5944 499.369 79.4918 498.846C79.3984 498.323 79.2024 497.899 78.9038 497.572C78.6051 497.236 78.1618 497.068 77.5738 497.068C76.9858 497.068 76.5424 497.236 76.2438 497.572C75.9451 497.899 75.7444 498.323 75.6418 498.846C75.5484 499.369 75.5018 500.008 75.5018 500.764C75.5018 501.548 75.5484 502.206 75.6418 502.738C75.7351 503.27 75.9311 503.699 76.2298 504.026C76.5378 504.353 76.9858 504.516 77.5738 504.516C78.1618 504.516 78.6051 504.353 78.9038 504.026C79.2118 503.699 79.4124 503.27 79.5058 502.738C79.5991 502.206 79.6458 501.548 79.6458 500.764ZM82.9025 500.764C82.9025 499.149 83.1732 497.889 83.7145 496.984C84.2652 496.069 85.2078 495.612 86.5425 495.612C87.8772 495.612 88.8152 496.069 89.3565 496.984C89.9072 497.889 90.1825 499.149 90.1825 500.764C90.1825 502.397 89.9072 503.676 89.3565 504.6C88.8152 505.515 87.8772 505.972 86.5425 505.972C85.2078 505.972 84.2652 505.515 83.7145 504.6C83.1732 503.676 82.9025 502.397 82.9025 500.764ZM88.6145 500.764C88.6145 500.008 88.5632 499.369 88.4605 498.846C88.3672 498.323 88.1712 497.899 87.8725 497.572C87.5738 497.236 87.1305 497.068 86.5425 497.068C85.9545 497.068 85.5112 497.236 85.2125 497.572C84.9138 497.899 84.7132 498.323 84.6105 498.846C84.5172 499.369 84.4705 500.008 84.4705 500.764C84.4705 501.548 84.5172 502.206 84.6105 502.738C84.7038 503.27 84.8998 503.699 85.1985 504.026C85.5065 504.353 85.9545 504.516 86.5425 504.516C87.1305 504.516 87.5738 504.353 87.8725 504.026C88.1805 503.699 88.3812 503.27 88.4745 502.738C88.5678 502.206 88.6145 501.548 88.6145 500.764ZM91.8713 500.764C91.8713 499.149 92.1419 497.889 92.6833 496.984C93.2339 496.069 94.1766 495.612 95.5113 495.612C96.8459 495.612 97.7839 496.069 98.3253 496.984C98.8759 497.889 99.1513 499.149 99.1513 500.764C99.1513 502.397 98.8759 503.676 98.3253 504.6C97.7839 505.515 96.8459 505.972 95.5113 505.972C94.1766 505.972 93.2339 505.515 92.6833 504.6C92.1419 503.676 91.8713 502.397 91.8713 500.764ZM97.5833 500.764C97.5833 500.008 97.5319 499.369 97.4293 498.846C97.3359 498.323 97.1399 497.899 96.8413 497.572C96.5426 497.236 96.0993 497.068 95.5113 497.068C94.9233 497.068 94.4799 497.236 94.1813 497.572C93.8826 497.899 93.6819 498.323 93.5793 498.846C93.4859 499.369 93.4393 500.008 93.4393 500.764C93.4393 501.548 93.4859 502.206 93.5793 502.738C93.6726 503.27 93.8686 503.699 94.1673 504.026C94.4753 504.353 94.9233 504.516 95.5113 504.516C96.0993 504.516 96.5426 504.353 96.8413 504.026C97.1493 503.699 97.3499 503.27 97.4433 502.738C97.5366 502.206 97.5833 501.548 97.5833 500.764Z" fill="white"/>
<rect opacity="0.4" x="829" y="501" width="1.00002" height="718" transform="rotate(90 829 501)" fill="white"/>
<path opacity="0.5" d="M54.1575 565.83C55.0535 565.055 55.7582 564.421 56.2715 563.926C56.7942 563.422 57.2282 562.899 57.5735 562.358C57.9189 561.817 58.0915 561.275 58.0915 560.734C58.0915 560.174 57.9562 559.735 57.6855 559.418C57.4242 559.101 57.0089 558.942 56.4395 558.942C55.8889 558.942 55.4595 559.119 55.1515 559.474C54.8529 559.819 54.6942 560.286 54.6755 560.874H53.1355C53.1635 559.81 53.4809 558.998 54.0875 558.438C54.7035 557.869 55.4829 557.584 56.4255 557.584C57.4429 557.584 58.2362 557.864 58.8055 558.424C59.3842 558.984 59.6735 559.731 59.6735 560.664C59.6735 561.336 59.5009 561.985 59.1555 562.61C58.8195 563.226 58.4135 563.781 57.9375 564.276C57.4709 564.761 56.8735 565.326 56.1455 565.97L55.5155 566.53H59.9535V567.86H53.1495V566.698L54.1575 565.83ZM67.9356 559.166H63.2456V561.952C63.4416 561.691 63.731 561.471 64.1136 561.294C64.5056 561.117 64.921 561.028 65.3596 561.028C66.1436 561.028 66.7783 561.196 67.2636 561.532C67.7583 561.868 68.1083 562.293 68.3136 562.806C68.5283 563.319 68.6356 563.861 68.6356 564.43C68.6356 565.121 68.5003 565.737 68.2296 566.278C67.9683 566.81 67.5716 567.23 67.0396 567.538C66.517 567.846 65.873 568 65.1076 568C64.0903 568 63.2736 567.748 62.6576 567.244C62.0416 566.74 61.673 566.073 61.5516 565.242H63.1056C63.2083 565.681 63.437 566.031 63.7916 566.292C64.1463 566.544 64.5896 566.67 65.1216 566.67C65.7843 566.67 66.279 566.469 66.6056 566.068C66.9416 565.667 67.1096 565.135 67.1096 564.472C67.1096 563.8 66.9416 563.287 66.6056 562.932C66.2696 562.568 65.775 562.386 65.1216 562.386C64.6643 562.386 64.277 562.503 63.9596 562.736C63.6516 562.96 63.4276 563.268 63.2876 563.66H61.7756V557.766H67.9356V559.166ZM73.9338 562.764C73.9338 561.149 74.2044 559.889 74.7458 558.984C75.2964 558.069 76.2391 557.612 77.5738 557.612C78.9084 557.612 79.8464 558.069 80.3878 558.984C80.9384 559.889 81.2138 561.149 81.2138 562.764C81.2138 564.397 80.9384 565.676 80.3878 566.6C79.8464 567.515 78.9084 567.972 77.5738 567.972C76.2391 567.972 75.2964 567.515 74.7458 566.6C74.2044 565.676 73.9338 564.397 73.9338 562.764ZM79.6458 562.764C79.6458 562.008 79.5944 561.369 79.4918 560.846C79.3984 560.323 79.2024 559.899 78.9038 559.572C78.6051 559.236 78.1618 559.068 77.5738 559.068C76.9858 559.068 76.5424 559.236 76.2438 559.572C75.9451 559.899 75.7444 560.323 75.6418 560.846C75.5484 561.369 75.5018 562.008 75.5018 562.764C75.5018 563.548 75.5484 564.206 75.6418 564.738C75.7351 565.27 75.9311 565.699 76.2298 566.026C76.5378 566.353 76.9858 566.516 77.5738 566.516C78.1618 566.516 78.6051 566.353 78.9038 566.026C79.2118 565.699 79.4124 565.27 79.5058 564.738C79.5991 564.206 79.6458 563.548 79.6458 562.764ZM82.9025 562.764C82.9025 561.149 83.1732 559.889 83.7145 558.984C84.2652 558.069 85.2078 557.612 86.5425 557.612C87.8772 557.612 88.8152 558.069 89.3565 558.984C89.9072 559.889 90.1825 561.149 90.1825 562.764C90.1825 564.397 89.9072 565.676 89.3565 566.6C88.8152 567.515 87.8772 567.972 86.5425 567.972C85.2078 567.972 84.2652 567.515 83.7145 566.6C83.1732 565.676 82.9025 564.397 82.9025 562.764ZM88.6145 562.764C88.6145 562.008 88.5632 561.369 88.4605 560.846C88.3672 560.323 88.1712 559.899 87.8725 559.572C87.5738 559.236 87.1305 559.068 86.5425 559.068C85.9545 559.068 85.5112 559.236 85.2125 559.572C84.9138 559.899 84.7132 560.323 84.6105 560.846C84.5172 561.369 84.4705 562.008 84.4705 562.764C84.4705 563.548 84.5172 564.206 84.6105 564.738C84.7038 565.27 84.8998 565.699 85.1985 566.026C85.5065 566.353 85.9545 566.516 86.5425 566.516C87.1305 566.516 87.5738 566.353 87.8725 566.026C88.1805 565.699 88.3812 565.27 88.4745 564.738C88.5678 564.206 88.6145 563.548 88.6145 562.764ZM91.8713 562.764C91.8713 561.149 92.1419 559.889 92.6833 558.984C93.2339 558.069 94.1766 557.612 95.5113 557.612C96.8459 557.612 97.7839 558.069 98.3253 558.984C98.8759 559.889 99.1513 561.149 99.1513 562.764C99.1513 564.397 98.8759 565.676 98.3253 566.6C97.7839 567.515 96.8459 567.972 95.5113 567.972C94.1766 567.972 93.2339 567.515 92.6833 566.6C92.1419 565.676 91.8713 564.397 91.8713 562.764ZM97.5833 562.764C97.5833 562.008 97.5319 561.369 97.4293 560.846C97.3359 560.323 97.1399 559.899 96.8413 559.572C96.5426 559.236 96.0993 559.068 95.5113 559.068C94.9233 559.068 94.4799 559.236 94.1813 559.572C93.8826 559.899 93.6819 560.323 93.5793 560.846C93.4859 561.369 93.4393 562.008 93.4393 562.764C93.4393 563.548 93.4859 564.206 93.5793 564.738C93.6726 565.27 93.8686 565.699 94.1673 566.026C94.4753 566.353 94.9233 566.516 95.5113 566.516C96.0993 566.516 96.5426 566.353 96.8413 566.026C97.1493 565.699 97.3499 565.27 97.4433 564.738C97.5366 564.206 97.5833 563.548 97.5833 562.764Z" fill="white"/>
<rect opacity="0.4" x="829" y="563" width="1.00002" height="718" transform="rotate(90 829 563)" fill="white"/>
<path opacity="0.4" d="M830 618L830 619L111 619L111 618L830 618Z" fill="white"/>
<circle cx="112" cy="618" r="2" fill="white"/>
<circle cx="193" cy="604" r="2" fill="white"/>
<circle cx="272" cy="587" r="2" fill="white"/>
<circle cx="352" cy="564" r="2" fill="white"/>
<circle cx="430" cy="517" r="2" fill="white"/>
<circle cx="515" cy="475" r="2" fill="white"/>
<circle cx="594" cy="458" r="2" fill="white"/>
<circle cx="672" cy="445" r="2" fill="white"/>
<circle cx="753" cy="434" r="2" fill="white"/>
<circle cx="829" cy="422" r="2" fill="white"/>
<circle cx="193" cy="581" r="2" fill="white"/>
<circle cx="272" cy="454" r="2" fill="white"/>
<circle cx="352" cy="360" r="2" fill="white"/>
<circle cx="431" cy="286" r="2" fill="white"/>
<circle cx="515" cy="257" r="2" fill="white"/>
<circle cx="594" cy="240" r="2" fill="white"/>
<circle cx="672" cy="219" r="2" fill="white"/>
<circle cx="753" cy="196" r="2" fill="white"/>
<circle cx="829" cy="159" r="2" fill="white"/>
<circle cx="193" cy="492" r="2" fill="white"/>
<circle cx="272" cy="435" r="2" fill="white"/>
<circle cx="352" cy="401" r="2" fill="white"/>
<circle cx="430" cy="360" r="2" fill="white"/>
<circle cx="515" cy="342" r="2" fill="white"/>
<circle cx="594" cy="326" r="2" fill="white"/>
<circle cx="672" cy="298" r="2" fill="white"/>
<circle cx="753" cy="272" r="2" fill="white"/>
<circle cx="829" cy="243" r="2" fill="white"/>
<defs>
<linearGradient id="paint0_linear_222_21035" x1="470" y1="101.7" x2="470" y2="616" gradientUnits="userSpaceOnUse">
<stop stop-color="#8554FB"/>
<stop offset="1" stop-color="#8555FB" stop-opacity="0"/>
</linearGradient>
<linearGradient id="paint1_linear_222_21035" x1="470" y1="250.957" x2="470" y2="616" gradientUnits="userSpaceOnUse">
<stop stop-color="#FFC700"/>
<stop offset="1" stop-color="#FFC701" stop-opacity="0"/>
</linearGradient>
<linearGradient id="paint2_linear_222_21035" x1="470" y1="341.516" x2="470" y2="616" gradientUnits="userSpaceOnUse">
<stop stop-color="#FF00FB"/>
<stop offset="1" stop-color="#FF01FB" stop-opacity="0"/>
</linearGradient>
</defs>
</svg>
