<svg xmlns="http://www.w3.org/2000/svg" width="127" height="14" viewBox="0 0 127 14" fill="none">
  <path d="M14.8458 0.929873L12.5752 13.1556H8.5425L9.43259 8.38965H5.59975L4.70966 13.1556H0.677002L2.94764 0.929873H6.9803L6.16287 5.33322H9.99571L10.8131 0.929873H14.8458Z" fill="white"/>
  <path d="M32.6455 0.929873L26.4512 9.443L25.7609 13.1556H21.7283L22.4185 9.443L19.385 0.929873H23.9989L25.2523 5.26414L28.1042 0.929873H32.6455Z" fill="white"/>
  <path d="M56.0946 3.96904L55.8221 5.48863H59.8184L59.2734 8.37239H55.2771L54.9501 10.0992H59.4914L58.9283 13.1556H50.3544L52.625 0.929873H61.199L60.6358 3.96904H56.0946Z" fill="white"/>
  <path d="M70.4878 10.2546H74.3751L73.8302 13.1556H65.9102L68.1808 0.929873H72.2135L70.4878 10.2546Z" fill="white"/>
  <path d="M85.0355 13.2765C83.9456 13.2765 82.9889 13.0635 82.1654 12.6376C81.3419 12.2116 80.7061 11.613 80.2581 10.8417C79.81 10.0589 79.586 9.16672 79.586 8.16517C79.586 6.70315 79.9008 5.4138 80.5305 4.29714C81.1724 3.16896 82.0625 2.29405 83.2008 1.6724C84.3513 1.03924 85.6713 0.722656 87.1608 0.722656C88.2749 0.722656 89.2438 0.935628 90.0672 1.36157C90.9028 1.77601 91.5447 2.36887 91.9927 3.14018C92.4408 3.89997 92.6648 4.78064 92.6648 5.78218C92.6648 7.2327 92.3439 8.5278 91.7021 9.66749C91.0724 10.8072 90.1762 11.6936 89.0137 12.3268C87.8632 12.9599 86.5371 13.2765 85.0355 13.2765ZM85.6531 9.70202C86.2828 9.70202 86.8278 9.54661 87.288 9.23579C87.7603 8.91345 88.1175 8.49326 88.3597 7.97522C88.6019 7.44567 88.723 6.87583 88.723 6.26569C88.723 5.63253 88.5414 5.14327 88.1781 4.79791C87.8269 4.44104 87.3182 4.2626 86.6522 4.2626C86.0225 4.2626 85.4715 4.41801 84.9992 4.72884C84.5269 5.03966 84.1636 5.45985 83.9093 5.9894C83.6671 6.50744 83.546 7.07153 83.546 7.68167C83.546 8.31483 83.7215 8.80984 84.0727 9.16671C84.436 9.52359 84.9628 9.70202 85.6531 9.70202Z" fill="white"/>
  <path d="M102.984 13.2765C101.894 13.2765 100.938 13.0635 100.114 12.6376C99.2906 12.2116 98.6548 11.613 98.2068 10.8417C97.7587 10.0589 97.5347 9.16672 97.5347 8.16517C97.5347 6.70315 97.8495 5.4138 98.4792 4.29714C99.1211 3.16896 100.011 2.29405 101.15 1.6724C102.3 1.03924 103.62 0.722656 105.11 0.722656C106.224 0.722656 107.192 0.935628 108.016 1.36157C108.852 1.77601 109.493 2.36887 109.941 3.14018C110.39 3.89997 110.614 4.78064 110.614 5.78218C110.614 7.2327 110.293 8.5278 109.651 9.66749C109.021 10.8072 108.125 11.6936 106.962 12.3268C105.812 12.9599 104.486 13.2765 102.984 13.2765ZM103.602 9.70202C104.232 9.70202 104.776 9.54661 105.237 9.23579C105.709 8.91345 106.066 8.49326 106.308 7.97522C106.551 7.44567 106.672 6.87583 106.672 6.26569C106.672 5.63253 106.49 5.14327 106.127 4.79791C105.776 4.44104 105.267 4.2626 104.601 4.2626C103.971 4.2626 103.42 4.41801 102.948 4.72884C102.476 5.03966 102.112 5.45985 101.858 5.9894C101.616 6.50744 101.495 7.07153 101.495 7.68167C101.495 8.31483 101.67 8.80984 102.021 9.16671C102.385 9.52359 102.912 9.70202 103.602 9.70202Z" fill="white"/>
  <path d="M127 0.929873L126.437 3.96904H123.022L121.314 13.1556H117.282L118.989 3.96904H115.611L116.174 0.929873H127Z" fill="white"/>
  <path fill-rule="evenodd" clip-rule="evenodd" d="M45.9872 7.2327C46.4716 6.59954 46.7865 5.8973 46.9318 5.126C46.9924 4.78064 47.0226 4.48133 47.0226 4.22806C47.0226 3.20349 46.6654 2.39765 45.9509 1.81054C45.2364 1.22343 44.1949 0.929873 42.8265 0.929873H37.1953L36.6244 4.00358H40.6648H41.8092C42.5237 4.00358 42.881 4.27987 42.881 4.83244C42.881 4.89 42.8689 4.98786 42.8447 5.126C42.6993 5.87428 42.2149 6.24842 41.3914 6.24842H40.247H36.2075L34.9247 13.1556H38.9573L39.6839 9.27032H41.2825C42.3239 9.27032 43.2443 9.08613 44.0436 8.71775C44.8549 8.34936 45.5028 7.85435 45.9872 7.2327Z" fill="white"/>
</svg>