<svg width="30" height="30" viewBox="0 0 30 30" fill="none" xmlns="http://www.w3.org/2000/svg">
<g id="Instagram">
<rect id="Rectangle" width="30" height="30" rx="15" fill="url(#paint0_linear_400_24933)"/>
<path id="Vector" d="M11.876 14.5733C11.876 12.8531 13.2747 11.4582 15.0005 11.4582C16.7263 11.4582 18.1257 12.8531 18.1257 14.5733C18.1257 16.2936 16.7263 17.6884 15.0005 17.6884C13.2747 17.6884 11.876 16.2936 11.876 14.5733ZM10.1865 14.5733C10.1865 17.2234 12.3417 19.3717 15.0005 19.3717C17.6592 19.3717 19.8144 17.2234 19.8144 14.5733C19.8144 11.9232 17.6592 9.775 15.0005 9.775C12.3417 9.775 10.1865 11.9232 10.1865 14.5733ZM18.88 9.58475C18.8799 9.80653 18.9458 10.0234 19.0694 10.2078C19.1929 10.3923 19.3685 10.5361 19.5741 10.621C19.7796 10.706 20.0058 10.7283 20.224 10.6851C20.4423 10.6419 20.6428 10.5352 20.8002 10.3784C20.9576 10.2217 21.0648 10.0219 21.1083 9.8044C21.1518 9.5869 21.1296 9.36142 21.0445 9.15649C20.9595 8.95156 20.8154 8.77637 20.6304 8.65308C20.4454 8.52979 20.228 8.46394 20.0055 8.46385H20.005C19.7068 8.46399 19.4208 8.58211 19.2098 8.79228C18.9989 9.00245 18.8803 9.28747 18.88 9.58475ZM11.213 22.1796C10.299 22.1381 9.80216 21.9863 9.47201 21.8581C9.03431 21.6883 8.72201 21.486 8.39366 21.1592C8.06531 20.8323 7.86206 20.5213 7.69241 20.0851C7.56371 19.7561 7.41146 19.2608 7.36991 18.3497C7.32446 17.3647 7.31539 17.0689 7.31539 14.5734C7.31539 12.078 7.32521 11.7829 7.36991 10.7971C7.41154 9.88602 7.56491 9.39165 7.69241 9.06175C7.86281 8.62547 8.06576 8.31419 8.39366 7.9869C8.72156 7.65962 9.03356 7.45703 9.47201 7.28793C9.80201 7.15965 10.299 7.00789 11.213 6.96648C12.2012 6.92117 12.498 6.91213 15.0005 6.91213C17.5029 6.91213 17.8001 6.92192 18.7891 6.96648C19.7031 7.00797 20.1991 7.16084 20.5301 7.28793C20.9678 7.45703 21.2801 7.66007 21.6084 7.9869C21.9368 8.31374 22.1393 8.62547 22.3097 9.06175C22.4384 9.39068 22.5906 9.88602 22.6322 10.7971C22.6776 11.7829 22.6867 12.078 22.6867 14.5734C22.6867 17.0689 22.6776 17.3639 22.6322 18.3497C22.5906 19.2608 22.4376 19.756 22.3097 20.0851C22.1393 20.5213 21.9363 20.8326 21.6084 21.1592C21.2805 21.4857 20.9678 21.6883 20.5301 21.8581C20.2001 21.9864 19.7031 22.1382 18.7891 22.1796C17.8009 22.2249 17.5041 22.2339 15.0005 22.2339C12.4969 22.2339 12.2009 22.2249 11.213 22.1796ZM11.1354 5.28535C10.1373 5.33065 9.45536 5.48839 8.85979 5.71939C8.24299 5.95794 7.72084 6.27797 7.19906 6.79723C6.67729 7.31649 6.35704 7.83776 6.11771 8.45256C5.88596 9.04658 5.72771 9.72596 5.68226 10.7207C5.63606 11.7171 5.62549 12.0356 5.62549 14.5733C5.62549 17.111 5.63606 17.4296 5.68226 18.4259C5.72771 19.4208 5.88596 20.1001 6.11771 20.6941C6.35704 21.3085 6.67736 21.8304 7.19906 22.3494C7.72076 22.8685 8.24299 23.188 8.85979 23.4273C9.45649 23.6583 10.1373 23.816 11.1354 23.8613C12.1355 23.9066 12.4545 23.9179 15.0005 23.9179C17.5464 23.9179 17.866 23.9074 18.8656 23.8613C19.8637 23.816 20.5452 23.6583 21.1412 23.4273C21.7576 23.188 22.2801 22.8687 22.8019 22.3494C23.3237 21.8302 23.6433 21.3085 23.8833 20.6941C24.115 20.1001 24.274 19.4207 24.3187 18.4259C24.3642 17.4288 24.3747 17.111 24.3747 14.5733C24.3747 12.0356 24.3642 11.7171 24.3187 10.7207C24.2733 9.72589 24.115 9.0462 23.8833 8.45256C23.6433 7.83814 23.3229 7.31731 22.8019 6.79723C22.281 6.27715 21.7576 5.95794 21.1419 5.71939C20.5452 5.48839 19.8636 5.32991 18.8664 5.28535C17.8668 5.24005 17.5472 5.22876 15.0012 5.22876C12.4553 5.22876 12.1355 5.2393 11.1354 5.28535Z" fill="white"/>
</g>
<defs>
<linearGradient id="paint0_linear_400_24933" x1="3.4375" y1="25" x2="26.5625" y2="5" gradientUnits="userSpaceOnUse">
<stop stop-color="#FFAE4D"/>
<stop offset="0.494792" stop-color="#ED4B61"/>
<stop offset="0.973958" stop-color="#AA31BE"/>
</linearGradient>
</defs>
</svg>
