<svg width="30" height="31" viewBox="0 0 30 31" fill="none" xmlns="http://www.w3.org/2000/svg">
<g clip-path="url(#clip0_628_623)">
<rect y="0.110352" width="30" height="30" rx="15" fill="#0077B5"/>
<path d="M23.3281 22.1883C22.3438 22.1649 21.3828 22.1649 20.3984 22.1883C20.1875 22.1883 20.1406 22.1415 20.1406 21.9305C20.1406 20.1962 20.1406 18.4383 20.1406 16.704C20.1406 16.3055 20.1172 15.9071 20 15.5321C19.6484 14.3133 18.2422 13.868 17.2344 14.6883C16.6953 15.1102 16.4844 15.6962 16.4844 16.3993C16.4844 18.0399 16.4844 19.6805 16.4844 21.3212C16.4844 21.5321 16.4609 21.743 16.4844 21.9774C16.5078 22.1649 16.4141 22.2118 16.25 22.1883C15.2422 22.1883 14.2578 22.1883 13.25 22.1883C13.0625 22.1883 13.0156 22.1415 13.0156 21.954C13.0391 20.4774 13.0391 19.0008 13.0391 17.5008C13.0391 15.6727 13.0391 13.8446 13.0156 12.0399C13.0156 11.829 13.0625 11.7821 13.25 11.7821C14.2578 11.7821 15.2422 11.7821 16.25 11.7821C16.4375 11.7821 16.4844 11.829 16.4844 12.0165C16.4844 12.3915 16.4844 12.7665 16.4844 13.2118C16.5547 13.1415 16.5781 13.118 16.6016 13.0946C17.5156 11.7587 18.8047 11.3837 20.3281 11.618C22.0859 11.8993 23.2109 13.118 23.4922 14.993C23.5625 15.4383 23.5859 15.8837 23.5859 16.329C23.5859 18.204 23.5859 20.0555 23.5859 21.9305C23.5859 22.118 23.5391 22.1883 23.3281 22.1883Z" fill="white"/>
<path d="M11.1406 16.9854C11.1406 18.626 11.1406 20.2666 11.1406 21.9072C11.1406 22.1182 11.0938 22.1885 10.8828 22.1885C9.89844 22.165 8.91406 22.1885 7.92969 22.1885C7.74219 22.1885 7.69531 22.1416 7.69531 21.9541C7.69531 18.6494 7.69531 15.3213 7.69531 12.0166C7.69531 11.8525 7.74219 11.7822 7.92969 11.7822C8.9375 11.7822 9.94531 11.7822 10.9531 11.7822C11.1641 11.7822 11.1875 11.8525 11.1875 12.04C11.1406 13.6807 11.1406 15.3213 11.1406 16.9854Z" fill="white"/>
<path d="M11.3047 9.06343C11.0703 10.0009 10.1093 10.54 9.00778 10.3525C7.8359 10.165 7.17965 9.01655 7.60153 7.89155C7.88278 7.18843 8.56247 6.76655 9.42965 6.78999C10.7422 6.76655 11.6093 7.82124 11.3047 9.06343Z" fill="white"/>
</g>
<defs>
<clipPath id="clip0_628_623">
<rect width="30" height="30" fill="white" transform="translate(0 0.110352)"/>
</clipPath>
</defs>
</svg>
