<svg width="30" height="31" viewBox="0 0 30 31" fill="none" xmlns="http://www.w3.org/2000/svg">
<g clip-path="url(#clip0_628_622)">
<rect y="0.110352" width="30" height="30" rx="15" fill="#D93025"/>
<path opacity="0.3" d="M23.437 8.23633H6.56323L7.18823 21.8291H22.812L23.437 8.23633Z" fill="white"/>
<path opacity="0.3" d="M23.437 8.23633H6.56323L14.3359 14.0364H15.7813L23.437 8.23633Z" fill="white"/>
<path opacity="0.1" d="M12.75 34.8604L24 24.7354L35.25 34.8604H12.75Z" fill="white"/>
<path fill-rule="evenodd" clip-rule="evenodd" d="M7.96932 9.40812C7.96932 8.76129 7.44529 8.23633 6.79753 8.23633C6.1507 8.23633 5.62573 8.76129 5.62573 9.40812C5.62573 11.9036 5.62573 17.7335 5.62573 20.423C5.62573 21.2001 6.25569 21.8291 7.03188 21.8291C7.5306 21.8291 7.96932 21.8291 7.96932 21.8291C7.96932 21.8291 7.96932 12.707 7.96932 9.40812Z" fill="white"/>
<path fill-rule="evenodd" clip-rule="evenodd" d="M22.0308 9.40812C22.0308 8.76129 22.5557 8.23633 23.2026 8.23633C23.2035 8.23633 23.2044 8.23633 23.2044 8.23633C23.8513 8.23633 24.3743 8.76035 24.3743 9.40625C24.3743 11.9008 24.3743 17.7325 24.3743 20.423C24.3743 21.2001 23.7453 21.8291 22.9682 21.8291C22.4704 21.8291 22.0308 21.8291 22.0308 21.8291C22.0308 21.8291 22.0308 12.707 22.0308 9.40812Z" fill="white"/>
<path fill-rule="evenodd" clip-rule="evenodd" d="M6.21062 10.4221C5.94158 10.2665 5.74565 10.0115 5.66503 9.71153C5.58441 9.41155 5.6266 9.09283 5.78221 8.82378C5.78221 8.82378 5.78315 8.82285 5.78315 8.82191C5.93876 8.55286 6.19468 8.35694 6.49466 8.27632C6.79464 8.1957 7.11431 8.23789 7.38335 8.3935L15 12.791L22.6185 8.39256C22.8876 8.23695 23.2063 8.19476 23.5063 8.27538C23.8063 8.356 24.0612 8.55193 24.2169 8.82097L24.2178 8.82191C24.3734 9.09095 24.4156 9.41155 24.335 9.71153C24.2543 10.0115 24.0575 10.2674 23.7884 10.423L17.3436 14.1437L15 15.4974L12.6564 14.1437L6.21062 10.4221Z" fill="white"/>
</g>
<defs>
<clipPath id="clip0_628_622">
<rect width="30" height="30" fill="white" transform="translate(0 0.110352)"/>
</clipPath>
</defs>
</svg>
