<svg width="30" height="31" viewBox="0 0 30 31" fill="none" xmlns="http://www.w3.org/2000/svg">
<g clip-path="url(#clip0_628_617)">
<path d="M29.8334 15.1107C29.8334 23.3024 23.1918 29.944 15.0001 29.944C6.80837 29.944 0.166748 23.3024 0.166748 15.1107C0.166748 6.91897 6.80837 0.277344 15.0001 0.277344C23.1918 0.277344 29.8334 6.91897 29.8334 15.1107Z" fill="url(#paint0_linear_628_617)"/>
<path opacity="0.05" d="M4.70499 14.7146C10.7533 11.9742 17.857 9.00083 18.9509 8.57066C21.3628 7.62207 22.4145 8.59143 22.2499 10.1378C22.0474 12.0328 21.0877 17.5471 20.4973 21.4979C20.1517 23.8097 18.8997 24.518 17.4869 23.6213C16.4152 22.9412 12.7306 20.5286 11.7612 19.7038C11.1004 19.1416 10.6398 18.5112 11.1085 17.8689C11.2457 17.6813 11.5966 17.303 11.7916 17.1147C12.7699 16.1668 12.6379 15.9629 11.4549 16.8091C11.314 16.91 10.4967 17.5026 10.1607 17.7265C9.33744 18.2754 8.5802 18.305 7.29637 17.8689C6.24617 17.5122 5.2375 17.237 4.60115 16.9619C3.72228 16.5814 3.38556 15.3124 4.70499 14.7146Z" fill="black"/>
<path opacity="0.07" d="M5.23661 14.8067C10.8525 12.2962 17.7589 9.41923 18.7691 9.01206C21.1899 8.03454 22.0806 8.61452 21.8203 10.5035C21.5785 12.2524 20.7204 17.6636 20.1189 21.2911C19.7644 23.4263 18.729 23.8966 17.3807 23.0244C16.5359 22.48 13.1361 20.2401 12.3114 19.5882C11.6735 19.0846 11.0127 18.5032 11.7848 17.6614C12.0429 17.3803 13.4684 16.0045 14.5341 14.981C15.152 14.3869 14.9317 14.094 14.1863 14.6042C12.8194 15.541 10.5833 17.0235 10.1843 17.2928C9.42406 17.8045 8.70984 17.9276 7.4668 17.5368C6.48706 17.2282 5.54069 16.9293 5.04749 16.7373C3.94537 16.3101 3.93054 15.3904 5.23661 14.8067Z" fill="black"/>
<path d="M5.7687 14.9008C10.953 12.6202 17.6613 9.83968 18.5877 9.45476C21.0166 8.44757 21.762 8.64041 21.3904 10.8713C21.1234 12.4748 20.3536 17.7829 19.7395 21.0871C19.3753 23.0465 18.558 23.2787 17.2734 22.431C16.6556 22.023 13.5369 19.9605 12.8598 19.4762C12.242 19.0349 11.3898 18.5038 12.4585 17.4581C12.839 17.0858 15.3318 14.705 17.2742 12.8523C17.5286 12.6091 17.2089 12.2093 16.9152 12.4044C14.2971 14.1406 10.6674 16.5503 10.2054 16.864C9.50744 17.3379 8.83698 17.5552 7.63399 17.2096C6.72471 16.9486 5.83694 16.6371 5.49132 16.5184C4.16003 16.0615 4.47598 15.4697 5.7687 14.9008Z" fill="white"/>
</g>
<defs>
<linearGradient id="paint0_linear_628_617" x1="4.51143" y1="4.62203" x2="25.4887" y2="25.5993" gradientUnits="userSpaceOnUse">
<stop stop-color="#33BEF0"/>
<stop offset="1" stop-color="#0A85D9"/>
</linearGradient>
<clipPath id="clip0_628_617">
<rect width="30" height="30" fill="white" transform="translate(0 0.110352)"/>
</clipPath>
</defs>
</svg>
