<svg width="30" height="30" viewBox="0 0 30 30" fill="none" xmlns="http://www.w3.org/2000/svg">
<g id="twitter-x-seeklogo.com-4 1" clip-path="url(#clip0_400_24928)">
<g id="Group">
<path id="Vector" d="M15.0001 29.7289C23.1337 29.7289 29.7273 23.1346 29.7273 15.0002C29.7273 6.86575 23.1337 0.271484 15.0001 0.271484C6.86653 0.271484 0.272949 6.86575 0.272949 15.0002C0.272949 23.1346 6.86653 29.7289 15.0001 29.7289Z" fill="black"/>
<g id="layer1">
<path id="path1009" d="M5.92815 6.4668L12.9676 15.88L5.88379 23.5333H7.47819L13.6802 16.8325L18.691 23.5333H24.1164L16.6808 13.5908L23.2744 6.4668H21.68L15.9685 12.6379L11.3536 6.4668H5.92815ZM8.27279 7.64123H10.7652L21.7715 22.3589H19.2791L8.27279 7.64123Z" fill="white"/>
</g>
</g>
</g>
<defs>
<clipPath id="clip0_400_24928">
<rect width="30" height="30" fill="white"/>
</clipPath>
</defs>
</svg>
