<svg width="804" height="530" viewBox="0 0 804 530" fill="none" xmlns="http://www.w3.org/2000/svg">
<path d="M161.822 459.527L81 490.273V494H799V37L723.19 74.2681L642.995 96.6289L562.799 118.524L482.604 135.76L401.782 163.712L322.213 237.782L242.644 330.486L161.822 459.527Z" fill="url(#paint0_linear_820_108)"/>
<path d="M161.822 371L81 494H799V121.5L723.19 150.5L642.995 176L562.799 204L482.604 220.683L402.408 237L322.213 278.5L242.017 313L161.822 371Z" fill="url(#paint1_linear_820_108)"/>
<path d="M161.822 481.904L81 494H799V300L723.19 311.631L642.995 322.796L562.799 336.288L482.604 353.966L402.408 393.046L322.213 442.36L242.017 464.691L161.822 481.904Z" fill="url(#paint2_linear_820_108)"/>
<g opacity="0.5">
<path d="M69.5919 510.054L74.4569 518.481L73.0747 519.279L69.7427 513.508L70.5044 520.763L69.5466 521.316L63.6321 517.036L66.9641 522.807L65.5819 523.605L60.7169 515.178L62.2082 514.317L68.9815 519.217L68.1128 510.908L69.5919 510.054ZM73.8669 514.327C73.4795 513.656 73.2739 512.983 73.2501 512.307C73.2343 511.626 73.3832 511.007 73.6968 510.449C74.0138 509.878 74.4632 509.424 75.0452 509.088C75.5706 508.785 76.0879 508.626 76.5972 508.613C77.11 508.586 77.5722 508.659 77.9839 508.83L77.4239 507.86L78.8183 507.055L82.6753 513.736L81.2809 514.541L80.7069 513.547C80.6545 513.997 80.4869 514.444 80.2041 514.888C79.9213 515.331 79.5213 515.702 79.0039 516.001C78.4301 516.332 77.8207 516.49 77.1758 516.475C76.5262 516.451 75.9083 516.258 75.3221 515.896C74.7393 515.521 74.2542 514.998 73.8669 514.327ZM79.3489 511.195C79.0829 510.734 78.755 510.39 78.365 510.162C77.9831 509.93 77.5872 509.814 77.1774 509.813C76.7676 509.813 76.3848 509.915 76.0292 510.121C75.6735 510.326 75.3935 510.606 75.189 510.961C74.9798 511.308 74.8763 511.708 74.8783 512.159C74.8837 512.598 75.0194 513.048 75.2854 513.508C75.5514 513.969 75.8777 514.32 76.2643 514.56C76.6589 514.795 77.0635 514.917 77.478 514.926C77.8959 514.922 78.2786 514.819 78.6262 514.619C78.9818 514.413 79.2619 514.133 79.4664 513.778C79.6709 513.423 79.7681 513.022 79.758 512.575C79.7513 512.115 79.6149 511.655 79.3489 511.195ZM82.5759 506.179C82.5819 505.723 82.697 505.306 82.9211 504.929C83.1485 504.539 83.4927 504.211 83.9534 503.945L84.7794 505.376L84.4278 505.579C83.8862 505.892 83.5533 506.267 83.4291 506.705C83.3129 507.139 83.4509 507.695 83.8429 508.374L85.8729 511.89L84.4907 512.688L80.6337 506.007L82.0159 505.209L82.5759 506.179Z" fill="white"/>
<path d="M149.556 516.158L146.028 518.195L146.416 520.267L144.973 521.1L143.12 510.918L144.721 509.994L152.612 516.69L151.157 517.53L149.556 516.158ZM148.517 515.255L144.886 512.129L145.765 516.844L148.517 515.255ZM152.016 509.435C152.073 508.993 152.243 508.55 152.526 508.107C152.809 507.663 153.205 507.294 153.714 507C154.296 506.664 154.91 506.504 155.555 506.52C156.203 506.523 156.814 506.703 157.387 507.062C157.961 507.421 158.441 507.935 158.828 508.606C159.216 509.277 159.426 509.959 159.459 510.651C159.488 511.335 159.346 511.967 159.034 512.546C158.725 513.112 158.279 513.563 157.697 513.899C157.188 514.193 156.677 514.353 156.164 514.38C155.647 514.398 155.174 514.326 154.746 514.164L157.14 518.311L155.758 519.109L150.067 509.251L151.449 508.453L152.016 509.435ZM157.422 509.418C157.156 508.958 156.83 508.618 156.445 508.398C156.063 508.166 155.666 508.056 155.252 508.068C154.843 508.068 154.46 508.17 154.104 508.376C153.757 508.576 153.477 508.857 153.264 509.216C153.059 509.572 152.958 509.975 152.96 510.426C152.97 510.873 153.108 511.327 153.374 511.788C153.64 512.248 153.967 512.599 154.353 512.839C154.743 513.067 155.143 513.181 155.553 513.181C155.971 513.177 156.354 513.074 156.701 512.874C157.057 512.668 157.337 512.388 157.541 512.033C157.749 511.665 157.846 511.254 157.831 510.799C157.824 510.339 157.688 509.879 157.422 509.418ZM160.227 504.679C160.233 504.223 160.348 503.806 160.572 503.429C160.799 503.039 161.143 502.711 161.604 502.445L162.43 503.876L162.078 504.079C161.537 504.392 161.204 504.767 161.08 505.205C160.964 505.639 161.102 506.195 161.494 506.874L163.524 510.39L162.141 511.188L158.284 504.507L159.667 503.709L160.227 504.679Z" fill="white"/>
<path d="M226.82 510.442L231.685 518.868L230.303 519.666L226.971 513.895L227.732 521.15L226.774 521.703L220.86 517.423L224.192 523.194L222.81 523.992L217.945 515.566L219.436 514.705L226.209 519.605L225.341 511.296L226.82 510.442ZM231.095 514.715C230.707 514.044 230.502 513.371 230.478 512.695C230.462 512.014 230.611 511.395 230.925 510.836C231.242 510.265 231.691 509.812 232.273 509.476C232.798 509.173 233.316 509.014 233.825 509C234.338 508.974 234.8 509.046 235.212 509.218L234.652 508.248L236.046 507.443L239.903 514.124L238.509 514.929L237.935 513.934C237.882 514.385 237.715 514.832 237.432 515.276C237.149 515.719 236.749 516.09 236.232 516.389C235.658 516.72 235.049 516.878 234.404 516.862C233.754 516.839 233.136 516.646 232.55 516.284C231.967 515.909 231.482 515.386 231.095 514.715ZM236.577 511.582C236.311 511.122 235.983 510.777 235.593 510.55C235.211 510.318 234.815 510.202 234.405 510.201C233.995 510.201 233.613 510.303 233.257 510.508C232.901 510.714 232.621 510.994 232.417 511.349C232.208 511.696 232.104 512.095 232.106 512.547C232.112 512.986 232.247 513.435 232.513 513.896C232.779 514.357 233.106 514.707 233.492 514.948C233.887 515.183 234.291 515.305 234.706 515.314C235.124 515.31 235.506 515.207 235.854 515.006C236.21 514.801 236.49 514.521 236.694 514.166C236.899 513.811 236.996 513.41 236.986 512.963C236.979 512.503 236.843 512.043 236.577 511.582ZM243.875 502.923L245.447 515.11L244.017 515.936L243.498 511.902L237.073 506.85L238.613 505.961L243.433 509.968L242.445 503.749L243.875 502.923Z" fill="white"/>
<path d="M305.297 510.465L308.804 516.539C309.238 517.291 309.351 518.018 309.142 518.72C308.941 519.418 308.469 519.982 307.726 520.411C306.982 520.84 306.254 520.97 305.541 520.799C304.836 520.624 304.267 520.161 303.833 519.409L305.227 518.604C305.45 518.971 305.713 519.213 306.017 519.328C306.329 519.439 306.663 519.392 307.019 519.187C307.374 518.981 307.582 518.716 307.642 518.39C307.697 518.057 307.62 517.708 307.41 517.344L303.903 511.27L305.297 510.465ZM314.604 507.42L318.461 514.1L317.078 514.898L316.623 514.11C316.564 514.511 316.403 514.895 316.141 515.262C315.882 515.616 315.554 515.907 315.158 516.136C314.633 516.439 314.097 516.603 313.551 516.628C313.012 516.647 312.498 516.513 312.009 516.225C311.527 515.932 311.111 515.482 310.761 514.876L308.493 510.948L309.863 510.157L312.012 513.879C312.357 514.477 312.773 514.851 313.259 515.002C313.74 515.144 314.239 515.066 314.756 514.768C315.273 514.469 315.591 514.076 315.708 513.588C315.828 513.087 315.716 512.538 315.37 511.94L313.221 508.218L314.604 507.42ZM319.735 504.312C320.26 504.008 320.792 503.847 321.33 503.827C321.877 503.802 322.391 503.937 322.872 504.23C323.354 504.523 323.77 504.973 324.12 505.579L326.395 509.519L325.025 510.31L322.869 506.576C322.524 505.978 322.11 505.607 321.629 505.465C321.144 505.314 320.642 505.388 320.125 505.687C319.607 505.986 319.289 506.385 319.168 506.886C319.051 507.374 319.165 507.917 319.51 508.515L321.666 512.249L320.284 513.047L316.427 506.367L317.809 505.569L318.25 506.332C318.318 505.927 318.481 505.547 318.74 505.193C319.007 504.834 319.339 504.54 319.735 504.312Z" fill="white"/>
<path d="M387.625 507.765L391.132 513.839C391.566 514.591 391.678 515.318 391.469 516.02C391.269 516.718 390.797 517.282 390.053 517.711C389.309 518.14 388.581 518.27 387.869 518.099C387.164 517.924 386.595 517.461 386.161 516.709L387.555 515.904C387.778 516.271 388.041 516.512 388.345 516.628C388.657 516.739 388.99 516.692 389.346 516.486C389.702 516.281 389.909 516.016 389.969 515.69C390.025 515.356 389.947 515.008 389.737 514.644L386.23 508.57L387.625 507.765ZM396.931 504.719L400.788 511.4L399.406 512.198L398.951 511.41C398.891 511.811 398.73 512.195 398.468 512.562C398.209 512.916 397.882 513.207 397.486 513.436C396.96 513.739 396.424 513.903 395.878 513.928C395.34 513.947 394.826 513.813 394.336 513.525C393.854 513.232 393.438 512.782 393.088 512.176L390.82 508.247L392.19 507.456L394.339 511.179C394.685 511.777 395.1 512.151 395.586 512.302C396.067 512.444 396.566 512.366 397.084 512.068C397.601 511.769 397.918 511.376 398.035 510.888C398.156 510.387 398.043 509.838 397.698 509.24L395.549 505.517L396.931 504.719ZM398.814 500.577L403.994 509.549L402.612 510.347L397.432 501.375L398.814 500.577Z" fill="white"/>
<path d="M466.465 519.018L462.937 521.055L463.324 523.126L461.882 523.959L460.029 513.778L461.629 512.854L469.52 519.549L468.065 520.389L466.465 519.018ZM465.426 518.114L461.795 514.989L462.674 519.703L465.426 518.114ZM473.026 508.618L476.883 515.298L475.5 516.096L475.045 515.308C474.986 515.709 474.825 516.093 474.563 516.46C474.304 516.814 473.976 517.106 473.58 517.334C473.055 517.638 472.519 517.802 471.973 517.826C471.434 517.846 470.92 517.711 470.431 517.423C469.949 517.13 469.533 516.68 469.183 516.074L466.915 512.146L468.285 511.355L470.434 515.077C470.779 515.675 471.195 516.05 471.681 516.2C472.162 516.343 472.661 516.265 473.178 515.966C473.695 515.667 474.013 515.274 474.13 514.786C474.25 514.286 474.138 513.736 473.792 513.138L471.643 509.416L473.026 508.618ZM477.478 505.902C477.995 505.603 478.513 505.445 479.03 505.426C479.551 505.395 480.013 505.467 480.417 505.644L479.857 504.674L481.251 503.869L485.171 510.659C485.526 511.273 485.711 511.893 485.728 512.519C485.749 513.154 485.593 513.751 485.258 514.31C484.932 514.865 484.429 515.338 483.75 515.73C482.845 516.253 481.97 516.473 481.124 516.39C480.284 516.315 479.613 515.937 479.112 515.256L480.482 514.465C480.788 514.752 481.171 514.902 481.632 514.917C482.105 514.934 482.581 514.805 483.057 514.53C483.615 514.208 483.966 513.779 484.109 513.244C484.261 512.704 484.15 512.11 483.777 511.464L483.133 510.348C483.08 510.799 482.915 511.25 482.637 511.701C482.362 512.14 481.97 512.507 481.461 512.801C480.879 513.137 480.261 513.299 479.608 513.288C478.959 513.264 478.341 513.071 477.755 512.709C477.172 512.335 476.687 511.812 476.3 511.141C475.912 510.47 475.707 509.797 475.683 509.121C475.667 508.44 475.816 507.82 476.129 507.262C476.446 506.691 476.896 506.238 477.478 505.902ZM481.782 508.008C481.516 507.547 481.188 507.203 480.798 506.976C480.416 506.744 480.02 506.627 479.61 506.627C479.2 506.626 478.818 506.729 478.462 506.934C478.106 507.139 477.826 507.42 477.622 507.775C477.413 508.122 477.309 508.521 477.311 508.973C477.316 509.411 477.452 509.861 477.718 510.322C477.984 510.783 478.31 511.133 478.697 511.373C479.092 511.609 479.496 511.731 479.911 511.739C480.329 511.735 480.711 511.633 481.059 511.432C481.415 511.227 481.695 510.947 481.899 510.591C482.104 510.236 482.201 509.835 482.191 509.389C482.184 508.929 482.048 508.469 481.782 508.008Z" fill="white"/>
<path d="M546.114 524.272C545.548 524.599 544.983 524.796 544.419 524.863C543.849 524.922 543.33 524.845 542.862 524.631C542.393 524.416 542.019 524.066 541.739 523.581L543.218 522.727C543.46 523.073 543.774 523.29 544.16 523.38C544.554 523.465 544.981 523.374 545.442 523.108C545.919 522.833 546.226 522.505 546.362 522.125C546.493 521.736 546.454 521.36 546.244 520.997C546.08 520.714 545.863 520.532 545.59 520.453C545.326 520.368 545.04 520.35 544.734 520.397C544.435 520.44 544.035 520.531 543.533 520.67C542.9 520.842 542.367 520.955 541.936 521.011C541.507 521.053 541.081 520.987 540.657 520.811C540.232 520.636 539.868 520.286 539.565 519.76C539.285 519.275 539.161 518.781 539.194 518.277C539.226 517.774 539.405 517.299 539.729 516.853C540.054 516.407 540.503 516.018 541.077 515.687C541.893 515.215 542.679 515.037 543.434 515.15C544.193 515.251 544.806 515.641 545.273 516.319L543.745 517.201C543.544 516.908 543.247 516.729 542.854 516.665C542.461 516.601 542.047 516.695 541.61 516.947C541.214 517.176 540.949 517.463 540.815 517.81C540.681 518.157 540.724 518.52 540.943 518.9C541.093 519.159 541.293 519.328 541.545 519.41C541.8 519.478 542.076 519.49 542.375 519.447C542.673 519.404 543.065 519.318 543.551 519.189C544.197 519.02 544.739 518.913 545.175 518.865C545.619 518.814 546.056 518.879 546.485 519.063C546.918 519.233 547.288 519.585 547.596 520.119C547.843 520.547 547.96 521.019 547.944 521.534C547.937 522.045 547.779 522.546 547.47 523.037C547.164 523.515 546.712 523.927 546.114 524.272ZM554.706 514.527C554.85 514.777 554.965 515.013 555.049 515.234L549.945 518.181C550.293 518.691 550.739 519.005 551.281 519.123C551.823 519.241 552.353 519.151 552.87 518.852C553.614 518.423 553.96 517.808 553.908 517.008L555.399 516.147C555.551 516.878 555.475 517.596 555.171 518.3C554.869 518.991 554.326 519.563 553.542 520.016C552.904 520.385 552.248 520.574 551.576 520.585C550.907 520.584 550.277 520.408 549.688 520.059C549.101 519.697 548.61 519.172 548.213 518.485C547.817 517.798 547.606 517.117 547.582 516.441C547.562 515.752 547.721 515.122 548.059 514.549C548.404 513.973 548.905 513.495 549.559 513.117C550.19 512.753 550.831 512.566 551.483 512.556C552.134 512.546 552.742 512.713 553.307 513.055C553.866 513.39 554.332 513.88 554.706 514.527ZM553.011 514.923C552.709 514.419 552.291 514.116 551.758 514.014C551.225 513.912 550.696 514.013 550.171 514.316C549.694 514.591 549.374 514.981 549.212 515.484C549.045 515.979 549.079 516.504 549.313 517.058L553.011 514.923ZM556.181 510.749C556.238 510.306 556.408 509.864 556.691 509.42C556.974 508.977 557.37 508.608 557.879 508.314C558.461 507.978 559.074 507.818 559.719 507.833C560.368 507.836 560.979 508.017 561.552 508.376C562.125 508.734 562.606 509.249 562.993 509.92C563.381 510.591 563.591 511.272 563.624 511.964C563.653 512.648 563.511 513.28 563.198 513.859C562.889 514.425 562.444 514.877 561.862 515.213C561.353 515.507 560.842 515.667 560.329 515.693C559.812 515.712 559.339 515.64 558.911 515.477L561.305 519.624L559.923 520.422L554.232 510.565L555.614 509.767L556.181 510.749ZM561.587 510.732C561.321 510.271 560.995 509.931 560.61 509.712C560.228 509.48 559.83 509.37 559.417 509.382C559.007 509.381 558.625 509.484 558.269 509.689C557.921 509.89 557.641 510.17 557.429 510.53C557.224 510.885 557.123 511.288 557.125 511.74C557.135 512.187 557.273 512.64 557.539 513.101C557.805 513.562 558.131 513.912 558.518 514.153C558.908 514.38 559.308 514.494 559.718 514.494C560.136 514.49 560.518 514.388 560.866 514.187C561.222 513.982 561.502 513.702 561.706 513.346C561.914 512.979 562.011 512.567 561.996 512.112C561.989 511.653 561.853 511.193 561.587 510.732Z" fill="white"/>
<path d="M626.56 520.658C625.776 521.111 624.948 521.347 624.075 521.366C623.206 521.372 622.388 521.159 621.622 520.729C620.86 520.285 620.24 519.651 619.764 518.827C619.288 518.002 619.051 517.153 619.053 516.279C619.063 515.4 619.29 514.59 619.735 513.848C620.183 513.094 620.799 512.49 621.583 512.038C622.376 511.58 623.206 511.349 624.076 511.342C624.949 511.324 625.764 511.532 626.522 511.967C627.28 512.403 627.897 513.032 628.373 513.857C628.849 514.681 629.088 515.535 629.091 516.417C629.089 517.291 628.864 518.105 628.416 518.86C627.971 519.601 627.353 520.201 626.56 520.658ZM625.867 519.458C626.425 519.136 626.85 518.724 627.142 518.221C627.429 517.71 627.558 517.151 627.53 516.542C627.505 515.92 627.313 515.298 626.954 514.676C626.595 514.054 626.154 513.58 625.633 513.256C625.12 512.927 624.573 512.764 623.992 512.765C623.411 512.766 622.841 512.928 622.283 513.25C621.726 513.572 621.301 513.984 621.009 514.487C620.717 514.99 620.581 515.548 620.602 516.161C620.63 516.77 620.824 517.386 621.183 518.008C621.542 518.63 621.981 519.11 622.499 519.447C623.02 519.771 623.573 519.936 624.159 519.943C624.74 519.942 625.31 519.78 625.867 519.458ZM629.783 514.223C629.386 513.536 629.176 512.854 629.152 512.178C629.132 511.489 629.286 510.861 629.616 510.294C629.946 509.726 630.43 509.258 631.069 508.889C631.877 508.423 632.656 508.232 633.405 508.316C634.158 508.388 634.833 508.726 635.429 509.33L633.938 510.191C633.625 509.93 633.282 509.783 632.908 509.751C632.534 509.719 632.145 509.82 631.741 510.053C631.175 510.38 630.839 510.843 630.733 511.444C630.63 512.031 630.786 512.684 631.202 513.404C631.617 514.123 632.107 514.589 632.672 514.802C633.244 515.01 633.814 514.951 634.38 514.624C635.18 514.162 635.506 513.505 635.359 512.652L636.85 511.791C637.048 512.582 636.997 513.334 636.697 514.046C636.392 514.75 635.844 515.331 635.052 515.788C634.413 516.157 633.766 516.342 633.109 516.344C632.448 516.337 631.827 516.157 631.245 515.803C630.667 515.437 630.18 514.91 629.783 514.223ZM637.852 506.622L639.987 510.32C640.132 510.57 640.293 510.72 640.472 510.767C640.654 510.802 640.886 510.738 641.169 510.575L642.018 510.085L642.683 511.237L641.592 511.867C640.969 512.226 640.408 512.356 639.909 512.256C639.41 512.157 638.971 511.779 638.593 511.125L636.458 507.427L635.67 507.882L635.019 506.754L635.807 506.299L634.848 504.638L636.242 503.833L637.201 505.494L638.826 504.556L639.477 505.684L637.852 506.622Z" fill="white"/>
<path d="M707.673 522.546L706.291 523.344L698.499 519.453L702.132 525.745L700.75 526.543L695.878 518.105L697.26 517.307L705.045 521.186L701.419 514.906L702.801 514.108L707.673 522.546ZM712.449 519.934C711.818 520.298 711.167 520.486 710.494 520.497C709.817 520.5 709.184 520.327 708.594 519.978C708 519.62 707.504 519.098 707.107 518.411C706.715 517.732 706.517 517.044 706.513 516.345C706.509 515.647 706.684 515.008 707.038 514.426C707.392 513.844 707.888 513.369 708.526 513.001C709.165 512.632 709.825 512.44 710.505 512.424C711.186 512.408 711.827 512.577 712.43 512.929C713.032 513.282 713.529 513.798 713.921 514.477C714.313 515.156 714.507 515.847 714.504 516.55C714.5 517.252 714.315 517.903 713.95 518.502C713.588 519.088 713.087 519.566 712.449 519.934ZM711.756 518.734C712.111 518.529 712.394 518.253 712.603 517.906C712.82 517.554 712.928 517.152 712.926 516.701C712.924 516.249 712.783 515.781 712.503 515.296C712.223 514.811 711.894 514.457 711.517 514.232C711.135 514 710.741 513.888 710.336 513.896C709.931 513.903 709.551 514.01 709.195 514.215C708.839 514.42 708.557 514.697 708.348 515.044C708.147 515.386 708.055 515.778 708.074 516.22C708.087 516.655 708.234 517.114 708.514 517.599C708.929 518.318 709.433 518.771 710.025 518.957C710.621 519.131 711.198 519.056 711.756 518.734ZM719.088 514.307L717.837 507.771L719.304 506.924L720.615 515.074L718.966 516.026L712.575 510.809L714.054 509.955L719.088 514.307Z" fill="white"/>
<path d="M778.126 514.966C779.024 514.448 779.908 514.169 780.78 514.13C781.654 514.077 782.461 514.269 783.198 514.706C783.938 515.13 784.556 515.77 785.05 516.627C785.545 517.484 785.788 518.335 785.781 519.18C785.781 520.02 785.539 520.806 785.057 521.538C784.577 522.256 783.889 522.875 782.991 523.393L780.239 524.982L775.374 516.555L778.126 514.966ZM782.34 522.265C783.327 521.696 783.928 520.993 784.146 520.156C784.363 519.319 784.192 518.416 783.632 517.446C783.067 516.468 782.363 515.856 781.521 515.609C780.678 515.363 779.764 515.525 778.777 516.094L777.407 516.885L780.97 523.056L782.34 522.265ZM792.935 512.98C793.08 513.23 793.194 513.466 793.278 513.687L788.174 516.634C788.523 517.144 788.968 517.458 789.51 517.576C790.053 517.694 790.582 517.604 791.1 517.305C791.843 516.876 792.189 516.261 792.137 515.461L793.628 514.6C793.781 515.331 793.705 516.049 793.4 516.753C793.098 517.444 792.556 518.016 791.772 518.469C791.133 518.838 790.478 519.028 789.805 519.039C789.136 519.037 788.506 518.861 787.917 518.512C787.331 518.15 786.839 517.626 786.442 516.939C786.046 516.251 785.836 515.57 785.812 514.894C785.791 514.205 785.95 513.575 786.288 513.003C786.634 512.426 787.134 511.948 787.789 511.57C788.419 511.206 789.06 511.019 789.712 511.009C790.364 511 790.972 511.166 791.536 511.508C792.095 511.843 792.562 512.333 792.935 512.98ZM791.24 513.376C790.938 512.872 790.521 512.569 789.988 512.467C789.455 512.365 788.925 512.466 788.4 512.769C787.923 513.044 787.604 513.434 787.441 513.937C787.275 514.432 787.308 514.957 787.542 515.511L791.24 513.376ZM793.925 512.618C793.529 511.931 793.319 511.25 793.295 510.574C793.274 509.885 793.429 509.257 793.759 508.689C794.088 508.122 794.572 507.654 795.211 507.285C796.019 506.818 796.798 506.627 797.548 506.712C798.3 506.784 798.975 507.122 799.572 507.726L798.08 508.587C797.768 508.325 797.424 508.179 797.05 508.147C796.676 508.115 796.287 508.216 795.883 508.449C795.317 508.776 794.981 509.239 794.875 509.839C794.772 510.426 794.929 511.08 795.344 511.799C795.759 512.519 796.249 512.985 796.814 513.198C797.387 513.406 797.956 513.346 798.522 513.02C799.322 512.558 799.649 511.9 799.501 511.048L800.993 510.187C801.191 510.978 801.14 511.729 800.839 512.442C800.535 513.146 799.986 513.726 799.194 514.184C798.555 514.552 797.908 514.738 797.252 514.739C796.591 514.733 795.969 514.553 795.388 514.199C794.81 513.832 794.322 513.305 793.925 512.618Z" fill="white"/>
</g>
<path opacity="0.5" d="M2.58333 9.83C3.47933 9.05533 4.18399 8.42067 4.69733 7.926C5.22 7.422 5.65399 6.89933 5.99933 6.358C6.34466 5.81667 6.51733 5.27533 6.51733 4.734C6.51733 4.174 6.382 3.73533 6.11133 3.418C5.84999 3.10067 5.43466 2.942 4.86533 2.942C4.31466 2.942 3.88533 3.11933 3.57733 3.474C3.27866 3.81933 3.11999 4.286 3.10133 4.874H1.56133C1.58933 3.81 1.90666 2.998 2.51333 2.438C3.12933 1.86867 3.90866 1.584 4.85133 1.584C5.86866 1.584 6.662 1.864 7.23133 2.424C7.81 2.984 8.09933 3.73067 8.09933 4.664C8.09933 5.336 7.92666 5.98467 7.58133 6.61C7.24533 7.226 6.83933 7.78133 6.36333 8.276C5.89666 8.76133 5.29933 9.326 4.57133 9.97L3.94133 10.53H8.37933V11.86H1.57533V10.698L2.58333 9.83ZM19.9981 3.166H15.3081V5.952C15.5041 5.69067 15.7935 5.47133 16.1761 5.294C16.5681 5.11667 16.9835 5.028 17.4221 5.028C18.2061 5.028 18.8408 5.196 19.3261 5.532C19.8208 5.868 20.1708 6.29267 20.3761 6.806C20.5908 7.31933 20.6981 7.86067 20.6981 8.43C20.6981 9.12067 20.5628 9.73667 20.2921 10.278C20.0308 10.81 19.6341 11.23 19.1021 11.538C18.5795 11.846 17.9355 12 17.1701 12C16.1528 12 15.3361 11.748 14.7201 11.244C14.1041 10.74 13.7355 10.0727 13.6141 9.242H15.1681C15.2708 9.68067 15.4995 10.0307 15.8541 10.292C16.2088 10.544 16.6521 10.67 17.1841 10.67C17.8468 10.67 18.3415 10.4693 18.6681 10.068C19.0041 9.66667 19.1721 9.13467 19.1721 8.472C19.1721 7.8 19.0041 7.28667 18.6681 6.932C18.3321 6.568 17.8375 6.386 17.1841 6.386C16.7268 6.386 16.3395 6.50267 16.0221 6.736C15.7141 6.96 15.4901 7.268 15.3501 7.66H13.8381V1.766L19.9981 1.766V3.166ZM22.3595 6.764C22.3595 5.14933 22.6302 3.88933 23.1715 2.984C23.7222 2.06933 24.6649 1.612 25.9995 1.612C27.3342 1.612 28.2722 2.06933 28.8135 2.984C29.3642 3.88933 29.6395 5.14933 29.6395 6.764C29.6395 8.39733 29.3642 9.676 28.8135 10.6C28.2722 11.5147 27.3342 11.972 25.9995 11.972C24.6649 11.972 23.7222 11.5147 23.1715 10.6C22.6302 9.676 22.3595 8.39733 22.3595 6.764ZM28.0715 6.764C28.0715 6.008 28.0202 5.36867 27.9175 4.846C27.8242 4.32333 27.6282 3.89867 27.3295 3.572C27.0309 3.236 26.5875 3.068 25.9995 3.068C25.4115 3.068 24.9682 3.236 24.6695 3.572C24.3709 3.89867 24.1702 4.32333 24.0675 4.846C23.9742 5.36867 23.9275 6.008 23.9275 6.764C23.9275 7.548 23.9742 8.206 24.0675 8.738C24.1609 9.27 24.3569 9.69933 24.6555 10.026C24.9635 10.3527 25.4115 10.516 25.9995 10.516C26.5875 10.516 27.0309 10.3527 27.3295 10.026C27.6375 9.69933 27.8382 9.27 27.9315 8.738C28.0249 8.206 28.0715 7.548 28.0715 6.764ZM31.3283 6.764C31.3283 5.14933 31.5989 3.88933 32.1403 2.984C32.6909 2.06933 33.6336 1.612 34.9683 1.612C36.3029 1.612 37.2409 2.06933 37.7823 2.984C38.3329 3.88933 38.6083 5.14933 38.6083 6.764C38.6083 8.39733 38.3329 9.676 37.7823 10.6C37.2409 11.5147 36.3029 11.972 34.9683 11.972C33.6336 11.972 32.6909 11.5147 32.1403 10.6C31.5989 9.676 31.3283 8.39733 31.3283 6.764ZM37.0403 6.764C37.0403 6.008 36.9889 5.36867 36.8863 4.846C36.7929 4.32333 36.5969 3.89867 36.2983 3.572C35.9996 3.236 35.5563 3.068 34.9683 3.068C34.3803 3.068 33.9369 3.236 33.6383 3.572C33.3396 3.89867 33.1389 4.32333 33.0363 4.846C32.9429 5.36867 32.8963 6.008 32.8963 6.764C32.8963 7.548 32.9429 8.206 33.0363 8.738C33.1296 9.27 33.3256 9.69933 33.6243 10.026C33.9323 10.3527 34.3803 10.516 34.9683 10.516C35.5563 10.516 35.9996 10.3527 36.2983 10.026C36.6063 9.69933 36.8069 9.27 36.9003 8.738C36.9936 8.206 37.0403 7.548 37.0403 6.764ZM43.9338 6.764C43.9338 5.14933 44.2044 3.88933 44.7458 2.984C45.2964 2.06933 46.2391 1.612 47.5738 1.612C48.9084 1.612 49.8464 2.06933 50.3878 2.984C50.9384 3.88933 51.2138 5.14933 51.2138 6.764C51.2138 8.39733 50.9384 9.676 50.3878 10.6C49.8464 11.5147 48.9084 11.972 47.5738 11.972C46.2391 11.972 45.2964 11.5147 44.7458 10.6C44.2044 9.676 43.9338 8.39733 43.9338 6.764ZM49.6458 6.764C49.6458 6.008 49.5944 5.36867 49.4918 4.846C49.3984 4.32333 49.2024 3.89867 48.9038 3.572C48.6051 3.236 48.1618 3.068 47.5738 3.068C46.9858 3.068 46.5424 3.236 46.2438 3.572C45.9451 3.89867 45.7444 4.32333 45.6418 4.846C45.5484 5.36867 45.5018 6.008 45.5018 6.764C45.5018 7.548 45.5484 8.206 45.6418 8.738C45.7351 9.27 45.9311 9.69933 46.2298 10.026C46.5378 10.3527 46.9858 10.516 47.5738 10.516C48.1618 10.516 48.6051 10.3527 48.9038 10.026C49.2118 9.69933 49.4124 9.27 49.5058 8.738C49.5991 8.206 49.6458 7.548 49.6458 6.764ZM52.9025 6.764C52.9025 5.14933 53.1732 3.88933 53.7145 2.984C54.2652 2.06933 55.2078 1.612 56.5425 1.612C57.8772 1.612 58.8152 2.06933 59.3565 2.984C59.9072 3.88933 60.1825 5.14933 60.1825 6.764C60.1825 8.39733 59.9072 9.676 59.3565 10.6C58.8152 11.5147 57.8772 11.972 56.5425 11.972C55.2078 11.972 54.2652 11.5147 53.7145 10.6C53.1732 9.676 52.9025 8.39733 52.9025 6.764ZM58.6145 6.764C58.6145 6.008 58.5632 5.36867 58.4605 4.846C58.3672 4.32333 58.1712 3.89867 57.8725 3.572C57.5738 3.236 57.1305 3.068 56.5425 3.068C55.9545 3.068 55.5112 3.236 55.2125 3.572C54.9138 3.89867 54.7132 4.32333 54.6105 4.846C54.5172 5.36867 54.4705 6.008 54.4705 6.764C54.4705 7.548 54.5172 8.206 54.6105 8.738C54.7038 9.27 54.8998 9.69933 55.1985 10.026C55.5065 10.3527 55.9545 10.516 56.5425 10.516C57.1305 10.516 57.5738 10.3527 57.8725 10.026C58.1805 9.69933 58.3812 9.27 58.4745 8.738C58.5678 8.206 58.6145 7.548 58.6145 6.764ZM61.8713 6.764C61.8713 5.14933 62.1419 3.88933 62.6833 2.984C63.2339 2.06933 64.1766 1.612 65.5113 1.612C66.8459 1.612 67.7839 2.06933 68.3253 2.984C68.8759 3.88933 69.1513 5.14933 69.1513 6.764C69.1513 8.39733 68.8759 9.676 68.3253 10.6C67.7839 11.5147 66.8459 11.972 65.5113 11.972C64.1766 11.972 63.2339 11.5147 62.6833 10.6C62.1419 9.676 61.8713 8.39733 61.8713 6.764ZM67.5833 6.764C67.5833 6.008 67.5319 5.36867 67.4293 4.846C67.3359 4.32333 67.1399 3.89867 66.8413 3.572C66.5426 3.236 66.0993 3.068 65.5113 3.068C64.9233 3.068 64.4799 3.236 64.1813 3.572C63.8826 3.89867 63.6819 4.32333 63.5793 4.846C63.4859 5.36867 63.4393 6.008 63.4393 6.764C63.4393 7.548 63.4859 8.206 63.5793 8.738C63.6726 9.27 63.8686 9.69933 64.1673 10.026C64.4753 10.3527 64.9233 10.516 65.5113 10.516C66.0993 10.516 66.5426 10.3527 66.8413 10.026C67.1493 9.69933 67.3499 9.27 67.4433 8.738C67.5366 8.206 67.5833 7.548 67.5833 6.764Z" fill="white"/>
<rect opacity="0.4" x="799" y="7" width="1.00002" height="718" transform="rotate(90 799 7)" fill="white"/>
<path opacity="0.5" d="M2.55598 71.83C3.45198 71.0553 4.15665 70.4207 4.66998 69.926C5.19265 69.422 5.62665 68.8993 5.97198 68.358C6.31732 67.8167 6.48998 67.2753 6.48998 66.734C6.48998 66.174 6.35465 65.7353 6.08398 65.418C5.82265 65.1007 5.40732 64.942 4.83798 64.942C4.28732 64.942 3.85798 65.1193 3.54998 65.474C3.25132 65.8193 3.09265 66.286 3.07398 66.874H1.53398C1.56198 65.81 1.87932 64.998 2.48598 64.438C3.10198 63.8687 3.88132 63.584 4.82398 63.584C5.84132 63.584 6.63465 63.864 7.20398 64.424C7.78265 64.984 8.07198 65.7307 8.07198 66.664C8.07198 67.336 7.89932 67.9847 7.55398 68.61C7.21798 69.226 6.81198 69.7813 6.33598 70.276C5.86932 70.7613 5.27198 71.326 4.54398 71.97L3.91398 72.53H8.35198V73.86H1.54798V72.698L2.55598 71.83ZM13.3908 68.764C13.3908 67.1493 13.6614 65.8893 14.2028 64.984C14.7534 64.0693 15.6961 63.612 17.0308 63.612C18.3654 63.612 19.3034 64.0693 19.8448 64.984C20.3954 65.8893 20.6708 67.1493 20.6708 68.764C20.6708 70.3973 20.3954 71.676 19.8448 72.6C19.3034 73.5147 18.3654 73.972 17.0308 73.972C15.6961 73.972 14.7534 73.5147 14.2028 72.6C13.6614 71.676 13.3908 70.3973 13.3908 68.764ZM19.1028 68.764C19.1028 68.008 19.0514 67.3687 18.9488 66.846C18.8554 66.3233 18.6594 65.8987 18.3608 65.572C18.0621 65.236 17.6188 65.068 17.0308 65.068C16.4428 65.068 15.9994 65.236 15.7008 65.572C15.4021 65.8987 15.2014 66.3233 15.0988 66.846C15.0054 67.3687 14.9588 68.008 14.9588 68.764C14.9588 69.548 15.0054 70.206 15.0988 70.738C15.1921 71.27 15.3881 71.6993 15.6868 72.026C15.9948 72.3527 16.4428 72.516 17.0308 72.516C17.6188 72.516 18.0621 72.3527 18.3608 72.026C18.6688 71.6993 18.8694 71.27 18.9628 70.738C19.0561 70.206 19.1028 69.548 19.1028 68.764ZM22.3595 68.764C22.3595 67.1493 22.6302 65.8893 23.1715 64.984C23.7222 64.0693 24.6649 63.612 25.9995 63.612C27.3342 63.612 28.2722 64.0693 28.8135 64.984C29.3642 65.8893 29.6395 67.1493 29.6395 68.764C29.6395 70.3973 29.3642 71.676 28.8135 72.6C28.2722 73.5147 27.3342 73.972 25.9995 73.972C24.6649 73.972 23.7222 73.5147 23.1715 72.6C22.6302 71.676 22.3595 70.3973 22.3595 68.764ZM28.0715 68.764C28.0715 68.008 28.0202 67.3687 27.9175 66.846C27.8242 66.3233 27.6282 65.8987 27.3295 65.572C27.0309 65.236 26.5875 65.068 25.9995 65.068C25.4115 65.068 24.9682 65.236 24.6695 65.572C24.3709 65.8987 24.1702 66.3233 24.0675 66.846C23.9742 67.3687 23.9275 68.008 23.9275 68.764C23.9275 69.548 23.9742 70.206 24.0675 70.738C24.1609 71.27 24.3569 71.6993 24.6555 72.026C24.9635 72.3527 25.4115 72.516 25.9995 72.516C26.5875 72.516 27.0309 72.3527 27.3295 72.026C27.6375 71.6993 27.8382 71.27 27.9315 70.738C28.0249 70.206 28.0715 69.548 28.0715 68.764ZM31.3283 68.764C31.3283 67.1493 31.5989 65.8893 32.1403 64.984C32.6909 64.0693 33.6336 63.612 34.9683 63.612C36.3029 63.612 37.2409 64.0693 37.7823 64.984C38.3329 65.8893 38.6083 67.1493 38.6083 68.764C38.6083 70.3973 38.3329 71.676 37.7823 72.6C37.2409 73.5147 36.3029 73.972 34.9683 73.972C33.6336 73.972 32.6909 73.5147 32.1403 72.6C31.5989 71.676 31.3283 70.3973 31.3283 68.764ZM37.0403 68.764C37.0403 68.008 36.9889 67.3687 36.8863 66.846C36.7929 66.3233 36.5969 65.8987 36.2983 65.572C35.9996 65.236 35.5563 65.068 34.9683 65.068C34.3803 65.068 33.9369 65.236 33.6383 65.572C33.3396 65.8987 33.1389 66.3233 33.0363 66.846C32.9429 67.3687 32.8963 68.008 32.8963 68.764C32.8963 69.548 32.9429 70.206 33.0363 70.738C33.1296 71.27 33.3256 71.6993 33.6243 72.026C33.9323 72.3527 34.3803 72.516 34.9683 72.516C35.5563 72.516 35.9996 72.3527 36.2983 72.026C36.6063 71.6993 36.8069 71.27 36.9003 70.738C36.9936 70.206 37.0403 69.548 37.0403 68.764ZM43.9338 68.764C43.9338 67.1493 44.2044 65.8893 44.7458 64.984C45.2964 64.0693 46.2391 63.612 47.5738 63.612C48.9084 63.612 49.8464 64.0693 50.3878 64.984C50.9384 65.8893 51.2138 67.1493 51.2138 68.764C51.2138 70.3973 50.9384 71.676 50.3878 72.6C49.8464 73.5147 48.9084 73.972 47.5738 73.972C46.2391 73.972 45.2964 73.5147 44.7458 72.6C44.2044 71.676 43.9338 70.3973 43.9338 68.764ZM49.6458 68.764C49.6458 68.008 49.5944 67.3687 49.4918 66.846C49.3984 66.3233 49.2024 65.8987 48.9038 65.572C48.6051 65.236 48.1618 65.068 47.5738 65.068C46.9858 65.068 46.5424 65.236 46.2438 65.572C45.9451 65.8987 45.7444 66.3233 45.6418 66.846C45.5484 67.3687 45.5018 68.008 45.5018 68.764C45.5018 69.548 45.5484 70.206 45.6418 70.738C45.7351 71.27 45.9311 71.6993 46.2298 72.026C46.5378 72.3527 46.9858 72.516 47.5738 72.516C48.1618 72.516 48.6051 72.3527 48.9038 72.026C49.2118 71.6993 49.4124 71.27 49.5058 70.738C49.5991 70.206 49.6458 69.548 49.6458 68.764ZM52.9025 68.764C52.9025 67.1493 53.1732 65.8893 53.7145 64.984C54.2652 64.0693 55.2078 63.612 56.5425 63.612C57.8772 63.612 58.8152 64.0693 59.3565 64.984C59.9072 65.8893 60.1825 67.1493 60.1825 68.764C60.1825 70.3973 59.9072 71.676 59.3565 72.6C58.8152 73.5147 57.8772 73.972 56.5425 73.972C55.2078 73.972 54.2652 73.5147 53.7145 72.6C53.1732 71.676 52.9025 70.3973 52.9025 68.764ZM58.6145 68.764C58.6145 68.008 58.5632 67.3687 58.4605 66.846C58.3672 66.3233 58.1712 65.8987 57.8725 65.572C57.5738 65.236 57.1305 65.068 56.5425 65.068C55.9545 65.068 55.5112 65.236 55.2125 65.572C54.9138 65.8987 54.7132 66.3233 54.6105 66.846C54.5172 67.3687 54.4705 68.008 54.4705 68.764C54.4705 69.548 54.5172 70.206 54.6105 70.738C54.7038 71.27 54.8998 71.6993 55.1985 72.026C55.5065 72.3527 55.9545 72.516 56.5425 72.516C57.1305 72.516 57.5738 72.3527 57.8725 72.026C58.1805 71.6993 58.3812 71.27 58.4745 70.738C58.5678 70.206 58.6145 69.548 58.6145 68.764ZM61.8713 68.764C61.8713 67.1493 62.1419 65.8893 62.6833 64.984C63.2339 64.0693 64.1766 63.612 65.5113 63.612C66.8459 63.612 67.7839 64.0693 68.3253 64.984C68.8759 65.8893 69.1513 67.1493 69.1513 68.764C69.1513 70.3973 68.8759 71.676 68.3253 72.6C67.7839 73.5147 66.8459 73.972 65.5113 73.972C64.1766 73.972 63.2339 73.5147 62.6833 72.6C62.1419 71.676 61.8713 70.3973 61.8713 68.764ZM67.5833 68.764C67.5833 68.008 67.5319 67.3687 67.4293 66.846C67.3359 66.3233 67.1399 65.8987 66.8413 65.572C66.5426 65.236 66.0993 65.068 65.5113 65.068C64.9233 65.068 64.4799 65.236 64.1813 65.572C63.8826 65.8987 63.6819 66.3233 63.5793 66.846C63.4859 67.3687 63.4393 68.008 63.4393 68.764C63.4393 69.548 63.4859 70.206 63.5793 70.738C63.6726 71.27 63.8686 71.6993 64.1673 72.026C64.4753 72.3527 64.9233 72.516 65.5113 72.516C66.0993 72.516 66.5426 72.3527 66.8413 72.026C67.1493 71.6993 67.3499 71.27 67.4433 70.738C67.5366 70.206 67.5833 69.548 67.5833 68.764Z" fill="white"/>
<rect opacity="0.4" x="799" y="69" width="1.00002" height="718" transform="rotate(90 799 69)" fill="white"/>
<path opacity="0.5" d="M4.64953 127.25V125.794H7.56153L7.56153 136H5.95153L5.95153 127.25H4.64953ZM13.3908 130.764C13.3908 129.149 13.6614 127.889 14.2028 126.984C14.7534 126.069 15.6961 125.612 17.0308 125.612C18.3654 125.612 19.3034 126.069 19.8448 126.984C20.3954 127.889 20.6708 129.149 20.6708 130.764C20.6708 132.397 20.3954 133.676 19.8448 134.6C19.3034 135.515 18.3654 135.972 17.0308 135.972C15.6961 135.972 14.7534 135.515 14.2028 134.6C13.6614 133.676 13.3908 132.397 13.3908 130.764ZM19.1028 130.764C19.1028 130.008 19.0514 129.369 18.9488 128.846C18.8554 128.323 18.6594 127.899 18.3608 127.572C18.0621 127.236 17.6188 127.068 17.0308 127.068C16.4428 127.068 15.9994 127.236 15.7008 127.572C15.4021 127.899 15.2014 128.323 15.0988 128.846C15.0054 129.369 14.9588 130.008 14.9588 130.764C14.9588 131.548 15.0054 132.206 15.0988 132.738C15.1921 133.27 15.3881 133.699 15.6868 134.026C15.9948 134.353 16.4428 134.516 17.0308 134.516C17.6188 134.516 18.0621 134.353 18.3608 134.026C18.6688 133.699 18.8694 133.27 18.9628 132.738C19.0561 132.206 19.1028 131.548 19.1028 130.764ZM22.3595 130.764C22.3595 129.149 22.6302 127.889 23.1715 126.984C23.7222 126.069 24.6649 125.612 25.9995 125.612C27.3342 125.612 28.2722 126.069 28.8135 126.984C29.3642 127.889 29.6395 129.149 29.6395 130.764C29.6395 132.397 29.3642 133.676 28.8135 134.6C28.2722 135.515 27.3342 135.972 25.9995 135.972C24.6649 135.972 23.7222 135.515 23.1715 134.6C22.6302 133.676 22.3595 132.397 22.3595 130.764ZM28.0715 130.764C28.0715 130.008 28.0202 129.369 27.9175 128.846C27.8242 128.323 27.6282 127.899 27.3295 127.572C27.0309 127.236 26.5875 127.068 25.9995 127.068C25.4115 127.068 24.9682 127.236 24.6695 127.572C24.3709 127.899 24.1702 128.323 24.0675 128.846C23.9742 129.369 23.9275 130.008 23.9275 130.764C23.9275 131.548 23.9742 132.206 24.0675 132.738C24.1609 133.27 24.3569 133.699 24.6555 134.026C24.9635 134.353 25.4115 134.516 25.9995 134.516C26.5875 134.516 27.0309 134.353 27.3295 134.026C27.6375 133.699 27.8382 133.27 27.9315 132.738C28.0249 132.206 28.0715 131.548 28.0715 130.764ZM31.3283 130.764C31.3283 129.149 31.5989 127.889 32.1403 126.984C32.6909 126.069 33.6336 125.612 34.9683 125.612C36.3029 125.612 37.2409 126.069 37.7823 126.984C38.3329 127.889 38.6083 129.149 38.6083 130.764C38.6083 132.397 38.3329 133.676 37.7823 134.6C37.2409 135.515 36.3029 135.972 34.9683 135.972C33.6336 135.972 32.6909 135.515 32.1403 134.6C31.5989 133.676 31.3283 132.397 31.3283 130.764ZM37.0403 130.764C37.0403 130.008 36.9889 129.369 36.8863 128.846C36.7929 128.323 36.5969 127.899 36.2983 127.572C35.9996 127.236 35.5563 127.068 34.9683 127.068C34.3803 127.068 33.9369 127.236 33.6383 127.572C33.3396 127.899 33.1389 128.323 33.0363 128.846C32.9429 129.369 32.8963 130.008 32.8963 130.764C32.8963 131.548 32.9429 132.206 33.0363 132.738C33.1296 133.27 33.3256 133.699 33.6243 134.026C33.9323 134.353 34.3803 134.516 34.9683 134.516C35.5563 134.516 35.9996 134.353 36.2983 134.026C36.6063 133.699 36.8069 133.27 36.9003 132.738C36.9936 132.206 37.0403 131.548 37.0403 130.764ZM43.9338 130.764C43.9338 129.149 44.2044 127.889 44.7458 126.984C45.2964 126.069 46.2391 125.612 47.5738 125.612C48.9084 125.612 49.8464 126.069 50.3878 126.984C50.9384 127.889 51.2138 129.149 51.2138 130.764C51.2138 132.397 50.9384 133.676 50.3878 134.6C49.8464 135.515 48.9084 135.972 47.5738 135.972C46.2391 135.972 45.2964 135.515 44.7458 134.6C44.2044 133.676 43.9338 132.397 43.9338 130.764ZM49.6458 130.764C49.6458 130.008 49.5944 129.369 49.4918 128.846C49.3984 128.323 49.2024 127.899 48.9038 127.572C48.6051 127.236 48.1618 127.068 47.5738 127.068C46.9858 127.068 46.5424 127.236 46.2438 127.572C45.9451 127.899 45.7444 128.323 45.6418 128.846C45.5484 129.369 45.5018 130.008 45.5018 130.764C45.5018 131.548 45.5484 132.206 45.6418 132.738C45.7351 133.27 45.9311 133.699 46.2298 134.026C46.5378 134.353 46.9858 134.516 47.5738 134.516C48.1618 134.516 48.6051 134.353 48.9038 134.026C49.2118 133.699 49.4124 133.27 49.5058 132.738C49.5991 132.206 49.6458 131.548 49.6458 130.764ZM52.9025 130.764C52.9025 129.149 53.1732 127.889 53.7145 126.984C54.2652 126.069 55.2078 125.612 56.5425 125.612C57.8772 125.612 58.8152 126.069 59.3565 126.984C59.9072 127.889 60.1825 129.149 60.1825 130.764C60.1825 132.397 59.9072 133.676 59.3565 134.6C58.8152 135.515 57.8772 135.972 56.5425 135.972C55.2078 135.972 54.2652 135.515 53.7145 134.6C53.1732 133.676 52.9025 132.397 52.9025 130.764ZM58.6145 130.764C58.6145 130.008 58.5632 129.369 58.4605 128.846C58.3672 128.323 58.1712 127.899 57.8725 127.572C57.5738 127.236 57.1305 127.068 56.5425 127.068C55.9545 127.068 55.5112 127.236 55.2125 127.572C54.9138 127.899 54.7132 128.323 54.6105 128.846C54.5172 129.369 54.4705 130.008 54.4705 130.764C54.4705 131.548 54.5172 132.206 54.6105 132.738C54.7038 133.27 54.8998 133.699 55.1985 134.026C55.5065 134.353 55.9545 134.516 56.5425 134.516C57.1305 134.516 57.5738 134.353 57.8725 134.026C58.1805 133.699 58.3812 133.27 58.4745 132.738C58.5678 132.206 58.6145 131.548 58.6145 130.764ZM61.8713 130.764C61.8713 129.149 62.1419 127.889 62.6833 126.984C63.2339 126.069 64.1766 125.612 65.5113 125.612C66.8459 125.612 67.7839 126.069 68.3253 126.984C68.8759 127.889 69.1513 129.149 69.1513 130.764C69.1513 132.397 68.8759 133.676 68.3253 134.6C67.7839 135.515 66.8459 135.972 65.5113 135.972C64.1766 135.972 63.2339 135.515 62.6833 134.6C62.1419 133.676 61.8713 132.397 61.8713 130.764ZM67.5833 130.764C67.5833 130.008 67.5319 129.369 67.4293 128.846C67.3359 128.323 67.1399 127.899 66.8413 127.572C66.5426 127.236 66.0993 127.068 65.5113 127.068C64.9233 127.068 64.4799 127.236 64.1813 127.572C63.8826 127.899 63.6819 128.323 63.5793 128.846C63.4859 129.369 63.4393 130.008 63.4393 130.764C63.4393 131.548 63.4859 132.206 63.5793 132.738C63.6726 133.27 63.8686 133.699 64.1673 134.026C64.4753 134.353 64.9233 134.516 65.5113 134.516C66.0993 134.516 66.5426 134.353 66.8413 134.026C67.1493 133.699 67.3499 133.27 67.4433 132.738C67.5366 132.206 67.5833 131.548 67.5833 130.764Z" fill="white"/>
<rect opacity="0.4" x="799" y="131" width="1.00002" height="718" transform="rotate(90 799 131)" fill="white"/>
<path opacity="0.5" d="M19.9981 189.166H15.3081V191.952C15.5041 191.691 15.7935 191.471 16.1761 191.294C16.5681 191.117 16.9835 191.028 17.4221 191.028C18.2061 191.028 18.8408 191.196 19.3261 191.532C19.8208 191.868 20.1708 192.293 20.3761 192.806C20.5908 193.319 20.6981 193.861 20.6981 194.43C20.6981 195.121 20.5628 195.737 20.2921 196.278C20.0308 196.81 19.6341 197.23 19.1021 197.538C18.5795 197.846 17.9355 198 17.1701 198C16.1528 198 15.3361 197.748 14.7201 197.244C14.1041 196.74 13.7355 196.073 13.6141 195.242H15.1681C15.2708 195.681 15.4995 196.031 15.8541 196.292C16.2088 196.544 16.6521 196.67 17.1841 196.67C17.8468 196.67 18.3415 196.469 18.6681 196.068C19.0041 195.667 19.1721 195.135 19.1721 194.472C19.1721 193.8 19.0041 193.287 18.6681 192.932C18.3321 192.568 17.8375 192.386 17.1841 192.386C16.7268 192.386 16.3395 192.503 16.0221 192.736C15.7141 192.96 15.4901 193.268 15.3501 193.66H13.8381V187.766H19.9981V189.166ZM22.3595 192.764C22.3595 191.149 22.6302 189.889 23.1715 188.984C23.7222 188.069 24.6649 187.612 25.9995 187.612C27.3342 187.612 28.2722 188.069 28.8135 188.984C29.3642 189.889 29.6395 191.149 29.6395 192.764C29.6395 194.397 29.3642 195.676 28.8135 196.6C28.2722 197.515 27.3342 197.972 25.9995 197.972C24.6649 197.972 23.7222 197.515 23.1715 196.6C22.6302 195.676 22.3595 194.397 22.3595 192.764ZM28.0715 192.764C28.0715 192.008 28.0202 191.369 27.9175 190.846C27.8242 190.323 27.6282 189.899 27.3295 189.572C27.0309 189.236 26.5875 189.068 25.9995 189.068C25.4115 189.068 24.9682 189.236 24.6695 189.572C24.3709 189.899 24.1702 190.323 24.0675 190.846C23.9742 191.369 23.9275 192.008 23.9275 192.764C23.9275 193.548 23.9742 194.206 24.0675 194.738C24.1609 195.27 24.3569 195.699 24.6555 196.026C24.9635 196.353 25.4115 196.516 25.9995 196.516C26.5875 196.516 27.0309 196.353 27.3295 196.026C27.6375 195.699 27.8382 195.27 27.9315 194.738C28.0249 194.206 28.0715 193.548 28.0715 192.764ZM31.3283 192.764C31.3283 191.149 31.5989 189.889 32.1403 188.984C32.6909 188.069 33.6336 187.612 34.9683 187.612C36.3029 187.612 37.2409 188.069 37.7823 188.984C38.3329 189.889 38.6083 191.149 38.6083 192.764C38.6083 194.397 38.3329 195.676 37.7823 196.6C37.2409 197.515 36.3029 197.972 34.9683 197.972C33.6336 197.972 32.6909 197.515 32.1403 196.6C31.5989 195.676 31.3283 194.397 31.3283 192.764ZM37.0403 192.764C37.0403 192.008 36.9889 191.369 36.8863 190.846C36.7929 190.323 36.5969 189.899 36.2983 189.572C35.9996 189.236 35.5563 189.068 34.9683 189.068C34.3803 189.068 33.9369 189.236 33.6383 189.572C33.3396 189.899 33.1389 190.323 33.0363 190.846C32.9429 191.369 32.8963 192.008 32.8963 192.764C32.8963 193.548 32.9429 194.206 33.0363 194.738C33.1296 195.27 33.3256 195.699 33.6243 196.026C33.9323 196.353 34.3803 196.516 34.9683 196.516C35.5563 196.516 35.9996 196.353 36.2983 196.026C36.6063 195.699 36.8069 195.27 36.9003 194.738C36.9936 194.206 37.0403 193.548 37.0403 192.764ZM43.9338 192.764C43.9338 191.149 44.2044 189.889 44.7458 188.984C45.2964 188.069 46.2391 187.612 47.5738 187.612C48.9084 187.612 49.8464 188.069 50.3878 188.984C50.9384 189.889 51.2138 191.149 51.2138 192.764C51.2138 194.397 50.9384 195.676 50.3878 196.6C49.8464 197.515 48.9084 197.972 47.5738 197.972C46.2391 197.972 45.2964 197.515 44.7458 196.6C44.2044 195.676 43.9338 194.397 43.9338 192.764ZM49.6458 192.764C49.6458 192.008 49.5944 191.369 49.4918 190.846C49.3984 190.323 49.2024 189.899 48.9038 189.572C48.6051 189.236 48.1618 189.068 47.5738 189.068C46.9858 189.068 46.5424 189.236 46.2438 189.572C45.9451 189.899 45.7444 190.323 45.6418 190.846C45.5484 191.369 45.5018 192.008 45.5018 192.764C45.5018 193.548 45.5484 194.206 45.6418 194.738C45.7351 195.27 45.9311 195.699 46.2298 196.026C46.5378 196.353 46.9858 196.516 47.5738 196.516C48.1618 196.516 48.6051 196.353 48.9038 196.026C49.2118 195.699 49.4124 195.27 49.5058 194.738C49.5991 194.206 49.6458 193.548 49.6458 192.764ZM52.9025 192.764C52.9025 191.149 53.1732 189.889 53.7145 188.984C54.2652 188.069 55.2078 187.612 56.5425 187.612C57.8772 187.612 58.8152 188.069 59.3565 188.984C59.9072 189.889 60.1825 191.149 60.1825 192.764C60.1825 194.397 59.9072 195.676 59.3565 196.6C58.8152 197.515 57.8772 197.972 56.5425 197.972C55.2078 197.972 54.2652 197.515 53.7145 196.6C53.1732 195.676 52.9025 194.397 52.9025 192.764ZM58.6145 192.764C58.6145 192.008 58.5632 191.369 58.4605 190.846C58.3672 190.323 58.1712 189.899 57.8725 189.572C57.5738 189.236 57.1305 189.068 56.5425 189.068C55.9545 189.068 55.5112 189.236 55.2125 189.572C54.9138 189.899 54.7132 190.323 54.6105 190.846C54.5172 191.369 54.4705 192.008 54.4705 192.764C54.4705 193.548 54.5172 194.206 54.6105 194.738C54.7038 195.27 54.8998 195.699 55.1985 196.026C55.5065 196.353 55.9545 196.516 56.5425 196.516C57.1305 196.516 57.5738 196.353 57.8725 196.026C58.1805 195.699 58.3812 195.27 58.4745 194.738C58.5678 194.206 58.6145 193.548 58.6145 192.764ZM61.8713 192.764C61.8713 191.149 62.1419 189.889 62.6833 188.984C63.2339 188.069 64.1766 187.612 65.5113 187.612C66.8459 187.612 67.7839 188.069 68.3253 188.984C68.8759 189.889 69.1513 191.149 69.1513 192.764C69.1513 194.397 68.8759 195.676 68.3253 196.6C67.7839 197.515 66.8459 197.972 65.5113 197.972C64.1766 197.972 63.2339 197.515 62.6833 196.6C62.1419 195.676 61.8713 194.397 61.8713 192.764ZM67.5833 192.764C67.5833 192.008 67.5319 191.369 67.4293 190.846C67.3359 190.323 67.1399 189.899 66.8413 189.572C66.5426 189.236 66.0993 189.068 65.5113 189.068C64.9233 189.068 64.4799 189.236 64.1813 189.572C63.8826 189.899 63.6819 190.323 63.5793 190.846C63.4859 191.369 63.4393 192.008 63.4393 192.764C63.4393 193.548 63.4859 194.206 63.5793 194.738C63.6726 195.27 63.8686 195.699 64.1673 196.026C64.4753 196.353 64.9233 196.516 65.5113 196.516C66.0993 196.516 66.5426 196.353 66.8413 196.026C67.1493 195.699 67.3499 195.27 67.4433 194.738C67.5366 194.206 67.5833 193.548 67.5833 192.764Z" fill="white"/>
<rect opacity="0.4" x="799" y="193" width="1.00002" height="718" transform="rotate(90 799 193)" fill="white"/>
<path opacity="0.5" d="M15.1888 257.83C16.0848 257.055 16.7895 256.421 17.3028 255.926C17.8255 255.422 18.2595 254.899 18.6048 254.358C18.9501 253.817 19.1228 253.275 19.1228 252.734C19.1228 252.174 18.9875 251.735 18.7168 251.418C18.4555 251.101 18.0401 250.942 17.4708 250.942C16.9201 250.942 16.4908 251.119 16.1828 251.474C15.8841 251.819 15.7255 252.286 15.7068 252.874H14.1668C14.1948 251.81 14.5121 250.998 15.1188 250.438C15.7348 249.869 16.5141 249.584 17.4568 249.584C18.4741 249.584 19.2675 249.864 19.8368 250.424C20.4155 250.984 20.7048 251.731 20.7048 252.664C20.7048 253.336 20.5321 253.985 20.1868 254.61C19.8508 255.226 19.4448 255.781 18.9688 256.276C18.5021 256.761 17.9048 257.326 17.1768 257.97L16.5468 258.53H20.9848V259.86H14.1808V258.698L15.1888 257.83ZM28.9669 251.166H24.2769V253.952C24.4729 253.691 24.7622 253.471 25.1449 253.294C25.5369 253.117 25.9522 253.028 26.3909 253.028C27.1749 253.028 27.8095 253.196 28.2949 253.532C28.7895 253.868 29.1395 254.293 29.3449 254.806C29.5595 255.319 29.6669 255.861 29.6669 256.43C29.6669 257.121 29.5315 257.737 29.2609 258.278C28.9995 258.81 28.6029 259.23 28.0709 259.538C27.5482 259.846 26.9042 260 26.1389 260C25.1215 260 24.3049 259.748 23.6889 259.244C23.0729 258.74 22.7042 258.073 22.5829 257.242H24.1369C24.2395 257.681 24.4682 258.031 24.8229 258.292C25.1775 258.544 25.6209 258.67 26.1529 258.67C26.8155 258.67 27.3102 258.469 27.6369 258.068C27.9729 257.667 28.1409 257.135 28.1409 256.472C28.1409 255.8 27.9729 255.287 27.6369 254.932C27.3009 254.568 26.8062 254.386 26.1529 254.386C25.6955 254.386 25.3082 254.503 24.9909 254.736C24.6829 254.96 24.4589 255.268 24.3189 255.66H22.8069V249.766H28.9669V251.166ZM31.3283 254.764C31.3283 253.149 31.5989 251.889 32.1403 250.984C32.6909 250.069 33.6336 249.612 34.9683 249.612C36.3029 249.612 37.2409 250.069 37.7823 250.984C38.3329 251.889 38.6083 253.149 38.6083 254.764C38.6083 256.397 38.3329 257.676 37.7823 258.6C37.2409 259.515 36.3029 259.972 34.9683 259.972C33.6336 259.972 32.6909 259.515 32.1403 258.6C31.5989 257.676 31.3283 256.397 31.3283 254.764ZM37.0403 254.764C37.0403 254.008 36.9889 253.369 36.8863 252.846C36.7929 252.323 36.5969 251.899 36.2983 251.572C35.9996 251.236 35.5563 251.068 34.9683 251.068C34.3803 251.068 33.9369 251.236 33.6383 251.572C33.3396 251.899 33.1389 252.323 33.0363 252.846C32.9429 253.369 32.8963 254.008 32.8963 254.764C32.8963 255.548 32.9429 256.206 33.0363 256.738C33.1296 257.27 33.3256 257.699 33.6243 258.026C33.9323 258.353 34.3803 258.516 34.9683 258.516C35.5563 258.516 35.9996 258.353 36.2983 258.026C36.6063 257.699 36.8069 257.27 36.9003 256.738C36.9936 256.206 37.0403 255.548 37.0403 254.764ZM43.9338 254.764C43.9338 253.149 44.2044 251.889 44.7458 250.984C45.2964 250.069 46.2391 249.612 47.5738 249.612C48.9084 249.612 49.8464 250.069 50.3878 250.984C50.9384 251.889 51.2138 253.149 51.2138 254.764C51.2138 256.397 50.9384 257.676 50.3878 258.6C49.8464 259.515 48.9084 259.972 47.5738 259.972C46.2391 259.972 45.2964 259.515 44.7458 258.6C44.2044 257.676 43.9338 256.397 43.9338 254.764ZM49.6458 254.764C49.6458 254.008 49.5944 253.369 49.4918 252.846C49.3984 252.323 49.2024 251.899 48.9038 251.572C48.6051 251.236 48.1618 251.068 47.5738 251.068C46.9858 251.068 46.5424 251.236 46.2438 251.572C45.9451 251.899 45.7444 252.323 45.6418 252.846C45.5484 253.369 45.5018 254.008 45.5018 254.764C45.5018 255.548 45.5484 256.206 45.6418 256.738C45.7351 257.27 45.9311 257.699 46.2298 258.026C46.5378 258.353 46.9858 258.516 47.5738 258.516C48.1618 258.516 48.6051 258.353 48.9038 258.026C49.2118 257.699 49.4124 257.27 49.5058 256.738C49.5991 256.206 49.6458 255.548 49.6458 254.764ZM52.9025 254.764C52.9025 253.149 53.1732 251.889 53.7145 250.984C54.2652 250.069 55.2078 249.612 56.5425 249.612C57.8772 249.612 58.8152 250.069 59.3565 250.984C59.9072 251.889 60.1825 253.149 60.1825 254.764C60.1825 256.397 59.9072 257.676 59.3565 258.6C58.8152 259.515 57.8772 259.972 56.5425 259.972C55.2078 259.972 54.2652 259.515 53.7145 258.6C53.1732 257.676 52.9025 256.397 52.9025 254.764ZM58.6145 254.764C58.6145 254.008 58.5632 253.369 58.4605 252.846C58.3672 252.323 58.1712 251.899 57.8725 251.572C57.5738 251.236 57.1305 251.068 56.5425 251.068C55.9545 251.068 55.5112 251.236 55.2125 251.572C54.9138 251.899 54.7132 252.323 54.6105 252.846C54.5172 253.369 54.4705 254.008 54.4705 254.764C54.4705 255.548 54.5172 256.206 54.6105 256.738C54.7038 257.27 54.8998 257.699 55.1985 258.026C55.5065 258.353 55.9545 258.516 56.5425 258.516C57.1305 258.516 57.5738 258.353 57.8725 258.026C58.1805 257.699 58.3812 257.27 58.4745 256.738C58.5678 256.206 58.6145 255.548 58.6145 254.764ZM61.8713 254.764C61.8713 253.149 62.1419 251.889 62.6833 250.984C63.2339 250.069 64.1766 249.612 65.5113 249.612C66.8459 249.612 67.7839 250.069 68.3253 250.984C68.8759 251.889 69.1513 253.149 69.1513 254.764C69.1513 256.397 68.8759 257.676 68.3253 258.6C67.7839 259.515 66.8459 259.972 65.5113 259.972C64.1766 259.972 63.2339 259.515 62.6833 258.6C62.1419 257.676 61.8713 256.397 61.8713 254.764ZM67.5833 254.764C67.5833 254.008 67.5319 253.369 67.4293 252.846C67.3359 252.323 67.1399 251.899 66.8413 251.572C66.5426 251.236 66.0993 251.068 65.5113 251.068C64.9233 251.068 64.4799 251.236 64.1813 251.572C63.8826 251.899 63.6819 252.323 63.5793 252.846C63.4859 253.369 63.4393 254.008 63.4393 254.764C63.4393 255.548 63.4859 256.206 63.5793 256.738C63.6726 257.27 63.8686 257.699 64.1673 258.026C64.4753 258.353 64.9233 258.516 65.5113 258.516C66.0993 258.516 66.5426 258.353 66.8413 258.026C67.1493 257.699 67.3499 257.27 67.4433 256.738C67.5366 256.206 67.5833 255.548 67.5833 254.764Z" fill="white"/>
<rect opacity="0.4" x="799" y="255" width="1.00002" height="718" transform="rotate(90 799 255)" fill="white"/>
<path opacity="0.5" d="M17.255 313.25V311.794H20.167V322H18.557V313.25H17.255ZM22.3595 316.764C22.3595 315.149 22.6302 313.889 23.1715 312.984C23.7222 312.069 24.6649 311.612 25.9995 311.612C27.3342 311.612 28.2722 312.069 28.8135 312.984C29.3642 313.889 29.6395 315.149 29.6395 316.764C29.6395 318.397 29.3642 319.676 28.8135 320.6C28.2722 321.515 27.3342 321.972 25.9995 321.972C24.6649 321.972 23.7222 321.515 23.1715 320.6C22.6302 319.676 22.3595 318.397 22.3595 316.764ZM28.0715 316.764C28.0715 316.008 28.0202 315.369 27.9175 314.846C27.8242 314.323 27.6282 313.899 27.3295 313.572C27.0309 313.236 26.5875 313.068 25.9995 313.068C25.4115 313.068 24.9682 313.236 24.6695 313.572C24.3709 313.899 24.1702 314.323 24.0675 314.846C23.9742 315.369 23.9275 316.008 23.9275 316.764C23.9275 317.548 23.9742 318.206 24.0675 318.738C24.1609 319.27 24.3569 319.699 24.6555 320.026C24.9635 320.353 25.4115 320.516 25.9995 320.516C26.5875 320.516 27.0309 320.353 27.3295 320.026C27.6375 319.699 27.8382 319.27 27.9315 318.738C28.0249 318.206 28.0715 317.548 28.0715 316.764ZM31.3283 316.764C31.3283 315.149 31.5989 313.889 32.1403 312.984C32.6909 312.069 33.6336 311.612 34.9683 311.612C36.3029 311.612 37.2409 312.069 37.7823 312.984C38.3329 313.889 38.6083 315.149 38.6083 316.764C38.6083 318.397 38.3329 319.676 37.7823 320.6C37.2409 321.515 36.3029 321.972 34.9683 321.972C33.6336 321.972 32.6909 321.515 32.1403 320.6C31.5989 319.676 31.3283 318.397 31.3283 316.764ZM37.0403 316.764C37.0403 316.008 36.9889 315.369 36.8863 314.846C36.7929 314.323 36.5969 313.899 36.2983 313.572C35.9996 313.236 35.5563 313.068 34.9683 313.068C34.3803 313.068 33.9369 313.236 33.6383 313.572C33.3396 313.899 33.1389 314.323 33.0363 314.846C32.9429 315.369 32.8963 316.008 32.8963 316.764C32.8963 317.548 32.9429 318.206 33.0363 318.738C33.1296 319.27 33.3256 319.699 33.6243 320.026C33.9323 320.353 34.3803 320.516 34.9683 320.516C35.5563 320.516 35.9996 320.353 36.2983 320.026C36.6063 319.699 36.8069 319.27 36.9003 318.738C36.9936 318.206 37.0403 317.548 37.0403 316.764ZM43.9338 316.764C43.9338 315.149 44.2044 313.889 44.7458 312.984C45.2964 312.069 46.2391 311.612 47.5738 311.612C48.9084 311.612 49.8464 312.069 50.3878 312.984C50.9384 313.889 51.2138 315.149 51.2138 316.764C51.2138 318.397 50.9384 319.676 50.3878 320.6C49.8464 321.515 48.9084 321.972 47.5738 321.972C46.2391 321.972 45.2964 321.515 44.7458 320.6C44.2044 319.676 43.9338 318.397 43.9338 316.764ZM49.6458 316.764C49.6458 316.008 49.5944 315.369 49.4918 314.846C49.3984 314.323 49.2024 313.899 48.9038 313.572C48.6051 313.236 48.1618 313.068 47.5738 313.068C46.9858 313.068 46.5424 313.236 46.2438 313.572C45.9451 313.899 45.7444 314.323 45.6418 314.846C45.5484 315.369 45.5018 316.008 45.5018 316.764C45.5018 317.548 45.5484 318.206 45.6418 318.738C45.7351 319.27 45.9311 319.699 46.2298 320.026C46.5378 320.353 46.9858 320.516 47.5738 320.516C48.1618 320.516 48.6051 320.353 48.9038 320.026C49.2118 319.699 49.4124 319.27 49.5058 318.738C49.5991 318.206 49.6458 317.548 49.6458 316.764ZM52.9025 316.764C52.9025 315.149 53.1732 313.889 53.7145 312.984C54.2652 312.069 55.2078 311.612 56.5425 311.612C57.8772 311.612 58.8152 312.069 59.3565 312.984C59.9072 313.889 60.1825 315.149 60.1825 316.764C60.1825 318.397 59.9072 319.676 59.3565 320.6C58.8152 321.515 57.8772 321.972 56.5425 321.972C55.2078 321.972 54.2652 321.515 53.7145 320.6C53.1732 319.676 52.9025 318.397 52.9025 316.764ZM58.6145 316.764C58.6145 316.008 58.5632 315.369 58.4605 314.846C58.3672 314.323 58.1712 313.899 57.8725 313.572C57.5738 313.236 57.1305 313.068 56.5425 313.068C55.9545 313.068 55.5112 313.236 55.2125 313.572C54.9138 313.899 54.7132 314.323 54.6105 314.846C54.5172 315.369 54.4705 316.008 54.4705 316.764C54.4705 317.548 54.5172 318.206 54.6105 318.738C54.7038 319.27 54.8998 319.699 55.1985 320.026C55.5065 320.353 55.9545 320.516 56.5425 320.516C57.1305 320.516 57.5738 320.353 57.8725 320.026C58.1805 319.699 58.3812 319.27 58.4745 318.738C58.5678 318.206 58.6145 317.548 58.6145 316.764ZM61.8713 316.764C61.8713 315.149 62.1419 313.889 62.6833 312.984C63.2339 312.069 64.1766 311.612 65.5113 311.612C66.8459 311.612 67.7839 312.069 68.3253 312.984C68.8759 313.889 69.1513 315.149 69.1513 316.764C69.1513 318.397 68.8759 319.676 68.3253 320.6C67.7839 321.515 66.8459 321.972 65.5113 321.972C64.1766 321.972 63.2339 321.515 62.6833 320.6C62.1419 319.676 61.8713 318.397 61.8713 316.764ZM67.5833 316.764C67.5833 316.008 67.5319 315.369 67.4293 314.846C67.3359 314.323 67.1399 313.899 66.8413 313.572C66.5426 313.236 66.0993 313.068 65.5113 313.068C64.9233 313.068 64.4799 313.236 64.1813 313.572C63.8826 313.899 63.6819 314.323 63.5793 314.846C63.4859 315.369 63.4393 316.008 63.4393 316.764C63.4393 317.548 63.4859 318.206 63.5793 318.738C63.6726 319.27 63.8686 319.699 64.1673 320.026C64.4753 320.353 64.9233 320.516 65.5113 320.516C66.0993 320.516 66.5426 320.353 66.8413 320.026C67.1493 319.699 67.3499 319.27 67.4433 318.738C67.5366 318.206 67.5833 317.548 67.5833 316.764Z" fill="white"/>
<rect opacity="0.4" x="799" y="317" width="1.00002" height="718" transform="rotate(90 799 317)" fill="white"/>
<path opacity="0.5" d="M28.9669 375.166H24.2769V377.952C24.4729 377.691 24.7622 377.471 25.1449 377.294C25.5369 377.117 25.9522 377.028 26.3909 377.028C27.1749 377.028 27.8095 377.196 28.2949 377.532C28.7895 377.868 29.1395 378.293 29.3449 378.806C29.5595 379.319 29.6669 379.861 29.6669 380.43C29.6669 381.121 29.5315 381.737 29.2609 382.278C28.9995 382.81 28.6029 383.23 28.0709 383.538C27.5482 383.846 26.9042 384 26.1389 384C25.1215 384 24.3049 383.748 23.6889 383.244C23.0729 382.74 22.7042 382.073 22.5829 381.242H24.1369C24.2395 381.681 24.4682 382.031 24.8229 382.292C25.1775 382.544 25.6209 382.67 26.1529 382.67C26.8155 382.67 27.3102 382.469 27.6369 382.068C27.9729 381.667 28.1409 381.135 28.1409 380.472C28.1409 379.8 27.9729 379.287 27.6369 378.932C27.3009 378.568 26.8062 378.386 26.1529 378.386C25.6955 378.386 25.3082 378.503 24.9909 378.736C24.6829 378.96 24.4589 379.268 24.3189 379.66H22.8069V373.766H28.9669V375.166ZM31.3283 378.764C31.3283 377.149 31.5989 375.889 32.1403 374.984C32.6909 374.069 33.6336 373.612 34.9683 373.612C36.3029 373.612 37.2409 374.069 37.7823 374.984C38.3329 375.889 38.6083 377.149 38.6083 378.764C38.6083 380.397 38.3329 381.676 37.7823 382.6C37.2409 383.515 36.3029 383.972 34.9683 383.972C33.6336 383.972 32.6909 383.515 32.1403 382.6C31.5989 381.676 31.3283 380.397 31.3283 378.764ZM37.0403 378.764C37.0403 378.008 36.9889 377.369 36.8863 376.846C36.7929 376.323 36.5969 375.899 36.2983 375.572C35.9996 375.236 35.5563 375.068 34.9683 375.068C34.3803 375.068 33.9369 375.236 33.6383 375.572C33.3396 375.899 33.1389 376.323 33.0363 376.846C32.9429 377.369 32.8963 378.008 32.8963 378.764C32.8963 379.548 32.9429 380.206 33.0363 380.738C33.1296 381.27 33.3256 381.699 33.6243 382.026C33.9323 382.353 34.3803 382.516 34.9683 382.516C35.5563 382.516 35.9996 382.353 36.2983 382.026C36.6063 381.699 36.8069 381.27 36.9003 380.738C36.9936 380.206 37.0403 379.548 37.0403 378.764ZM43.9338 378.764C43.9338 377.149 44.2044 375.889 44.7458 374.984C45.2964 374.069 46.2391 373.612 47.5738 373.612C48.9084 373.612 49.8464 374.069 50.3878 374.984C50.9384 375.889 51.2138 377.149 51.2138 378.764C51.2138 380.397 50.9384 381.676 50.3878 382.6C49.8464 383.515 48.9084 383.972 47.5738 383.972C46.2391 383.972 45.2964 383.515 44.7458 382.6C44.2044 381.676 43.9338 380.397 43.9338 378.764ZM49.6458 378.764C49.6458 378.008 49.5944 377.369 49.4918 376.846C49.3984 376.323 49.2024 375.899 48.9038 375.572C48.6051 375.236 48.1618 375.068 47.5738 375.068C46.9858 375.068 46.5424 375.236 46.2438 375.572C45.9451 375.899 45.7444 376.323 45.6418 376.846C45.5484 377.369 45.5018 378.008 45.5018 378.764C45.5018 379.548 45.5484 380.206 45.6418 380.738C45.7351 381.27 45.9311 381.699 46.2298 382.026C46.5378 382.353 46.9858 382.516 47.5738 382.516C48.1618 382.516 48.6051 382.353 48.9038 382.026C49.2118 381.699 49.4124 381.27 49.5058 380.738C49.5991 380.206 49.6458 379.548 49.6458 378.764ZM52.9025 378.764C52.9025 377.149 53.1732 375.889 53.7145 374.984C54.2652 374.069 55.2078 373.612 56.5425 373.612C57.8772 373.612 58.8152 374.069 59.3565 374.984C59.9072 375.889 60.1825 377.149 60.1825 378.764C60.1825 380.397 59.9072 381.676 59.3565 382.6C58.8152 383.515 57.8772 383.972 56.5425 383.972C55.2078 383.972 54.2652 383.515 53.7145 382.6C53.1732 381.676 52.9025 380.397 52.9025 378.764ZM58.6145 378.764C58.6145 378.008 58.5632 377.369 58.4605 376.846C58.3672 376.323 58.1712 375.899 57.8725 375.572C57.5738 375.236 57.1305 375.068 56.5425 375.068C55.9545 375.068 55.5112 375.236 55.2125 375.572C54.9138 375.899 54.7132 376.323 54.6105 376.846C54.5172 377.369 54.4705 378.008 54.4705 378.764C54.4705 379.548 54.5172 380.206 54.6105 380.738C54.7038 381.27 54.8998 381.699 55.1985 382.026C55.5065 382.353 55.9545 382.516 56.5425 382.516C57.1305 382.516 57.5738 382.353 57.8725 382.026C58.1805 381.699 58.3812 381.27 58.4745 380.738C58.5678 380.206 58.6145 379.548 58.6145 378.764ZM61.8713 378.764C61.8713 377.149 62.1419 375.889 62.6833 374.984C63.2339 374.069 64.1766 373.612 65.5113 373.612C66.8459 373.612 67.7839 374.069 68.3253 374.984C68.8759 375.889 69.1513 377.149 69.1513 378.764C69.1513 380.397 68.8759 381.676 68.3253 382.6C67.7839 383.515 66.8459 383.972 65.5113 383.972C64.1766 383.972 63.2339 383.515 62.6833 382.6C62.1419 381.676 61.8713 380.397 61.8713 378.764ZM67.5833 378.764C67.5833 378.008 67.5319 377.369 67.4293 376.846C67.3359 376.323 67.1399 375.899 66.8413 375.572C66.5426 375.236 66.0993 375.068 65.5113 375.068C64.9233 375.068 64.4799 375.236 64.1813 375.572C63.8826 375.899 63.6819 376.323 63.5793 376.846C63.4859 377.369 63.4393 378.008 63.4393 378.764C63.4393 379.548 63.4859 380.206 63.5793 380.738C63.6726 381.27 63.8686 381.699 64.1673 382.026C64.4753 382.353 64.9233 382.516 65.5113 382.516C66.0993 382.516 66.5426 382.353 66.8413 382.026C67.1493 381.699 67.3499 381.27 67.4433 380.738C67.5366 380.206 67.5833 379.548 67.5833 378.764Z" fill="white"/>
<rect opacity="0.4" x="799" y="379" width="1.00002" height="718" transform="rotate(90 799 379)" fill="white"/>
<path opacity="0.5" d="M24.1575 443.83C25.0535 443.055 25.7582 442.421 26.2715 441.926C26.7942 441.422 27.2282 440.899 27.5735 440.358C27.9189 439.817 28.0915 439.275 28.0915 438.734C28.0915 438.174 27.9562 437.735 27.6855 437.418C27.4242 437.101 27.0089 436.942 26.4395 436.942C25.8889 436.942 25.4595 437.119 25.1515 437.474C24.8529 437.819 24.6942 438.286 24.6755 438.874H23.1355C23.1635 437.81 23.4809 436.998 24.0875 436.438C24.7035 435.869 25.4829 435.584 26.4255 435.584C27.4429 435.584 28.2362 435.864 28.8055 436.424C29.3842 436.984 29.6735 437.731 29.6735 438.664C29.6735 439.336 29.5009 439.985 29.1555 440.61C28.8195 441.226 28.4135 441.781 27.9375 442.276C27.4709 442.761 26.8735 443.326 26.1455 443.97L25.5155 444.53H29.9535V445.86H23.1495V444.698L24.1575 443.83ZM37.9356 437.166H33.2456V439.952C33.4416 439.691 33.731 439.471 34.1136 439.294C34.5056 439.117 34.921 439.028 35.3596 439.028C36.1436 439.028 36.7783 439.196 37.2636 439.532C37.7583 439.868 38.1083 440.293 38.3136 440.806C38.5283 441.319 38.6356 441.861 38.6356 442.43C38.6356 443.121 38.5003 443.737 38.2296 444.278C37.9683 444.81 37.5716 445.23 37.0396 445.538C36.517 445.846 35.873 446 35.1076 446C34.0903 446 33.2736 445.748 32.6576 445.244C32.0416 444.74 31.673 444.073 31.5516 443.242H33.1056C33.2083 443.681 33.437 444.031 33.7916 444.292C34.1463 444.544 34.5896 444.67 35.1216 444.67C35.7843 444.67 36.279 444.469 36.6056 444.068C36.9416 443.667 37.1096 443.135 37.1096 442.472C37.1096 441.8 36.9416 441.287 36.6056 440.932C36.2696 440.568 35.775 440.386 35.1216 440.386C34.6643 440.386 34.277 440.503 33.9596 440.736C33.6516 440.96 33.4276 441.268 33.2876 441.66H31.7756V435.766H37.9356V437.166ZM43.9338 440.764C43.9338 439.149 44.2044 437.889 44.7458 436.984C45.2964 436.069 46.2391 435.612 47.5738 435.612C48.9084 435.612 49.8464 436.069 50.3878 436.984C50.9384 437.889 51.2138 439.149 51.2138 440.764C51.2138 442.397 50.9384 443.676 50.3878 444.6C49.8464 445.515 48.9084 445.972 47.5738 445.972C46.2391 445.972 45.2964 445.515 44.7458 444.6C44.2044 443.676 43.9338 442.397 43.9338 440.764ZM49.6458 440.764C49.6458 440.008 49.5944 439.369 49.4918 438.846C49.3984 438.323 49.2024 437.899 48.9038 437.572C48.6051 437.236 48.1618 437.068 47.5738 437.068C46.9858 437.068 46.5424 437.236 46.2438 437.572C45.9451 437.899 45.7444 438.323 45.6418 438.846C45.5484 439.369 45.5018 440.008 45.5018 440.764C45.5018 441.548 45.5484 442.206 45.6418 442.738C45.7351 443.27 45.9311 443.699 46.2298 444.026C46.5378 444.353 46.9858 444.516 47.5738 444.516C48.1618 444.516 48.6051 444.353 48.9038 444.026C49.2118 443.699 49.4124 443.27 49.5058 442.738C49.5991 442.206 49.6458 441.548 49.6458 440.764ZM52.9025 440.764C52.9025 439.149 53.1732 437.889 53.7145 436.984C54.2652 436.069 55.2078 435.612 56.5425 435.612C57.8772 435.612 58.8152 436.069 59.3565 436.984C59.9072 437.889 60.1825 439.149 60.1825 440.764C60.1825 442.397 59.9072 443.676 59.3565 444.6C58.8152 445.515 57.8772 445.972 56.5425 445.972C55.2078 445.972 54.2652 445.515 53.7145 444.6C53.1732 443.676 52.9025 442.397 52.9025 440.764ZM58.6145 440.764C58.6145 440.008 58.5632 439.369 58.4605 438.846C58.3672 438.323 58.1712 437.899 57.8725 437.572C57.5738 437.236 57.1305 437.068 56.5425 437.068C55.9545 437.068 55.5112 437.236 55.2125 437.572C54.9138 437.899 54.7132 438.323 54.6105 438.846C54.5172 439.369 54.4705 440.008 54.4705 440.764C54.4705 441.548 54.5172 442.206 54.6105 442.738C54.7038 443.27 54.8998 443.699 55.1985 444.026C55.5065 444.353 55.9545 444.516 56.5425 444.516C57.1305 444.516 57.5738 444.353 57.8725 444.026C58.1805 443.699 58.3812 443.27 58.4745 442.738C58.5678 442.206 58.6145 441.548 58.6145 440.764ZM61.8713 440.764C61.8713 439.149 62.1419 437.889 62.6833 436.984C63.2339 436.069 64.1766 435.612 65.5113 435.612C66.8459 435.612 67.7839 436.069 68.3253 436.984C68.8759 437.889 69.1513 439.149 69.1513 440.764C69.1513 442.397 68.8759 443.676 68.3253 444.6C67.7839 445.515 66.8459 445.972 65.5113 445.972C64.1766 445.972 63.2339 445.515 62.6833 444.6C62.1419 443.676 61.8713 442.397 61.8713 440.764ZM67.5833 440.764C67.5833 440.008 67.5319 439.369 67.4293 438.846C67.3359 438.323 67.1399 437.899 66.8413 437.572C66.5426 437.236 66.0993 437.068 65.5113 437.068C64.9233 437.068 64.4799 437.236 64.1813 437.572C63.8826 437.899 63.6819 438.323 63.5793 438.846C63.4859 439.369 63.4393 440.008 63.4393 440.764C63.4393 441.548 63.4859 442.206 63.5793 442.738C63.6726 443.27 63.8686 443.699 64.1673 444.026C64.4753 444.353 64.9233 444.516 65.5113 444.516C66.0993 444.516 66.5426 444.353 66.8413 444.026C67.1493 443.699 67.3499 443.27 67.4433 442.738C67.5366 442.206 67.5833 441.548 67.5833 440.764Z" fill="white"/>
<rect opacity="0.4" x="799" y="441" width="1.00002" height="718" transform="rotate(90 799 441)" fill="white"/>
<path opacity="0.4" d="M800 496L800 497L81 497L81 496L800 496Z" fill="white"/>
<defs>
<linearGradient id="paint0_linear_820_108" x1="440" y1="-20.2997" x2="440" y2="494" gradientUnits="userSpaceOnUse">
<stop stop-color="#8554FB"/>
<stop offset="1" stop-color="#8555FB" stop-opacity="0"/>
</linearGradient>
<linearGradient id="paint1_linear_820_108" x1="440" y1="128.957" x2="440" y2="494" gradientUnits="userSpaceOnUse">
<stop stop-color="#FFC700"/>
<stop offset="1" stop-color="#FFC701" stop-opacity="0"/>
</linearGradient>
<linearGradient id="paint2_linear_820_108" x1="440" y1="219.516" x2="440" y2="494" gradientUnits="userSpaceOnUse">
<stop stop-color="#FF00FB"/>
<stop offset="1" stop-color="#FF01FB" stop-opacity="0"/>
</linearGradient>
</defs>
</svg>
